<?xml version="1.0" standalone="no"?>
<!DOCTYPE svg PUBLIC "-//W3C//DTD SVG 1.1//EN" "http://www.w3.org/Graphics/SVG/1.1/DTD/svg11.dtd" >
<svg>
<metadata>
Created by FontForge 20090914 at Wed Dec 28 14:00:20 2016
 By www-data
Copyright &#194;&#169; 2013 by Type Dynamic. All rights reserved.
</metadata>
<defs>
<font id="Lasiver-Bold" horiz-adv-x="1763" >
  <font-face 
    font-family="Lasiver"
    font-weight="700"
    font-stretch="normal"
    units-per-em="2048"
    panose-1="0 0 8 0 0 0 0 0 0 0"
    ascent="1536"
    descent="-512"
    x-height="1059"
    cap-height="1532"
    bbox="-319 -545 2380 2066"
    underline-thickness="102"
    underline-position="-204"
    unicode-range="U+000D-U+FB02"
  />
<missing-glyph horiz-adv-x="748" 
d="M68 0v1365h544v-1365h-544zM136 68h408v1229h-408v-1229z" />
    <glyph glyph-name="uniFB01" unicode="fi" horiz-adv-x="1296" 
d="M29 805l0.000976562 254.003h190v102c0 77.333 11.833 145.166 35.5 203.499s57.334 105.166 101.001 140.499s94 61.666 151 78.999s120.833 26 191.5 26c145.333 0 268.333 -33 369 -99l-94 -254c-30.667 24 -68.834 44 -114.501 60s-94.834 24 -147.501 24
c-58 0 -103.667 -16.5 -137 -49.5s-50 -80.5 -50 -142.5v-90h625v-1059h-305v805h-320v-805h-305v805h-190z" />
    <glyph glyph-name="uniFB02" unicode="fl" horiz-adv-x="1388" 
d="M29 805l0.000976562 254h190v106c0 138 39.167 244.833 117.5 320.5s189.5 113.5 333.5 113.5c58.667 0 103 -6 133 -18l-35 -268c-30.667 10.667 -62 16 -94 16c-44.667 0 -80.834 -14.5 -108.501 -43.5s-41.5 -69.833 -41.5 -122.5v-104h240v-254h-240v-805h-305v805
h-190zM938.001 0v1591h305v-1591h-305z" />
    <glyph glyph-name=".notdef" horiz-adv-x="748" 
d="M68 0v1365h544v-1365h-544zM136 68h408v1229h-408v-1229z" />
    <glyph glyph-name="uni000D" unicode="&#xd;" horiz-adv-x="1228" 
 />
    <glyph glyph-name="space" unicode=" " horiz-adv-x="456" 
 />
    <glyph glyph-name="exclam" unicode="!" horiz-adv-x="667" 
d="M150 162c0 51.333 17.667 94.833 53 130.5s78.333 53.5 129 53.5c51.333 0 95.166 -18 131.499 -54s54.5 -79.333 54.5 -130s-18.167 -94.167 -54.5 -130.5s-80.166 -54.5 -131.499 -54.5c-50.667 0 -93.667 18 -129 54s-53 79.667 -53 131zM156 1532h356l-16 -1063h-324
z" />
    <glyph glyph-name="quotedbl" unicode="&#x22;" horiz-adv-x="868" 
d="M84 1546h291l-29 -581h-233zM494 1546h290l-28 -581h-234z" />
    <glyph glyph-name="numbersign" unicode="#" horiz-adv-x="1372" 
d="M12 367l58 241h215l71 303h-217l58 244h217l90 377h250l-90 -377h229l90 377h250l-90 -377h217l-57 -244h-218l-71 -303h221l-57 -241h-222l-88 -367h-250l89 367h-230l-88 -367h-250l88 367h-215zM535 608h229l72 303h-230z" />
    <glyph glyph-name="dollar" unicode="$" horiz-adv-x="1181" 
d="M53 338l286.999 124.999c22.667 -64.667 54.334 -114.334 95.001 -149.001s88.334 -52 143.001 -52c49.333 0 90 15.333 122 46s48 74 48 130c0 48 -15.833 86.333 -47.5 115s-89.834 60 -174.501 94c-66 25.333 -122.333 51.333 -169 78s-88 57.834 -124 93.501
s-62.667 76.334 -80 122.001s-26 97.5 -26 155.5c0 114 28.333 210.167 85 288.5s139 129.5 247 153.5v234h254v-226c174.667 -29.333 292 -134.333 352 -315l-299 -98c-26.667 90 -80.667 135 -162 135c-45.333 0 -80.833 -14 -106.5 -42s-38.5 -65.333 -38.5 -112
c0 -13.333 1 -25.666 3 -36.999s6.66699 -22.333 14 -33s13.666 -19.5 18.999 -26.5s15.5 -15.333 30.5 -25l34.5 -22c8 -5 23.5 -12.5 46.5 -22.5l51 -22l61.5 -25c61.333 -24 112.5 -48.167 153.5 -72.5s77.833 -53.5 110.5 -87.5s56.5 -74 71.5 -120
s22.5 -99.333 22.5 -160c0 -123.333 -32.167 -226.5 -96.5 -309.5s-153.5 -136.833 -267.5 -161.5v-232h-254v226c-98.667 15.333 -181.167 52.166 -247.5 110.499s-119.166 139.5 -158.499 243.5z" />
    <glyph glyph-name="percent" unicode="%" horiz-adv-x="1945" 
d="M66 1167c0 113.333 37.667 206.166 113 278.499s167.333 108.5 276 108.5s200.667 -36.167 276 -108.5s113 -165.166 113 -278.499s-37.667 -205.833 -113 -277.5s-167.333 -107.5 -276 -107.5s-200.667 35.833 -276 107.5s-113 164.167 -113 277.5zM295 1167
c0 -50 15.167 -90.833 45.5 -122.5s68.5 -47.5 114.5 -47.5c45.333 0 83.166 15.833 113.499 47.5s45.5 72.5 45.5 122.5s-15.167 90.833 -45.5 122.5s-68.166 47.5 -113.499 47.5c-46 0 -84.167 -15.833 -114.5 -47.5s-45.5 -72.5 -45.5 -122.5zM324 0l1005 1532h293
l-1006 -1532h-292zM1102 365c0 113.333 37.667 205.833 113 277.5s167.333 107.5 276 107.5c110 0 202.333 -35.833 277 -107.5s112 -164.167 112 -277.5s-37.5 -206.333 -112.5 -279s-167.167 -109 -276.5 -109c-108.667 0 -200.667 36.333 -276 109s-113 165.667 -113 279
zM1331 365c0 -50 15.167 -90.833 45.5 -122.5s68.5 -47.5 114.5 -47.5s84.167 15.833 114.5 47.5s45.5 72.5 45.5 122.5s-15.167 90.833 -45.5 122.5s-68.5 47.5 -114.5 47.5s-84.167 -15.833 -114.5 -47.5s-45.5 -72.5 -45.5 -122.5z" />
    <glyph glyph-name="ampersand" unicode="&#x26;" horiz-adv-x="1521" 
d="M78 418c0 47.333 7.33203 91.1689 21.999 131.502s36.167 76.666 64.5 108.999s58.5 60.833 90.5 85.5s70 49.667 114 75c-58.667 56.667 -103.167 110.334 -133.5 161.001s-45.5 108.334 -45.5 173.001c0 124.667 43.667 222.667 131 294s200 107 338 107
c140.667 0 254 -35 340 -105s129 -164 129 -282c0 -44.667 -7.5 -85.834 -22.5 -123.501s-37.333 -71.834 -67 -102.501s-61 -57.834 -94 -81.501s-72.833 -48.167 -119.5 -73.5l29 -28l188 -199c45.333 80.667 86.333 175 123 283l291 -88
c-58 -162.667 -125.667 -300.667 -203 -414l326 -340h-410l-116 123c-125.333 -95.333 -269.333 -143 -432 -143c-163.333 0 -294.666 40.5 -393.999 121.5s-149 186.5 -149 316.5zM405.999 430.003c0 -57.333 19.833 -101.333 59.5 -132s92.834 -46 159.501 -46
c79.333 0 155.666 27.333 228.999 82l-260 272l-37 37c-100.667 -64.667 -151 -135.667 -151 -213zM511.999 1141c0 -31.333 9.66602 -60 28.999 -86s52 -59 98 -99c54.667 30 96 59.333 124 88s42 61 42 97c0 42 -13.667 75.667 -41 101s-62.333 38 -105 38
c-43.333 0 -78.666 -12.5 -105.999 -37.5s-41 -58.833 -41 -101.5z" />
    <glyph glyph-name="quotesingle" unicode="'" horiz-adv-x="458" 
d="M84 1546h291l-29 -581h-233z" />
    <glyph glyph-name="parenleft" unicode="(" horiz-adv-x="614" 
d="M74 655c0 320.667 81 604.667 243 852l263 -94c-134 -240 -201 -492.667 -201 -758c0 -264.667 67 -517 201 -757l-263 -93c-74 112 -133 239.833 -177 383.5s-66 299.167 -66 466.5z" />
    <glyph glyph-name="parenright" unicode=")" horiz-adv-x="614" 
d="M33 -102c135.333 238 203 490.333 203 757c0 267.333 -67.667 520 -203 758l264 94c74 -112.667 132.833 -241 176.5 -385s65.5 -299.667 65.5 -467c0 -168 -21.833 -323.833 -65.5 -467.5s-102.5 -271.167 -176.5 -382.5z" />
    <glyph glyph-name="asterisk" unicode="*" horiz-adv-x="757" 
d="M12 1239l54 160l233 -82l-4 248h168l-4 -248l233 82l53 -160l-237 -76l149 -192l-137 -103l-141 205l-141 -207l-136 103l148 194z" />
    <glyph glyph-name="plus" unicode="+" horiz-adv-x="1122" 
d="M63 621v274h351v358h295v-358h350v-274h-350v-363h-295v363h-351z" />
    <glyph glyph-name="comma" unicode="," horiz-adv-x="540" 
d="M94 162c0 50.667 16.833 93.999 50.5 129.999s76.167 54 127.5 54c53.333 0 95.333 -18.833 126 -56.5s46 -86.5 46 -146.5v-2v-2c-2 -206 -107.667 -363 -317 -471v129c74 46 119.667 107 137 183c-47.333 3.33301 -87.5 22.333 -120.5 57s-49.5 76.334 -49.5 125.001z
" />
    <glyph glyph-name="hyphen" unicode="-" horiz-adv-x="833" 
d="M92 393v287h649v-287h-649z" />
    <glyph glyph-name="period" unicode="." horiz-adv-x="557" 
d="M94 162c0 50.667 17.833 94 53.5 130s78.5 54 128.5 54c52 0 96.167 -17.833 132.5 -53.5s54.5 -79.167 54.5 -130.5s-18.167 -95 -54.5 -131s-80.5 -54 -132.5 -54c-50 0 -92.833 18.167 -128.5 54.5s-53.5 79.833 -53.5 130.5z" />
    <glyph glyph-name="slash" unicode="/" horiz-adv-x="868" 
d="M12 -137l523 1669h319l-522 -1669h-320z" />
    <glyph glyph-name="zero" unicode="0" horiz-adv-x="1335" 
d="M86 766c0 250.667 52.667 444.667 158 582s246.666 206 423.999 206c180 0 321.833 -69.333 425.5 -208s155.5 -332 155.5 -580c0 -254 -51.667 -449 -155 -585s-245.333 -204 -426 -204c-181.333 0 -323.666 68 -426.999 204s-155 331 -155 585zM414 766
c0 -164.667 21.3311 -289.5 63.998 -374.5s106 -127.5 190 -127.5c82.667 0 145.334 42.667 188.001 128s64 210 64 374c0 163.333 -21.167 287.833 -63.5 373.5s-105.166 128.5 -188.499 128.5s-146.5 -43 -189.5 -129s-64.5 -210.333 -64.5 -373z" />
    <glyph glyph-name="one" unicode="1" horiz-adv-x="829" 
d="M53 1016v315l367 201h258v-1532h-322v1169z" />
    <glyph glyph-name="two" unicode="2" horiz-adv-x="1126" 
d="M55 1325c52 71.333 117.829 127.334 197.496 168.001s170.834 61 273.501 61c158 0 282.833 -41.333 374.5 -124s137.5 -200.334 137.5 -353.001c0 -39.333 -3.66699 -78 -11 -116s-16.5 -73.333 -27.5 -106s-26.667 -66.167 -47 -100.5s-39.333 -64.666 -57 -90.999
s-41 -55.333 -70 -87s-54 -58 -75 -79s-48.667 -46.333 -83 -76l-82 -69.5l-83.5 -67h545v-285h-973v264l137 110.5l127.5 107.5c51 44 91.833 81.5 122.5 112.5s63.834 67.333 99.501 109s63.334 79.667 83.001 114s36.167 71.166 49.5 110.499s20 77.333 20 114
c0 68.667 -18.333 123.5 -55 164.5s-86 61.5 -148 61.5c-53.333 0 -102.166 -13.5 -146.499 -40.5s-81.5 -63.5 -111.5 -109.5z" />
    <glyph glyph-name="three" unicode="3" horiz-adv-x="1077" 
d="M16 203l199 207c50 -97.333 129.333 -146 238 -146c62 0 113.333 17.833 154 53.5s61 84.167 61 145.5c0 63.333 -22.833 111.833 -68.5 145.5s-106.834 50.5 -183.501 50.5h-109v261h111c64 0 115.167 15.333 153.5 46s57.5 73.334 57.5 128.001
c0 51.333 -16.667 93.166 -50 125.499s-75.333 48.5 -126 48.5c-102 0 -178 -48.667 -228 -146l-196 207c48.667 70.667 109.334 125.834 182.001 165.501s154.667 59.5 246 59.5c151.333 0 271.666 -39.833 360.999 -119.5s134 -190.5 134 -332.5
c0 -69.333 -15.667 -130 -47 -182s-73.666 -94.333 -126.999 -127c142 -78.667 213 -190.667 213 -336c0 -148.667 -48.5 -265.834 -145.5 -351.501s-224.5 -128.5 -382.5 -128.5c-194.667 0 -343.667 75.333 -447 226z" />
    <glyph glyph-name="four" unicode="4" horiz-adv-x="1261" 
d="M49 315v242l297 975h334l-301 -930h287v375h323v-375h232v-287h-232v-315h-323v315h-617z" />
    <glyph glyph-name="five" unicode="5" horiz-adv-x="1169" 
d="M100 203l201 206.999c52 -97.333 136 -146 252 -146c66 0 117.667 19.5 155 58.5s56 93.167 56 162.5c0 68 -19.167 121.167 -57.5 159.5s-90.833 57.5 -157.5 57.5c-48.667 0 -95 -10.667 -139 -32h-230v862h830v-285h-506v-282c30.667 2.66699 53 4 67 4
c71.333 0 138 -10.167 200 -30.5s116.667 -49.666 164 -87.999s84.5 -88 111.5 -149s40.5 -129.5 40.5 -205.5c0 -162 -47.5 -289 -142.5 -381s-222.167 -138 -381.5 -138c-103.333 0 -193.833 19.833 -271.5 59.5s-141.5 95.167 -191.5 166.5z" />
    <glyph glyph-name="six" unicode="6" horiz-adv-x="1243" 
d="M86 700c0 267.333 51.9961 476.5 155.996 627.5s252 226.5 444 226.5c83.333 0 161.5 -16.333 234.5 -49s136.833 -81 191.5 -145l-176 -221c-65.333 86 -148.666 129 -249.999 129c-168 0 -257.333 -120.333 -268 -361c68.667 38.667 146.334 58 233.001 58
c152.667 0 275.834 -43.167 369.501 -129.5s140.5 -205.833 140.5 -358.5c0 -153.333 -47.667 -275 -143 -365s-220.333 -135 -375 -135c-180 0 -316.667 57.667 -410 173c-49.333 62.667 -86.166 137.5 -110.499 224.5s-36.5 195.5 -36.5 325.5zM417.996 432
c8.66699 -48.667 29 -88.332 61 -118.999c36.667 -32.667 84.667 -49 144 -49c64.667 0 116 19.833 154 59.5s57 93.5 57 161.5c0 71.333 -19.5 126.166 -58.5 164.499s-89.833 57.5 -152.5 57.5c-72 0 -127.667 -25 -167 -75s-52 -116.667 -38 -200z" />
    <glyph glyph-name="seven" unicode="7" horiz-adv-x="1122" 
d="M55 1247v285h1030v-209l-665 -1323h-354l628 1247h-639z" />
    <glyph glyph-name="eight" unicode="8" horiz-adv-x="1259" 
d="M90 459c0 154 60.6729 272.667 182.006 356c-94 64 -141 164.333 -141 301c0 59.333 11.333 115.333 34 168s54.667 99.167 96 139.5s93.666 72.166 156.999 95.499s133.666 35 210.999 35c153.333 0 274.5 -42.167 363.5 -126.5s133.5 -188.166 133.5 -311.499
c0 -134.667 -46.333 -235 -139 -301c121.333 -85.333 182 -204 182 -356c0 -66.667 -11.333 -128.667 -34 -186s-55.834 -108.333 -99.501 -153s-100.334 -79.667 -170.001 -105s-148.5 -38 -236.5 -38c-87.333 0 -165.833 12.667 -235.5 38s-126.334 60.333 -170.001 105
s-76.834 95.667 -99.501 153s-34 119.333 -34 186zM414.006 475c0 -64 19.167 -115.167 57.5 -153.5s90.833 -57.5 157.5 -57.5c68 0 121.167 19.167 159.5 57.5s57.5 89.5 57.5 153.5c0 63.333 -19.5 113.333 -58.5 150s-91.833 55 -158.5 55
c-66 0 -118.333 -18.5 -157 -55.5s-58 -86.833 -58 -149.5zM455.006 1098c0 -52 15.333 -93.333 46 -124s73.334 -46 128.001 -46c55.333 0 98.5 15.5 129.5 46.5s46.5 72.167 46.5 123.5s-16.167 92.5 -48.5 123.5s-74.833 46.5 -127.5 46.5s-94.834 -15.667 -126.501 -47
s-47.5 -72.333 -47.5 -123z" />
    <glyph glyph-name="nine" unicode="9" horiz-adv-x="1243" 
d="M86 1055c0 153.333 47.6699 274.833 143.003 364.5s220.333 134.5 375 134.5c180.667 0 317.334 -57.333 410.001 -172c49.333 -62.667 86.166 -137.5 110.499 -224.5s36.5 -195.833 36.5 -326.5c0 -267.333 -52 -476.5 -156 -627.5s-252 -226.5 -444 -226.5
c-82.667 0 -160.667 16.5 -234 49.5s-137.333 81.5 -192 145.5l176 221c65.333 -86 148.666 -129 249.999 -129c168 0 257.333 120.333 268 361c-68.667 -38.667 -146.334 -58 -233.001 -58c-152.667 0 -275.834 43.167 -369.501 129.5s-140.5 205.833 -140.5 358.5z
M414.003 1047c0 -71.333 19.501 -126.168 58.501 -164.501s89.833 -57.5 152.5 -57.5c72 0 127.5 25 166.5 75s51.5 116.667 37.5 200c-8.66699 48.667 -29 88.334 -61 119.001c-36.667 32.667 -84.334 49 -143.001 49c-64.667 0 -116 -19.833 -154 -59.5
s-57 -93.5 -57 -161.5z" />
    <glyph glyph-name="colon" unicode=":" horiz-adv-x="557" 
d="M94 162c0 51.333 17.667 94.833 53 130.5s78.333 53.5 129 53.5c51.333 0 95.333 -18 132 -54s55 -79.333 55 -130s-18.333 -94.167 -55 -130.5s-80.667 -54.5 -132 -54.5c-50.667 0 -93.667 18 -129 54s-53 79.667 -53 131zM94 895c0 50.667 17.833 94 53.5 130
s78.5 54 128.5 54c52 0 96.167 -17.833 132.5 -53.5s54.5 -79.167 54.5 -130.5c0 -50.667 -18.167 -93.667 -54.5 -129s-80.5 -53 -132.5 -53c-50 0 -92.833 17.667 -128.5 53s-53.5 78.333 -53.5 129z" />
    <glyph glyph-name="semicolon" unicode=";" horiz-adv-x="557" 
d="M94 162c0 50.667 16.832 93.999 50.499 129.999s76.167 54 127.5 54c53.333 0 95 -18.833 125 -56.5s45 -86.5 45 -146.5v-2v-2c-2 -206 -107 -363 -315 -471v129c72 45.333 117 106.333 135 183c-47.333 3.33301 -87.166 22.333 -119.499 57s-48.5 76.334 -48.5 125.001
zM93.999 894.999c0 50.667 17.833 94 53.5 130s78.5 54 128.5 54c52 0 96.167 -17.833 132.5 -53.5s54.5 -79.167 54.5 -130.5c0 -50.667 -18.167 -93.667 -54.5 -129s-80.5 -53 -132.5 -53c-50 0 -92.833 17.667 -128.5 53s-53.5 78.333 -53.5 129z" />
    <glyph glyph-name="less" unicode="&#x3c;" horiz-adv-x="1103" 
d="M59 756l981 549v-347l-385 -202l385 -203v-348z" />
    <glyph glyph-name="equal" unicode="=" horiz-adv-x="1122" 
d="M63 365v284h996v-284h-996zM63 866v287h996v-287h-996z" />
    <glyph glyph-name="greater" unicode="&#x3e;" horiz-adv-x="1103" 
d="M63 205v348l386 203l-386 202v347l981 -549z" />
    <glyph glyph-name="question" unicode="?" horiz-adv-x="1001" 
d="M16 1325c112.667 154 264.999 230.999 456.999 230.999c90.667 0 173.5 -18.333 248.5 -55s135 -89.167 180 -157.5s67.5 -146.166 67.5 -233.499c0 -36 -4.16699 -69.833 -12.5 -101.5s-17.833 -58.167 -28.5 -79.5s-26.667 -44.333 -48 -69
s-38.666 -43.167 -51.999 -55.5s-33.333 -29.833 -60 -52.5l-45.5 -37l-40.5 -33.5c-7.33301 -6.33301 -17 -15.833 -29 -28.5s-20 -24 -24 -34s-7.83301 -22.833 -11.5 -38.5s-5.5 -33.167 -5.5 -52.5c0 -12.667 1.33301 -32.334 4 -59.001h-323
c-1.33301 18 -2 41.333 -2 70c0.666992 32.667 4 62.167 10 88.5s13 48.333 21 66s21 36.667 39 57s33.333 36.166 46 47.499s32.667 28 60 50c9.33301 8 16.666 14 21.999 18c50.667 40.667 88.334 77.834 113.001 111.501s37 73.834 37 120.501
c0 51.333 -16.667 92.833 -50 124.5s-78 47.5 -134 47.5c-96 0 -176 -50.667 -240 -152zM269.999 161.999c0 51.333 17.833 94.833 53.5 130.5s78.834 53.5 129.501 53.5c51.333 0 95.166 -18 131.499 -54s54.5 -79.333 54.5 -130s-18.167 -94.167 -54.5 -130.5
s-80.166 -54.5 -131.499 -54.5c-50.667 0 -93.834 18 -129.501 54s-53.5 79.667 -53.5 131z" />
    <glyph glyph-name="at" unicode="@" horiz-adv-x="1658" 
d="M78 506c0 139.333 32.167 265.333 96.5 378s153.833 201 268.5 265s243.334 96 386.001 96c106 0 205.5 -18.667 298.5 -56s172.667 -88.666 239 -153.999s118.666 -143.666 156.999 -234.999s57.5 -189.333 57.5 -294c0 -142 -30 -248.833 -90 -320.5
s-142.667 -107.5 -248 -107.5c-94.667 0 -166.334 33.333 -215.001 100c-70.667 -70.667 -158 -106 -262 -106c-52 0 -100.833 9.16699 -146.5 27.5s-86.167 44.833 -121.5 79.5s-63.333 79.834 -84 135.501s-31 118.167 -31 187.5c0 72 10.167 136 30.5 192
s48.333 101.333 84 136s76.667 61 123 79s96.833 27 151.5 27c84.667 0 154.334 -27.333 209.001 -82v64h240v-601c0 -56 24.333 -84 73 -84c42.667 0 77.334 23 104.001 69s40 114 40 204c0 112 -26.667 214 -80 306s-126.5 164 -219.5 216s-196.167 78 -309.5 78
c-114 0 -217.167 -26 -309.5 -78s-164.833 -123.833 -217.5 -215.5s-79 -193.834 -79 -306.501c0 -89.333 16.333 -172 49 -248s76.334 -139.333 131.001 -190s117.667 -90.334 189 -119.001s145.666 -43 222.999 -43c143.333 0 265.666 30 366.999 90l49 -133
c-57.333 -33.333 -118 -57.333 -182 -72s-142 -22 -234 -22c-100 0 -195 18 -285 54s-168.333 85.833 -235 149.5s-119.5 141.667 -158.5 234s-58.5 192.166 -58.5 299.499zM631 502c0 -76 17.499 -134.001 52.499 -174.001s80.167 -60 135.5 -60
c38.667 0 70.167 6.33301 94.5 19s46.833 30.334 67.5 53.001v324c-24 24 -48 42.167 -72 54.5s-54.667 18.5 -92 18.5c-53.333 0 -97.666 -21.167 -132.999 -63.5s-53 -99.5 -53 -171.5z" />
    <glyph glyph-name="A" unicode="A" horiz-adv-x="1675" 
d="M37 0l633 1532h338l630 -1532h-350l-129 317h-641l-131 -317h-350zM629 598h418l-209 510z" />
    <glyph glyph-name="B" unicode="B" horiz-adv-x="1251" 
d="M154 0l-0.000976562 1532h454c94.667 0 178.167 -16.167 250.5 -48.5s130 -81.666 173 -147.999s64.5 -146.166 64.5 -239.499c0 -68.667 -14 -127.5 -42 -176.5s-65.333 -87.167 -112 -114.5c132.667 -60 199 -175.333 199 -346c0 -78.667 -12.667 -147.667 -38 -207
s-61.166 -107.166 -107.499 -143.499s-100.5 -63.5 -162.5 -81.5s-131.333 -27 -208 -27h-471zM474.999 284.997l131 0.000976562c64 0 114.167 15.833 150.5 47.5s54.5 77.167 54.5 136.5c0 61.333 -17.5 107.666 -52.5 138.999s-83.833 47 -146.5 47h-137v-370z
M474.999 921.998h125c52 0 92.667 13.5 122 40.5s44 67.167 44 120.5s-15.333 94 -46 122s-72.667 42 -126 42h-119v-325z" />
    <glyph glyph-name="C" unicode="C" horiz-adv-x="1507" 
d="M86 768c0 114.667 20.166 221.166 60.499 319.499s95 181.5 164 249.5s150.833 121.167 245.5 159.5s195.334 57.5 302.001 57.5c263.333 0 466 -102.333 608 -307l-233 -182c-94 135.333 -217.667 203 -371 203c-132.667 0 -240.167 -46.5 -322.5 -139.5
s-123.5 -213.167 -123.5 -360.5c0 -148 41.167 -268.667 123.5 -362s189.833 -140 322.5 -140c154.667 0 278.334 67.667 371.001 203l233 -182c-142 -204.667 -344.667 -307 -608 -307c-106.667 0 -207.334 19.333 -302.001 58s-176.5 92 -245.5 160
s-123.667 151.333 -164 250s-60.5 205.334 -60.5 320.001z" />
    <glyph glyph-name="D" unicode="D" horiz-adv-x="1630" 
d="M154 0v1532h600c110.667 0 213.667 -16.667 309 -50s178.666 -81.5 249.999 -144.5s127.333 -143.667 168 -242s61 -208.833 61 -331.5s-20.333 -232.834 -61 -330.501s-96.667 -177.834 -168 -240.501s-154.666 -110.5 -249.999 -143.5s-198.333 -49.5 -309 -49.5h-600z
M475 285.002h279c63.333 0 122.333 10.167 177 30.5s103.167 50 145.5 89s75.5 89.333 99.5 151s36 131.167 36 208.5c0 78.667 -12 149.167 -36 211.5s-57.167 113 -99.5 152s-90.833 68.667 -145.5 89s-113.667 30.5 -177 30.5h-279v-962z" />
    <glyph glyph-name="E" unicode="E" horiz-adv-x="1058" 
d="M154 0v1532h802v-285h-481v-323h422v-279h-422v-360h483v-285h-804z" />
    <glyph glyph-name="F" unicode="F" horiz-adv-x="1011" 
d="M154 0v1532h790v-285h-469v-321h395v-287h-395v-639h-321z" />
    <glyph glyph-name="G" unicode="G" horiz-adv-x="1587" 
d="M86 768c0 114.667 19.833 221.166 59.5 319.499s93.667 181.5 162 249.5s149.333 121.167 243 159.5s193.5 57.5 299.5 57.5c259.333 0 460 -102.333 602 -307l-231 -182c-94 135.333 -215.667 203 -365 203c-132.667 0 -239.167 -46.333 -319.5 -139
s-120.5 -213 -120.5 -361s41.167 -268.667 123.5 -362s189.833 -140 322.5 -140c114 0 209 35 285 105v151h-266v285h587v-559c-153.333 -178.667 -356.666 -268 -609.999 -268c-106.667 0 -207.334 19.333 -302.001 58s-176.5 92 -245.5 160s-123.667 151.333 -164 250
s-60.5 205.334 -60.5 320.001z" />
    <glyph glyph-name="H" unicode="H" horiz-adv-x="1605" 
d="M154 0v1532h321v-602h658v602h321v-1532h-321v643h-658v-643h-321z" />
    <glyph glyph-name="I" unicode="I" horiz-adv-x="626" 
d="M154 0v1532h321v-1532h-321z" />
    <glyph glyph-name="J" unicode="J" horiz-adv-x="1107" 
d="M4 395l308.999 61.998c24 -128.667 80.667 -193 170 -193c48.667 0 87.5 16.833 116.5 50.5s43.5 79.834 43.5 138.501v1079h324v-1040c0 -84 -13.167 -159.5 -39.5 -226.5s-62 -121.167 -107 -162.5s-96.167 -72.666 -153.5 -93.999s-118.666 -32 -183.999 -32
c-128 0 -233.167 34.667 -315.5 104s-136.833 174 -163.5 314z" />
    <glyph glyph-name="K" unicode="K" horiz-adv-x="1484" 
d="M154 0v1532h321v-651l531 651h401l-530 -664l593 -868h-383l-436 627l-176 -201v-426h-321z" />
    <glyph glyph-name="L" unicode="L" horiz-adv-x="1038" 
d="M154 0v1532h321v-1247h496v-285h-817z" />
    <glyph glyph-name="M" unicode="M" horiz-adv-x="2025" 
d="M154 0v1532h325l535 -1071l534 1071h326v-1532h-324v860l-422 -860h-231l-422 860v-860h-321z" />
    <glyph glyph-name="N" unicode="N" horiz-adv-x="1605" 
d="M154 0v1532h305l674 -963v963h321v-1532h-305l-674 969v-969h-321z" />
    <glyph glyph-name="O" unicode="O" 
d="M86 768c0 114.667 20.1689 221 60.502 319s95.833 181.167 166.5 249.5s155 121.666 253 159.999s203.667 57.5 317 57.5s219 -19.167 317 -57.5s182.167 -91.666 252.5 -159.999s125.666 -151.5 165.999 -249.5s60.5 -204.333 60.5 -319
c0 -153.333 -34.667 -290.166 -104 -410.499s-164.333 -213.333 -285 -279s-256.334 -98.5 -407.001 -98.5c-151.333 0 -287.5 32.833 -408.5 98.5s-216 158.667 -285 279s-103.5 257.166 -103.5 410.499zM414.002 768c0 -147.333 43.5 -267.833 130.5 -361.5
s199.167 -140.5 336.5 -140.5s249.5 46.833 336.5 140.5s130.5 214.167 130.5 361.5c0 146.667 -43.333 266.667 -130 360s-199 140 -337 140c-136.667 0 -248.667 -46.667 -336 -140s-131 -213.333 -131 -360z" />
    <glyph glyph-name="P" unicode="P" horiz-adv-x="1241" 
d="M154 0v1532h475c159.333 0 285.5 -41.5 378.5 -124.5s139.5 -202.5 139.5 -358.5s-46.5 -275.667 -139.5 -359s-219.167 -125 -378.5 -125h-154v-565h-321zM475 852l135 0.000976562c63.333 0 114 17.167 152 51.5s57 82.833 57 145.5c0 63.333 -19 112.166 -57 146.499
s-88.667 51.5 -152 51.5h-135v-395z" />
    <glyph glyph-name="Q" unicode="Q" 
d="M86 768c0 114.667 20.168 221.001 60.501 319.001s95.833 181.167 166.5 249.5s155 121.666 253 159.999s203.667 57.5 317 57.5s219 -19.167 317 -57.5s182.167 -91.666 252.5 -159.999s125.666 -151.5 165.999 -249.5s60.5 -204.333 60.5 -319
c0 -114 -19.167 -219 -57.5 -315s-92.833 -178.667 -163.5 -248l352 -451h-407l-217 277c-94.667 -34 -195.667 -51 -303 -51c-151.333 0 -287.5 32.833 -408.5 98.5s-216 158.667 -285 279s-103.5 257.166 -103.5 410.499zM414.001 768.001
c0 -147.333 43.5 -267.832 130.5 -361.499s199.167 -140.5 336.5 -140.5c34.667 0 72 4.33301 112 13l-174 221l254 198l187 -237c58.667 87.333 88 189.666 88 306.999c0 146.667 -43.333 266.667 -130 360s-199 140 -337 140c-136.667 0 -248.667 -46.667 -336 -140
s-131 -213.333 -131 -360z" />
    <glyph glyph-name="R" unicode="R" horiz-adv-x="1304" 
d="M154 0v1532h473c159.333 0 285.833 -41.5 379.5 -124.5s140.5 -202.5 140.5 -358.5c0 -188.667 -67.667 -323.334 -203 -404.001l307 -645h-356l-268 567h-152v-567h-321zM475 852.001l133 0.000976562c63.333 0 114 17.167 152 51.5s57 82.833 57 145.5
c0 63.333 -19 112.166 -57 146.499s-88.667 51.5 -152 51.5h-133v-395z" />
    <glyph glyph-name="S" unicode="S" horiz-adv-x="1181" 
d="M53 338l289.001 124.997c22.667 -64.667 54 -114.334 94 -149.001s87.333 -52 142 -52c50 0 91.167 15.333 123.5 46s48.5 74 48.5 130c0 48 -15.833 86.333 -47.5 115s-90.5 60 -176.5 94c-66 25.333 -122.333 51.333 -169 78s-87.667 57.834 -123 93.501
s-61.666 76.334 -78.999 122.001s-26 97.5 -26 155.5c0 139.333 40.833 250.5 122.5 333.5s200.5 124.5 356.5 124.5c232 0 384.333 -107.667 457 -323l-297 -98c-28.667 90 -82.667 135 -162 135c-46 0 -82 -14 -108 -42s-39 -65.333 -39 -112
c0 -49.333 17.667 -86.666 53 -111.999s102.666 -58 201.999 -98c3.33301 -1.33301 5.66602 -2.33301 6.99902 -3c61.333 -24 112.5 -48.167 153.5 -72.5s77.833 -53.5 110.5 -87.5s56.5 -74 71.5 -120s22.5 -99.333 22.5 -160c0 -148 -45.833 -266 -137.5 -354
s-214.5 -132 -368.5 -132c-131.333 0 -239.333 29.833 -324 89.5s-150 150.834 -196 273.501z" />
    <glyph glyph-name="T" unicode="T" horiz-adv-x="1409" 
d="M39 1247v285h1331v-285h-506v-1247h-321v1247h-504z" />
    <glyph glyph-name="U" unicode="U" horiz-adv-x="1599" 
d="M143 629l0.000976562 903h322v-897c0 -119.333 29 -211 87 -275s141 -96 249 -96c107.333 0 189.833 32 247.5 96s86.5 155.667 86.5 275v897h323v-903c0 -204 -58.833 -363.667 -176.5 -479s-277.834 -173 -480.501 -173c-204 0 -364.667 57.667 -482 173
s-176 275 -176 479z" />
    <glyph glyph-name="V" unicode="V" horiz-adv-x="1650" 
d="M37 1532h348l440 -1083l443 1083h346l-625 -1532h-327z" />
    <glyph glyph-name="W" unicode="W" horiz-adv-x="2430" 
d="M51 1532h342l369 -1083l325 1083h256l326 -1083l367 1083h344l-545 -1532h-328l-290 897l-293 -897h-328z" />
    <glyph glyph-name="X" unicode="X" horiz-adv-x="1492" 
d="M37 0l471 778l-445 754h373l312 -537l311 537h373l-447 -754l471 -778h-373l-335 563l-338 -563h-373z" />
    <glyph glyph-name="Y" unicode="Y" horiz-adv-x="1570" 
d="M25 1532h374l387 -645l388 645h374l-600 -965v-567h-321v567z" />
    <glyph glyph-name="Z" unicode="Z" horiz-adv-x="1323" 
d="M78 0v252l741 995h-731v285h1139v-252l-742 -995h768v-285h-1175z" />
    <glyph glyph-name="bracketleft" unicode="[" horiz-adv-x="632" 
d="M106 -158v1628h484v-253h-178v-1121h178v-254h-484z" />
    <glyph glyph-name="backslash" unicode="\" horiz-adv-x="868" 
d="M12 1532h320l522 -1669h-319z" />
    <glyph glyph-name="bracketright" unicode="]" horiz-adv-x="632" 
d="M43 96h178v1121h-178v253h483v-1628h-483v254z" />
    <glyph glyph-name="asciicircum" unicode="^" horiz-adv-x="1224" 
d="M53 762l559 807l557 -807h-346l-211 334l-213 -334h-346z" />
    <glyph glyph-name="underscore" unicode="_" horiz-adv-x="1411" 
d="M92 0h1227v-285h-1227v285z" />
    <glyph glyph-name="grave" unicode="`" horiz-adv-x="550" 
d="M18 1618h347l170 -391h-238z" />
    <glyph glyph-name="a" unicode="a" horiz-adv-x="1089" 
d="M92 293c0 101.333 35.834 181.334 107.501 240.001s165.5 88 281.5 88c54.667 0 110.667 -6.33301 168 -19v72c0 47.333 -12.667 84.666 -38 111.999s-60.333 41 -105 41c-43.333 0 -79.666 -9.16699 -108.999 -27.5s-57.333 -45.833 -84 -82.5l-190 172
c51.333 64 110.166 111.667 176.499 143s145.5 47 237.5 47c124 0 224.5 -34.333 301.5 -103s115.5 -164 115.5 -286v-690h-284l-4 86c-72.667 -72.667 -160.334 -109 -263.001 -109c-90.667 0 -165.167 28.833 -223.5 86.5s-87.5 134.167 -87.5 229.5zM401.001 317.001
c0 -34.667 10.332 -60.667 30.999 -78s49.334 -26 86.001 -26c45.333 0 89 19.667 131 59v140c-34 9.33301 -70 14 -108 14c-42.667 0 -76.667 -9.16699 -102 -27.5s-38 -45.5 -38 -81.5z" />
    <glyph glyph-name="b" unicode="b" horiz-adv-x="1296" 
d="M147 0l0.000976562 1591h306v-596c62.667 56 148.667 84 258 84c68 0 131.667 -11.333 191 -34s112.5 -56 159.5 -100s84.167 -101.667 111.5 -173s41 -152 41 -242c0 -88.667 -13.5 -168.834 -40.5 -240.501s-63.333 -129.834 -109 -174.501
s-97.334 -78.834 -155.001 -102.501s-118.5 -35.5 -182.5 -35.5c-70.667 0 -128 10 -172 30s-85 48.333 -123 85v-92h-285zM451.001 330.003c51.333 -66 120 -99.001 206 -99.001c70.667 0 129.667 25.833 177 77.5s71 125.5 71 221.5c0 94.667 -23.667 167.834 -71 219.501
s-106.333 77.5 -177 77.5c-86 0 -154.667 -32.667 -206 -98v-399z" />
    <glyph glyph-name="c" unicode="c" horiz-adv-x="1095" 
d="M84 530c0 110.667 24.833 208.168 74.5 292.501s115.5 148.166 197.5 191.499s173 65 273 65c182.667 0 324.667 -73.667 426 -221l-221 -153c-19.333 34.667 -46.5 63.667 -81.5 87s-74.833 35 -119.5 35c-72 0 -130.333 -27 -175 -81s-67 -126 -67 -216
c0 -91.333 22.333 -164 67 -218s103 -81 175 -81c45.333 0 85.333 11.5 120 34.5s61.667 51.833 81 86.5l221 -151c-102 -149.333 -244 -224 -426 -224c-100 0 -191 21.833 -273 65.5s-147.833 108 -197.5 193s-74.5 183.167 -74.5 294.5z" />
    <glyph glyph-name="d" unicode="d" horiz-adv-x="1296" 
d="M84 530c0 90 13.5 170.664 40.5 241.997s64 129 111 173s100.167 77.333 159.5 100s123 34 191 34c111.333 0 197.333 -28 258 -84v596h307v-1591h-285l-2 92c-38 -36.667 -79 -65 -123 -85s-101.333 -30 -172 -30c-64 0 -124.833 11.833 -182.5 35.5
s-109.167 57.834 -154.5 102.501s-81.333 102.834 -108 174.501s-40 151.834 -40 240.501zM391 529.997c0 -96 23.5 -169.834 70.5 -221.501s106.167 -77.5 177.5 -77.5c84 0 153 33 207 99v399c-53.333 65.333 -122.333 98 -207 98c-71.333 0 -130.5 -25.667 -177.5 -77
s-70.5 -124.666 -70.5 -219.999z" />
    <glyph glyph-name="e" unicode="e" horiz-adv-x="1132" 
d="M84 520c0 88.667 13.834 168.834 41.501 240.501s65.167 130.5 112.5 176.5s101.666 81.167 162.999 105.5s127 36.5 197 36.5c164 0 284 -54.333 360 -163c56.667 -81.333 85 -190 85 -326c0 -45.333 -3 -94 -9 -146h-643c2 -64.667 24.5 -117.334 67.5 -158.001
s97.833 -61 164.5 -61c52 0 94.833 9.33301 128.5 28s64.5 46.334 92.5 83.001l190 -170c-45.333 -60.667 -104 -107.334 -176 -140.001s-150.333 -49 -235 -49c-74 0 -143.333 11.667 -208 35s-121.667 57 -171 101s-88.333 101 -117 171s-43 148.667 -43 236zM391.001 643
l352 0.000976562v12c0.666992 56.667 -12.333 101.667 -39 135c-28 36 -68.667 54 -122 54s-97.5 -18.833 -132.5 -56.5s-54.5 -85.834 -58.5 -144.501z" />
    <glyph glyph-name="f" unicode="f" horiz-adv-x="790" 
d="M29 805l0.000976562 254h190v106c0 138 39.167 244.833 117.5 320.5s189.5 113.5 333.5 113.5c58.667 0 103 -6 133 -18l-35 -268c-30.667 10.667 -62 16 -94 16c-44.667 0 -80.834 -14.5 -108.501 -43.5s-41.5 -69.833 -41.5 -122.5v-104h240v-254h-240v-805h-305v805
h-190z" />
    <glyph glyph-name="g" unicode="g" horiz-adv-x="1290" 
d="M84 530c0 71.333 8.66602 137.001 25.999 197.001s41.333 111.333 72 154s66.5 79.167 107.5 109.5s85.167 52.666 132.5 66.999s96.333 21.5 147 21.5c71.333 0 129 -9.66699 173 -29s84.667 -47 122 -83l2 92h285v-1096c0 -150 -51 -271.833 -153 -365.5
s-232.667 -140.5 -392 -140.5c-102 0 -195 17.667 -279 53s-153.333 87.333 -208 156l207 195c38 -46 79 -81.5 123 -106.5s99 -37.5 165 -37.5c72.667 0 129.167 18.667 169.5 56s60.5 92 60.5 164v126c-59.333 -57.333 -145.333 -86 -258 -86c-54 0 -105.5 7 -154.5 21
s-94.667 36 -137 66s-79.166 66.333 -110.499 109s-55.833 94.5 -73.5 155.5s-26.5 128.167 -26.5 201.5zM390.999 530.001c0 -96 23.5 -169.834 70.5 -221.501s106.167 -77.5 177.5 -77.5c84 0 153 33 207 99v399c-53.333 65.333 -122.333 98 -207 98
c-71.333 0 -130.5 -25.667 -177.5 -77s-70.5 -124.666 -70.5 -219.999z" />
    <glyph glyph-name="h" unicode="h" horiz-adv-x="1247" 
d="M147 0v1591h306v-626c64 76 158 114 282 114c111.333 0 202 -36.167 272 -108.5s105 -170.5 105 -294.5v-676h-307v623c0 50.667 -14.333 92 -43 124s-67.667 48 -117 48c-71.333 0 -135.333 -32.333 -192 -97v-698h-306z" />
    <glyph glyph-name="i" unicode="i" horiz-adv-x="598" 
d="M123 1401c0 48.667 17.332 90.167 51.999 124.5s75.334 51.5 122.001 51.5c49.333 0 91.333 -17.167 126 -51.5s52 -75.833 52 -124.5s-17.333 -89.834 -52 -123.501s-76.667 -50.5 -126 -50.5c-48 0 -89 16.833 -123 50.5s-51 74.834 -51 123.501zM146.999 0v1059h306
v-1059h-306z" />
    <glyph glyph-name="j" unicode="j" horiz-adv-x="598" 
d="M-319 -358l235 174c28 -60 67.667 -90 119 -90c74.667 0 112 46.333 112 139v1194h306v-1188c0 -136.667 -37.333 -240.167 -112 -310.5s-172.667 -105.5 -294 -105.5c-163.333 0 -285.333 62.333 -366 187zM123 1401c0 48.667 17 90.167 51 124.5s75 51.5 123 51.5
c49.333 0 91.333 -17.167 126 -51.5s52 -75.833 52 -124.5s-17.333 -89.834 -52 -123.501s-76.667 -50.5 -126 -50.5c-48 0 -89 16.833 -123 50.5s-51 74.834 -51 123.501z" />
    <glyph glyph-name="k" unicode="k" horiz-adv-x="1202" 
d="M147 0v1591h306v-927l338 395h370l-383 -445l408 -614h-363l-262 387l-108 -115v-272h-306z" />
    <glyph glyph-name="l" unicode="l" horiz-adv-x="598" 
d="M147 0v1591h306v-1591h-306z" />
    <glyph glyph-name="m" unicode="m" horiz-adv-x="1886" 
d="M147 0v1059h293v-111c24 38 60 69.333 108 94s108.333 37 181 37c68.667 0 129.834 -13.5 183.501 -40.5s96.167 -65.833 127.5 -116.5c74 104.667 186.667 157 338 157c111.333 0 201.333 -36.167 270 -108.5s103 -170.5 103 -294.5v-676h-305v625
c0 50.667 -12.833 91.667 -38.5 123s-62.167 47 -109.5 47c-74 0 -139.333 -33 -196 -99v-10v-686h-305v625c0 50.667 -12.833 91.667 -38.5 123s-62.834 47 -111.501 47c-72 0 -136.667 -32.333 -194 -97v-698h-306z" />
    <glyph glyph-name="n" unicode="n" horiz-adv-x="1247" 
d="M147 0v1059h293v-111c24 38 61 69.333 111 94s111.333 37 184 37c111.333 0 202 -36.167 272 -108.5s105 -170.5 105 -294.5v-676h-307v623c0 50.667 -14.333 92 -43 124s-67.667 48 -117 48c-71.333 0 -135.333 -32.333 -192 -97v-698h-306z" />
    <glyph glyph-name="o" unicode="o" horiz-adv-x="1275" 
d="M84 530c0 107.333 25 203.166 75 287.499s117.167 149 201.5 194s177.166 67.5 278.499 67.5s194.166 -22.5 278.499 -67.5s151.5 -109.667 201.5 -194s75 -180.166 75 -287.499c0 -108 -25 -204.5 -75 -289.5s-117.167 -150.167 -201.5 -195.5
s-177.166 -68 -278.499 -68s-194.166 22.667 -278.499 68s-151.5 110.5 -201.5 195.5s-75 181.5 -75 289.5zM391 530c0 -89.333 23.333 -161.5 70 -216.5s106 -82.5 178 -82.5c71.333 0 130.166 27.667 176.499 83s69.5 127.333 69.5 216c0 88 -23.167 159.5 -69.5 214.5
s-105.166 82.5 -176.499 82.5c-72 0 -131.333 -27.5 -178 -82.5s-70 -126.5 -70 -214.5z" />
    <glyph glyph-name="p" unicode="p" horiz-adv-x="1296" 
d="M147 -522v1581h285v-92c37.333 36 78 63.667 122 83s101.667 29 173 29c64 0 124.833 -11.667 182.5 -35s109.334 -57.166 155.001 -101.499s82 -102.166 109 -173.499s40.5 -151 40.5 -239c0 -90.667 -13.667 -172 -41 -244s-64.333 -130 -111 -174
s-99.834 -77.5 -159.501 -100.5s-123.5 -34.5 -191.5 -34.5c-110.667 0 -196.667 28.667 -258 86v-585h-306zM451 329.998c51.333 -66 120 -99.001 206 -99.001c70.667 0 129.667 25.833 177 77.5s71 125.5 71 221.5c0 94.667 -23.667 167.834 -71 219.501
s-106.333 77.5 -177 77.5c-86 0 -154.667 -32.667 -206 -98v-399z" />
    <glyph glyph-name="q" unicode="q" horiz-adv-x="1296" 
d="M84 530c0 71.333 8.66602 137.001 25.999 197.001s41.333 111.333 72 154s66.5 79.167 107.5 109.5s85.167 52.666 132.5 66.999s96.333 21.5 147 21.5c71.333 0 129 -9.66699 173 -29s84.667 -47 122 -83l2 92h285v-1581h-307v585
c-59.333 -57.333 -145.333 -86 -258 -86c-54 0 -105.5 7 -154.5 21s-94.667 36 -137 66s-79.166 66.333 -110.499 109s-55.833 94.5 -73.5 155.5s-26.5 128.167 -26.5 201.5zM390.999 530.001c0 -96 23.5 -169.834 70.5 -221.501s106.167 -77.5 177.5 -77.5
c84 0 153 33 207 99v399c-53.333 65.333 -122.333 98 -207 98c-71.333 0 -130.5 -25.667 -177.5 -77s-70.5 -124.666 -70.5 -219.999z" />
    <glyph glyph-name="r" unicode="r" horiz-adv-x="794" 
d="M147 0l-0.000976562 1059h306v-129c76 90 179.667 135 311 135l-19 -307c-63.333 0 -116.666 -8.16699 -159.999 -24.5s-87.333 -43.166 -132 -80.499v-653h-306z" />
    <glyph glyph-name="s" unicode="s" horiz-adv-x="935" 
d="M55 231l246.001 113c9.33301 -40 26.5 -72.167 51.5 -96.5s56.167 -36.5 93.5 -36.5c32.667 0 58 7.66699 76 23s27 36.333 27 63c0 27.333 -10.167 49.5 -30.5 66.5s-56.5 35.167 -108.5 54.5c-102.667 36.667 -182.334 81 -239.001 133s-85 118.333 -85 199
c0 95.333 36.167 174 108.5 236s164.5 93 276.5 93c91.333 0 170 -20.833 236 -62.5s109.667 -100.5 131 -176.5l-242 -95c-14 68.667 -50.333 103 -109 103c-30.667 0 -54.667 -7.83301 -72 -23.5s-26 -37.167 -26 -64.5c0 -26 10.833 -46.333 32.5 -61
s63.5 -34.667 125.5 -60c2.66699 -0.666992 4.66699 -1.33398 6 -2.00098c40.667 -16 74.5 -30.333 101.5 -43s54.167 -28.167 81.5 -46.5s48.833 -37.666 64.5 -57.999s28.5 -45 38.5 -74s15 -61.167 15 -96.5c0 -68 -18.333 -128.333 -55 -181
s-85.167 -92.667 -145.5 -120s-126.5 -41 -198.5 -41c-198.667 0 -332 84.667 -400 254z" />
    <glyph glyph-name="t" unicode="t" horiz-adv-x="851" 
d="M37 805v254.001h207l2 330h305l-2 -330h237v-254h-239l-2 -420c0 -38 9.5 -67.667 28.5 -89s44.167 -32 75.5 -32c34.667 0 66 11 94 33l91 -246c-54 -38 -128.667 -57 -224 -57c-110 0 -199.333 29.667 -268 89s-102.667 147.666 -102 264.999l2 457h-205z" />
    <glyph glyph-name="u" unicode="u" horiz-adv-x="1222" 
d="M137 444l-0.000976562 615h305v-621c0 -54.667 15.5 -98.334 46.5 -131.001s72.167 -49 123.5 -49c50.667 0 91.334 16.333 122.001 49s46 76.334 46 131.001v621h307v-615c0 -136 -43.5 -247.833 -130.5 -335.5s-201.833 -131.5 -344.5 -131.5
s-257.5 43.833 -344.5 131.5s-130.5 199.5 -130.5 335.5z" />
    <glyph glyph-name="v" unicode="v" horiz-adv-x="1153" 
d="M18 1059h326l234 -688l231 688h328l-387 -1059h-344z" />
    <glyph glyph-name="w" unicode="w" horiz-adv-x="1718" 
d="M18 1059h324l186 -653l217 653h228l217 -653l186 653h326l-350 -1059h-295l-199 561l-196 -561h-295z" />
    <glyph glyph-name="x" unicode="x" horiz-adv-x="1136" 
d="M43 0l309 532l-303 527h340l178 -326l183 326h337l-303 -524l312 -535h-342l-187 330l-182 -330h-342z" />
    <glyph glyph-name="y" unicode="y" horiz-adv-x="1153" 
d="M18 1059h326l234 -672l231 672h328l-613 -1581h-323l217 549z" />
    <glyph glyph-name="z" unicode="z" horiz-adv-x="952" 
d="M68 0v195l415 618h-407v246h798v-195l-425 -618h444v-246h-825z" />
    <glyph glyph-name="braceleft" unicode="{" horiz-adv-x="624" 
d="M33 530l0.00292969 250.001h16c27.333 0 49.166 2.66699 65.499 8s28.666 12.166 36.999 20.499s12.833 21.833 13.5 40.5s-0.5 37.334 -3.5 56.001s-8.5 44.667 -16.5 78c-16.667 83.333 -18.5 155.5 -5.5 216.5s39.833 111.5 80.5 151.5s90.334 69.833 149.001 89.5
s125.334 29.5 200.001 29.5h13v-253h-13c-60.667 0 -100.334 -19.167 -119.001 -57.5s-20.667 -106.833 -6 -205.5c6.66699 -52.667 9.66699 -100 9 -142s-13.167 -77 -37.5 -105s-61.166 -44.667 -110.499 -50c49.333 -6 86.166 -23.333 110.499 -52
s36.833 -64.167 37.5 -106.5s-2.33301 -89.833 -9 -142.5c-14.667 -98 -12.667 -165.833 6 -203.5s58.334 -56.5 119.001 -56.5h13v-254h-13c-74.667 0 -141.334 9.83301 -200.001 29.5s-108.334 49.667 -149.001 90s-67.5 91.166 -80.5 152.499s-11.167 133.333 5.5 216
c8 33.333 13.5 59.333 16.5 78s4.16699 37 3.5 55s-5.33398 31.167 -14.001 39.5s-21 15 -37 20s-37.667 7.5 -65 7.5h-16z" />
    <glyph glyph-name="bar" unicode="|" horiz-adv-x="593" 
d="M143 -137v1669h306v-1669h-306z" />
    <glyph glyph-name="braceright" unicode="}" horiz-adv-x="624" 
d="M43 96l11.999 -0.000976562c60.667 0 100.334 18.833 119.001 56.5s20.667 105.5 6 203.5c-6.66699 52.667 -9.66699 100.167 -9 142.5s13.167 77.833 37.5 106.5s61.166 46 110.499 52c-49.333 5.33301 -86.166 22 -110.499 50s-36.833 63 -37.5 105
s2.33301 89.333 9 142c14.667 98.667 12.667 167.167 -6 205.5s-58.334 57.5 -119.001 57.5h-12v253h12c74.667 0 141.334 -9.83301 200.001 -29.5s108.334 -49.5 149.001 -89.5s67.667 -90.5 81 -151.5s12 -133.167 -4 -216.5c-6.66699 -27.333 -11.667 -49.5 -15 -66.5
s-5.66602 -34 -6.99902 -51s0 -30.167 4 -39.5s10.5 -17.833 19.5 -25.5s21 -13 36 -16s33.833 -4.5 56.5 -4.5h17v-250h-17c-64 0 -101.167 -15 -111.5 -45s-4.5 -81.667 17.5 -155c16 -82.667 17.333 -154.667 4 -216s-40.333 -112.166 -81 -152.499
s-90.334 -70.333 -149.001 -90s-125.334 -29.5 -200.001 -29.5h-12v254z" />
    <glyph glyph-name="asciitilde" unicode="~" horiz-adv-x="1114" 
d="M18 770c48.667 62.667 99.334 110.168 152.001 142.501s112 48.5 178 48.5c35.333 0 70.833 -6.16699 106.5 -18.5s65.667 -25.666 90 -39.999s53.5 -27.666 87.5 -39.999s67.667 -18.5 101 -18.5c48.667 0 90.167 8.16699 124.5 24.5s67.833 44.166 100.5 83.499
l138 -202c-96 -127.333 -206.667 -191 -332 -191c-37.333 0 -74.333 6.16699 -111 18.5s-67.334 25.666 -92.001 39.999s-53.334 27.666 -86.001 39.999s-64.667 18.5 -96 18.5c-47.333 0 -88.166 -8.33301 -122.499 -25s-67.833 -44.667 -100.5 -84z" />
    <glyph glyph-name="uni00A0" unicode="&#xa0;" horiz-adv-x="456" 
 />
    <glyph glyph-name="exclamdown" unicode="&#xa1;" horiz-adv-x="667" 
d="M150 864c0 50 18 93 54 129s80 54 132 54c50 0 92.833 -18 128.5 -54s53.5 -79 53.5 -129c0 -52 -17.833 -96 -53.5 -132s-78.5 -54 -128.5 -54c-52 0 -96 18 -132 54s-54 80 -54 132zM156 -508l16 1063h322l18 -1063h-356z" />
    <glyph glyph-name="cent" unicode="&#xa2;" horiz-adv-x="1091" 
d="M84 530c0 140.667 38.168 258.169 114.501 352.502s175.5 155.166 297.5 182.499v219h254v-215c125.333 -26 227 -96.333 305 -211l-221 -153c-19.333 35.333 -46.166 64.5 -80.499 87.5s-74.5 34.5 -120.5 34.5c-72 0 -130 -26.833 -174 -80.5
s-66 -125.834 -66 -216.501c0 -91.333 22 -164 66 -218s102 -81 174 -81c46 0 86.167 11.5 120.5 34.5s61.166 51.833 80.499 86.5l221 -151c-78.667 -116 -180.334 -187 -305.001 -213v-230h-254v234c-122 27.333 -221.167 88.5 -297.5 183.5s-114.5 213.167 -114.5 354.5z
" />
    <glyph glyph-name="sterling" unicode="&#xa3;" horiz-adv-x="1142" 
d="M55 625l-0.00195312 251.997h170l-12 118c-18 173.333 15.167 309.833 99.5 409.5s205.5 149.5 363.5 149.5c192 0 337.333 -75.667 436 -227l-201 -192c-25.333 40.667 -54.833 73 -88.5 97s-76.5 36 -128.5 36c-65.333 0 -113.333 -22.5 -144 -67.5
s-42 -106.5 -34 -184.5l14 -139h304v-252h-277c5.33301 -88.667 -1 -157.667 -19 -207s-47.667 -93.666 -89 -132.999h653v-285h-1045v264c18 4.66699 33.5 9.33398 46.5 14.001s26.833 10.667 41.5 18s26.834 15.333 36.501 24s19.667 19.667 30 33s17.833 28.333 22.5 45
s9.5 36.334 14.5 59.001s6.83301 47.667 5.5 75s-2.66602 58.333 -3.99902 93h-195z" />
    <glyph glyph-name="currency" unicode="&#xa4;" horiz-adv-x="1232" 
d="M37 102l228.999 228c-24.667 54 -37 116 -37 186c0 66.667 13 128.667 39 186l-231 232l192 190l230 -229c48.667 20.667 101 31 157 31c60.667 0 113.334 -11 158.001 -33l232 231l190 -190l-229 -232c24.667 -58.667 37 -120.667 37 -186c0 -70 -12.333 -132 -37 -186
l229 -228l-192 -192l-230 229c-46.667 -20 -99.334 -30 -158.001 -30c-57.333 0 -109.666 10 -156.999 30l-230 -229zM476.999 516c0 -60 12.167 -107 36.5 -141s58.5 -51 102.5 -51s78.333 17 103 51s37 81 37 141c0 60.667 -12.167 108 -36.5 142s-58.833 51 -103.5 51
c-43.333 0 -77.333 -17.167 -102 -51.5s-37 -81.5 -37 -141.5z" />
    <glyph glyph-name="yen" unicode="&#xa5;" horiz-adv-x="1570" 
d="M25 1532h374l387 -645l388 645h374l-499 -805h172v-190h-273v-134h273v-188h-273v-215h-321v215h-275v188h275v134h-275v190h174z" />
    <glyph glyph-name="brokenbar" unicode="&#xa6;" horiz-adv-x="593" 
d="M143 -137v653h306v-653h-306zM143 879v653h306v-653h-306z" />
    <glyph glyph-name="section" unicode="&#xa7;" horiz-adv-x="1085" 
d="M61 729c0 104.667 48.002 188.662 144.002 251.995c-72.667 50 -109 125.667 -109 227c0 104 41.167 187.667 123.5 251s189.5 95 321.5 95c101.333 0 187.166 -21 257.499 -63s115.5 -101.333 135.5 -178l-240 -103c-8.66699 34.667 -25.667 62.167 -51 82.5
s-58.666 30.5 -99.999 30.5s-75.333 -9.16699 -102 -27.5s-40 -43.833 -40 -76.5c0 -32 13.667 -57 41 -75s75.333 -33.333 144 -46c74.667 -13.333 136.667 -27.5 186 -42.5s94 -34.5 134 -58.5s69.333 -53.667 88 -89s28 -78 28 -128c0 -56 -11.667 -103.667 -35 -143
s-57.333 -74.333 -102 -105c40.667 -24.667 71 -55.5 91 -92.5s30 -84.5 30 -142.5c0 -105.333 -44.833 -190.666 -134.5 -255.999s-202.834 -98 -339.501 -98c-232 0 -381.333 84.667 -448 254l246 118c13.333 -41.333 37.833 -75.166 73.5 -101.499
s79.5 -39.5 131.5 -39.5c50 0 90 9 120 27s45 46 45 84c0 32.667 -14.167 57.834 -42.5 75.501s-81.5 34.834 -159.5 51.501c-60 12.667 -109.833 24.5 -149.5 35.5s-79.334 25 -119.001 42s-70.667 35.833 -93 56.5s-40.5 46.334 -54.5 77.001s-21 66 -21 106z
M342.002 763.995c0 -38.667 20.666 -68.332 61.999 -88.999s111.333 -40.334 210 -59.001l35 -6c31.333 18 54.5 37 69.5 57s22.5 45.333 22.5 76c0 40.667 -19.667 70.667 -59 90s-109.666 39.333 -210.999 60l-37 8c-31.333 -20 -54.5 -40 -69.5 -60
s-22.5 -45.667 -22.5 -77z" />
    <glyph glyph-name="dieresis" unicode="&#xa8;" horiz-adv-x="768" 
d="M18 1391c0 44.667 16 83 48 115s70.667 48 116 48c46.667 0 86 -15.833 118 -47.5s48 -70.167 48 -115.5c0 -46 -16 -84.833 -48 -116.5s-71.333 -47.5 -118 -47.5c-45.333 0 -84 15.833 -116 47.5s-48 70.5 -48 116.5zM418 1391c0 45.333 16.167 83.833 48.5 115.5
s71.5 47.5 117.5 47.5s84.833 -15.833 116.5 -47.5s47.5 -70.167 47.5 -115.5c0 -46 -15.833 -84.833 -47.5 -116.5s-70.5 -47.5 -116.5 -47.5s-85.167 15.833 -117.5 47.5s-48.5 70.5 -48.5 116.5z" />
    <glyph glyph-name="copyright" unicode="&#xa9;" horiz-adv-x="1220" 
d="M53 1034c0 150 52.5 274.999 157.5 374.999s238.167 150 399.5 150c158.667 0 290.834 -50.167 396.501 -150.5s158.5 -225.166 158.5 -374.499s-52.833 -274 -158.5 -374s-237.834 -150 -396.501 -150c-161.333 0 -294.5 49.833 -399.5 149.5s-157.5 224.5 -157.5 374.5
zM174 1034c0 -123.333 40.5 -224.166 121.5 -302.499s185.833 -117.5 314.5 -117.5c128 0 232.833 39.167 314.5 117.5s122.5 179.166 122.5 302.499s-40.833 224.166 -122.5 302.499s-186.5 117.5 -314.5 117.5c-128.667 0 -233.5 -39.167 -314.5 -117.5
s-121.5 -179.166 -121.5 -302.499zM301 1038c0 94 30.834 170.833 92.501 230.5s138.834 89.5 231.501 89.5c103.333 0 184.333 -41 243 -123l-104 -100c-34 50 -78.333 75 -133 75c-46.667 0 -85 -15.833 -115 -47.5s-45 -73.167 -45 -124.5
c0 -52 15.167 -94.333 45.5 -127s68.5 -49 114.5 -49c53.333 0 97.666 26 132.999 78l104 -100c-60 -83.333 -141 -125 -243 -125c-92.667 0 -169.834 30.333 -231.501 91s-92.5 138 -92.5 232z" />
    <glyph glyph-name="ordfeminine" unicode="&#xaa;" horiz-adv-x="876" 
d="M74 918c0 80 28.499 144 85.499 192s131.5 72 223.5 72c36.667 0 80.334 -4.33301 131.001 -13v50c0 37.333 -9.33301 66.333 -28 87s-45.334 31 -80.001 31c-34 0 -62.333 -7.33301 -85 -22s-43.667 -36 -63 -64l-162 144c42 52 89.833 90.833 143.5 116.5
s117.834 38.5 192.501 38.5c100.667 0 182.167 -27.833 244.5 -83.5s93.5 -132.834 93.5 -231.501v-551h-240l-2 70c-26 -27.333 -55 -48.833 -87 -64.5s-72.667 -23.5 -122 -23.5c-71.333 0 -130 22.833 -176 68.5s-69 106.834 -69 183.501zM331.999 938
c0 -25.333 8 -44.332 24 -56.999s37.333 -19 64 -19c36.667 0 68 13 94 39v113c-20.667 5.33301 -46.667 8 -78 8s-56.5 -7.33301 -75.5 -22s-28.5 -35.334 -28.5 -62.001z" />
    <glyph glyph-name="guillemotleft" unicode="&#xab;" horiz-adv-x="1196" 
d="M31 528l331 484l244 -150l-235 -334l235 -333l-244 -150zM586 528l332 484l243 -150l-235 -334l235 -333l-243 -150z" />
    <glyph glyph-name="logicalnot" unicode="&#xac;" horiz-adv-x="1239" 
d="M66 688v238h1093v-627h-237v389h-856z" />
    <glyph glyph-name="uni00AD" unicode="&#xad;" horiz-adv-x="833" 
d="M92 393v287h649v-287h-649z" />
    <glyph glyph-name="registered" unicode="&#xae;" horiz-adv-x="1220" 
d="M53 1034c0 150 52.5 274.999 157.5 374.999s238.167 150 399.5 150c158.667 0 290.834 -50.167 396.501 -150.5s158.5 -225.166 158.5 -374.499s-52.833 -274 -158.5 -374s-237.834 -150 -396.501 -150c-161.333 0 -294.5 49.833 -399.5 149.5s-157.5 224.5 -157.5 374.5
zM174 1034c0 -123.333 40.5 -224.166 121.5 -302.499s185.833 -117.5 314.5 -117.5c128 0 232.833 39.167 314.5 117.5s122.5 179.166 122.5 302.499s-40.833 224.166 -122.5 302.499s-186.5 117.5 -314.5 117.5c-128.667 0 -233.5 -39.167 -314.5 -117.5
s-121.5 -179.166 -121.5 -302.499zM369 722.999v627h262c70 0 126 -17.5 168 -52.5s63 -86.5 63 -154.5c0 -76 -28.667 -132 -86 -168l107 -252h-181l-88 215h-77v-215h-168zM535 1075h83c48 0 72 22.667 72 68c0 47.333 -24 71 -72 71h-83v-139z" />
    <glyph glyph-name="macron" unicode="&#xaf;" horiz-adv-x="651" 
d="M16 1266v235h619v-235h-619z" />
    <glyph glyph-name="degree" unicode="&#xb0;" horiz-adv-x="774" 
d="M53 1221c0 100.667 31.333 180.999 94 240.999s142 90 238 90c97.333 0 177.333 -30 240 -90s94 -140.333 94 -241c0 -99.333 -31.667 -179.166 -95 -239.499s-143 -90.5 -239 -90.5c-96.667 0 -176.167 30 -238.5 90s-93.5 140 -93.5 240zM262 1221
c0 -44 11.833 -79.333 35.5 -106s53.5 -40 89.5 -40s65.833 13.333 89.5 40s35.5 62 35.5 106s-11.833 79.167 -35.5 105.5s-53.5 39.5 -89.5 39.5s-65.833 -13.167 -89.5 -39.5s-35.5 -61.5 -35.5 -105.5z" />
    <glyph glyph-name="plusminus" unicode="&#xb1;" horiz-adv-x="1122" 
d="M63 98v287h996v-287h-996zM63 850v274h351v359h295v-359h350v-274h-350v-361h-295v361h-351z" />
    <glyph glyph-name="acute" unicode="&#xb4;" horiz-adv-x="550" 
d="M18 1227l170 391h344l-276 -391h-238z" />
    <glyph glyph-name="paragraph" unicode="&#xb6;" horiz-adv-x="1460" 
d="M70 1141c0 129.333 41.3311 226.834 123.998 292.501s193.334 98.5 332.001 98.5h899v-225h-143v-1444h-235v1444h-193v-1444h-236v891h-92c-141.333 0 -252.666 33.167 -333.999 99.5s-122 162.166 -122 287.499z" />
    <glyph glyph-name="periodcentered" unicode="&#xb7;" horiz-adv-x="557" 
d="M94 666c0 50.667 17.833 94 53.5 130s78.5 54 128.5 54c52 0 96.167 -17.833 132.5 -53.5s54.5 -79.167 54.5 -130.5s-18.167 -95 -54.5 -131s-80.5 -54 -132.5 -54c-50 0 -92.833 18.167 -128.5 54.5s-53.5 79.833 -53.5 130.5z" />
    <glyph glyph-name="cedilla" unicode="&#xb8;" horiz-adv-x="561" 
d="M27 -475l45 148.999c31.333 -17.333 68 -26 110 -26c28.667 0 53.667 5.66699 75 17s32 29.333 32 54c0 26 -11 45.5 -33 58.5s-49.333 19.5 -82 19.5c-26.667 0 -50 -3.33301 -70 -10l76 238h129l-26 -115c64.667 -3.33301 120 -23.666 166 -60.999s69 -89.333 69 -156
c0 -45.333 -14.167 -84.333 -42.5 -117s-63.333 -56.167 -105 -70.5s-87.5 -21.5 -137.5 -21.5c-88 0 -156.667 13.667 -206 41z" />
    <glyph glyph-name="ordmasculine" unicode="&#xba;" horiz-adv-x="1024" 
d="M66 1106c0 64.667 11.835 125 35.502 181s55.667 103 96 141s87.666 67.833 141.999 89.5s111.833 32.5 172.5 32.5s118.167 -10.833 172.5 -32.5s101.666 -51.5 141.999 -89.5s72.333 -85 96 -141s35.5 -116.333 35.5 -181c0 -129.333 -43.167 -235 -129.5 -317
s-191.833 -123 -316.5 -123s-230.167 41 -316.5 123s-129.5 187.667 -129.5 317zM324.002 1106c0 -68 17.333 -123.167 52 -165.5s80 -63.5 136 -63.5c55.333 0 100.166 21 134.499 63s51.5 97.333 51.5 166c0 69.333 -17.167 125.166 -51.5 167.499
s-79.166 63.5 -134.499 63.5c-56 0 -101.333 -21.167 -136 -63.5s-52 -98.166 -52 -167.499z" />
    <glyph glyph-name="guillemotright" unicode="&#xbb;" horiz-adv-x="1196" 
d="M33 195l237 333l-237 334l243 150l334 -484l-334 -483zM590 195l235 333l-235 334l244 150l331 -484l-331 -483z" />
    <glyph glyph-name="onequarter" unicode="&#xbc;" horiz-adv-x="1703" 
d="M37 1204v219l205 109h180v-873h-225v621zM82 0l1034 1532h311l-1034 -1532h-311zM987 160v170l141 542h232l-148 -512h115v197h225v-197h119v-200h-119v-160h-225v160h-340z" />
    <glyph glyph-name="onehalf" unicode="&#xbd;" horiz-adv-x="1650" 
d="M37 1204v219l205 109h180v-873h-225v621zM82 0l1034 1532h311l-1034 -1532h-311zM1016 760c30.667 38 69.332 68.665 115.999 91.998s99.334 35 158.001 35c96 0 171.167 -24 225.5 -72s81.5 -117.667 81.5 -209c0 -37.333 -6.33301 -74.333 -19 -111
s-27.167 -68 -43.5 -94s-38.333 -53.167 -66 -81.5s-50.667 -50.166 -69 -65.499l-68.5 -55h268v-199h-569v184c48.667 36.667 89.667 68.834 123 96.501s68.333 59.834 105 96.501s64.5 72.167 83.5 106.5s28.5 67.166 28.5 98.499c0 32.667 -8.16699 58.167 -24.5 76.5
s-38.833 27.5 -67.5 27.5c-50 0 -91.667 -24 -125 -72z" />
    <glyph glyph-name="threequarters" unicode="&#xbe;" horiz-adv-x="1804" 
d="M12 772l138 143.003c23.333 -47.333 60.666 -71 111.999 -71c26 0 48.167 7.83301 66.5 23.5s27.5 37.167 27.5 64.5s-10.167 48.166 -30.5 62.499s-48.833 21.5 -85.5 21.5h-56v180h62c28.667 0 51.167 6.33301 67.5 19s24.5 31 24.5 55c0 22 -7.16699 39.667 -21.5 53
s-32.5 20 -54.5 20c-47.333 0 -82.666 -23.667 -105.999 -71l-138 143c27.333 39.333 62.333 70.666 105 93.999s90.334 35 143.001 35c91.333 0 163.666 -23.667 216.999 -71s80 -113 80 -197c0 -70.667 -26.667 -127.334 -80 -170.001c66 -45.333 99 -106 99 -182
c0 -87.333 -28.5 -156 -85.5 -206s-133.167 -75 -228.5 -75c-55.333 0 -104.833 11.5 -148.5 34.5s-79.5 54.5 -107.5 94.5zM184 0.00292969l1035 1532h311l-1034 -1532h-312zM1090 160.003v170l141 542h231l-147 -512h115v197h225v-197h119v-200h-119v-160h-225v160h-340z
" />
    <glyph glyph-name="questiondown" unicode="&#xbf;" horiz-adv-x="1001" 
d="M33 -53c0 36 4.16602 70.1768 12.499 102.51s17.833 59.166 28.5 80.499s26.5 44.333 47.5 69s38.333 43.334 52 56.001s33.5 30 59.5 52c10.667 9.33301 25.834 21.666 45.501 36.999s33.167 26.333 40.5 33s16.833 16.167 28.5 28.5s19.667 23.666 24 33.999
s8.33301 23.166 12 38.499s5.5 32.666 5.5 51.999c0 14.667 -1.33301 34 -4 58h324c1.33301 -16.667 2 -39.334 2 -68.001c-0.666992 -32.667 -4.16699 -62.334 -10.5 -89.001s-13.166 -48.5 -20.499 -65.5s-20.5 -36 -39.5 -57s-34.167 -36.5 -45.5 -46.5
s-31.333 -26.667 -60 -50c-10 -8 -17.667 -14.333 -23 -19c-50.667 -40.667 -88.334 -77.834 -113.001 -111.501s-37 -73.834 -37 -120.501c0 -51.333 16.833 -92.833 50.5 -124.5s78.5 -47.5 134.5 -47.5c97.333 0 177 50.667 239 152l199 -207
c-112.667 -154.667 -265 -232 -457 -232c-90.667 0 -173.5 18.167 -248.5 54.5s-134.833 88.666 -179.5 156.999s-67 146.166 -67 233.499zM364.999 897.01c0 50.667 17.833 93.667 53.5 129s79.167 53 130.5 53s94.5 -17.5 129.5 -52.5s52.5 -78.167 52.5 -129.5
s-17.667 -94.833 -53 -130.5s-78.333 -53.5 -129 -53.5c-51.333 0 -94.833 17.833 -130.5 53.5s-53.5 79.167 -53.5 130.5z" />
    <glyph glyph-name="Agrave" unicode="&#xc0;" horiz-adv-x="1675" 
d="M37 0l633 1532h338l630 -1532h-350l-131 317h-641l-129 -317h-350zM289 1944h416l260 -316h-277zM629 598h418l-209 510z" />
    <glyph glyph-name="Aacute" unicode="&#xc1;" horiz-adv-x="1675" 
d="M37 0l633 1532h338l630 -1532h-350l-131 317h-641l-129 -317h-350zM629 598h418l-209 510zM698 1628l260 316h416l-399 -316h-277z" />
    <glyph glyph-name="Acircumflex" unicode="&#xc2;" horiz-adv-x="1675" 
d="M37 0l633 1532h338l630 -1532h-350l-131 317h-641l-129 -317h-350zM453 1628l237 330h295l238 -330h-256l-129 154l-129 -154h-256zM629 598h418l-209 510z" />
    <glyph glyph-name="Atilde" unicode="&#xc3;" horiz-adv-x="1675" 
d="M37 0l633 1532h338l630 -1532h-350l-131 317h-641l-129 -317h-350zM463 1645c-8 87.333 8.49902 162.998 49.499 226.998s98.167 96 171.5 96c28.667 0 56.667 -5.66699 84 -17s49.666 -23.666 66.999 -36.999s36.833 -25.666 58.5 -36.999s41.834 -17 60.501 -17
c56 0 84 31.333 84 94h174c7.33301 -88 -9.66699 -164 -51 -228s-98.666 -96 -171.999 -96c-29.333 0 -57.833 5.66699 -85.5 17s-50.167 23.833 -67.5 37.5s-36.833 26.167 -58.5 37.5s-41.834 17 -60.501 17c-27.333 0 -48.166 -8.5 -62.499 -25.5
s-21.5 -39.833 -21.5 -68.5h-170zM628.999 597.998h418l-209 510z" />
    <glyph glyph-name="Adieresis" unicode="&#xc4;" horiz-adv-x="1675" 
d="M37 0l633 1532h338l630 -1532h-350l-131 317h-641l-129 -317h-350zM473 1800c0 45.333 16.167 84 48.5 116s70.833 48 115.5 48c46.667 0 86 -16 118 -48s48 -70.667 48 -116c0 -46.667 -15.833 -85.667 -47.5 -117s-71.167 -47 -118.5 -47c-45.333 0 -84 15.667 -116 47
s-48 70.333 -48 117zM629 598h418l-209 510zM872 1800c0 45.333 16.167 84 48.5 116s71.5 48 117.5 48s84.833 -16 116.5 -48s47.5 -70.667 47.5 -116c0 -46.667 -15.833 -85.667 -47.5 -117s-70.5 -47 -116.5 -47c-46.667 0 -86 15.667 -118 47s-48 70.333 -48 117z" />
    <glyph glyph-name="Aring" unicode="&#xc5;" horiz-adv-x="1675" 
d="M37 0l633 1532h338l630 -1532h-350l-131 317h-641l-129 -317h-350zM600 1845c0 64 22.833 116.833 68.5 158.5s102.167 62.5 169.5 62.5c66 0 121.667 -20.833 167 -62.5s68 -94.5 68 -158.5s-22.667 -116.833 -68 -158.5s-101 -62.5 -167 -62.5
c-67.333 0 -123.833 20.833 -169.5 62.5s-68.5 94.5 -68.5 158.5zM629 598h418l-209 510zM756 1845c0 -24 7.66699 -43.667 23 -59s35.666 -23 60.999 -23c23.333 0 42.833 7.83301 58.5 23.5s23.5 35.167 23.5 58.5c0 24 -7.66699 43.667 -23 59s-35 23 -59 23
c-25.333 0 -45.666 -7.5 -60.999 -22.5s-23 -34.833 -23 -59.5z" />
    <glyph glyph-name="AE" unicode="&#xc6;" horiz-adv-x="2060" 
d="M16 0l1061 1532h881v-285h-481v-323h421v-279h-421v-360h483v-285h-805v317h-534l-211 -317h-394zM817 598h338v508z" />
    <glyph glyph-name="Ccedilla" unicode="&#xc7;" horiz-adv-x="1507" 
d="M86 768c0 114.667 20.166 221.165 60.499 319.498s95 181.5 164 249.5s150.833 121.167 245.5 159.5s195.334 57.5 302.001 57.5c263.333 0 466 -102.333 608 -307l-233 -182c-94 135.333 -217.667 203 -371 203c-132.667 0 -240.167 -46.5 -322.5 -139.5
s-123.5 -213.167 -123.5 -360.5c0 -148 41.167 -268.667 123.5 -362s189.833 -140 322.5 -140c154.667 0 278.334 67.667 371.001 203l233 -182c-136 -193.333 -325 -295.666 -567 -306.999l-18 -80c64.667 -3.33301 120 -23.666 166 -60.999s69 -89.333 69 -156
c0 -45.333 -14.167 -84.333 -42.5 -117s-63.333 -56.167 -105 -70.5s-87.5 -21.5 -137.5 -21.5c-88 0 -156.667 13.667 -206 41l45 149c31.333 -17.333 68 -26 110 -26c28.667 0 53.667 5.66699 75 17s32 29.333 32 54c0 26 -11 45.5 -33 58.5s-49.333 19.5 -82 19.5
c-26.667 0 -50 -3.33301 -70 -10l66 207c-96 10 -185.833 36.333 -269.5 79s-155.834 97.667 -216.501 165s-108.5 147.5 -143.5 240.5s-52.5 192.833 -52.5 299.5z" />
    <glyph glyph-name="Egrave" unicode="&#xc8;" horiz-adv-x="1058" 
d="M6 1944h416l260 -316h-276zM154 0v1532h802v-285h-481v-323h422v-279h-422v-360h483v-285h-804z" />
    <glyph glyph-name="Eacute" unicode="&#xc9;" horiz-adv-x="1058" 
d="M154 0v1532h802v-285h-481v-323h422v-279h-422v-360h483v-285h-804zM416 1628l260 316h416l-400 -316h-276z" />
    <glyph glyph-name="Ecircumflex" unicode="&#xca;" horiz-adv-x="1058" 
d="M154 0v1532h802v-285h-481v-323h422v-279h-422v-360h483v-285h-804zM172 1628l238 330h295l237 -330h-256l-129 154l-129 -154h-256z" />
    <glyph glyph-name="Edieresis" unicode="&#xcb;" horiz-adv-x="1058" 
d="M154 0v1532h802v-285h-481v-323h422v-279h-422v-360h483v-285h-804zM190 1800c0 45.333 16 84 48 116s70.667 48 116 48c46.667 0 86 -16 118 -48s48 -70.667 48 -116c0 -46.667 -15.833 -85.667 -47.5 -117s-71.167 -47 -118.5 -47c-45.333 0 -84 15.667 -116 47
s-48 70.333 -48 117zM590 1800c0 45.333 16.167 84 48.5 116s71.5 48 117.5 48s84.833 -16 116.5 -48s47.5 -70.667 47.5 -116c0 -46.667 -15.833 -85.667 -47.5 -117s-70.5 -47 -116.5 -47c-46.667 0 -86 15.667 -118 47s-48 70.333 -48 117z" />
    <glyph glyph-name="Igrave" unicode="&#xcc;" horiz-adv-x="626" 
d="M-225 1944h415l261 -316h-277zM154 0v1532h321v-1532h-321z" />
    <glyph glyph-name="Iacute" unicode="&#xcd;" horiz-adv-x="626" 
d="M154 0v1532h321v-1532h-321zM184 1628l260 316h416l-399 -316h-277z" />
    <glyph glyph-name="Icircumflex" unicode="&#xce;" horiz-adv-x="626" 
d="M-61 1628l237 330h295l238 -330h-256l-129 154l-129 -154h-256zM154 0v1532h321v-1532h-321z" />
    <glyph glyph-name="Idieresis" unicode="&#xcf;" horiz-adv-x="626" 
d="M-43 1800c0 45.333 16.167 84 48.5 116s70.833 48 115.5 48c46.667 0 86 -16 118 -48s48 -70.667 48 -116c0 -46.667 -15.833 -85.667 -47.5 -117s-71.167 -47 -118.5 -47c-45.333 0 -84 15.667 -116 47s-48 70.333 -48 117zM154 0v1532h321v-1532h-321zM356 1800
c0 45.333 16.167 84 48.5 116s71.5 48 117.5 48s84.833 -16 116.5 -48s47.5 -70.667 47.5 -116c0 -46.667 -15.833 -85.667 -47.5 -117s-70.5 -47 -116.5 -47c-46.667 0 -86 15.667 -118 47s-48 70.333 -48 117z" />
    <glyph glyph-name="Eth" unicode="&#xd0;" horiz-adv-x="1630" 
d="M-2 641v248.002h156v643h600c110.667 0 213.667 -16.667 309 -50s178.666 -81.5 249.999 -144.5s127.333 -143.667 168 -242s61 -208.833 61 -331.5s-20.333 -232.834 -61 -330.501s-96.667 -177.834 -168 -240.501s-154.666 -110.5 -249.999 -143.5
s-198.333 -49.5 -309 -49.5h-600v641h-156zM475 285.002h279c63.333 0 122.333 10.167 177 30.5s103.167 50 145.5 89s75.5 89.333 99.5 151s36 131.167 36 208.5c0 78.667 -12 149.167 -36 211.5s-57.167 113 -99.5 152s-90.833 68.667 -145.5 89s-113.667 30.5 -177 30.5
h-279v-358h236v-248h-236v-356z" />
    <glyph glyph-name="Ntilde" unicode="&#xd1;" horiz-adv-x="1605" 
d="M154 0v1532h305l674 -963v963h321v-1532h-305l-674 969v-969h-321zM430 1645c-8 87.333 8.49805 162.998 49.498 226.998s98.167 96 171.5 96c28.667 0 56.834 -5.66699 84.501 -17s50.167 -23.666 67.5 -36.999s36.833 -25.666 58.5 -36.999s41.834 -17 60.501 -17
c56 0 84 31.333 84 94h174c7.33301 -88 -9.66699 -164 -51 -228s-99 -96 -173 -96c-29.333 0 -57.833 5.66699 -85.5 17s-50.167 23.833 -67.5 37.5s-36.833 26.167 -58.5 37.5s-41.834 17 -60.501 17c-27.333 0 -48.166 -8.5 -62.499 -25.5s-21.5 -39.833 -21.5 -68.5h-170
z" />
    <glyph glyph-name="Ograve" unicode="&#xd2;" 
d="M86 768c0 114.667 20.1689 221 60.502 319s95.833 181.167 166.5 249.5s155 121.666 253 159.999s203.667 57.5 317 57.5s219 -19.167 317 -57.5s182.167 -91.666 252.5 -159.999s125.666 -151.5 165.999 -249.5s60.5 -204.333 60.5 -319
c0 -153.333 -34.667 -290.166 -104 -410.499s-164.333 -213.333 -285 -279s-256.334 -98.5 -407.001 -98.5c-151.333 0 -287.5 32.833 -408.5 98.5s-216 158.667 -285 279s-103.5 257.166 -103.5 410.499zM332.002 1944h416l260 -316h-277zM414.002 768
c0 -147.333 43.5 -267.833 130.5 -361.5s199.167 -140.5 336.5 -140.5s249.5 46.833 336.5 140.5s130.5 214.167 130.5 361.5c0 146.667 -43.333 266.667 -130 360s-199 140 -337 140c-136.667 0 -248.667 -46.667 -336 -140s-131 -213.333 -131 -360z" />
    <glyph glyph-name="Oacute" unicode="&#xd3;" 
d="M86 768c0 114.667 20.1689 221 60.502 319s95.833 181.167 166.5 249.5s155 121.666 253 159.999s203.667 57.5 317 57.5s219 -19.167 317 -57.5s182.167 -91.666 252.5 -159.999s125.666 -151.5 165.999 -249.5s60.5 -204.333 60.5 -319
c0 -153.333 -34.667 -290.166 -104 -410.499s-164.333 -213.333 -285 -279s-256.334 -98.5 -407.001 -98.5c-151.333 0 -287.5 32.833 -408.5 98.5s-216 158.667 -285 279s-103.5 257.166 -103.5 410.499zM414.002 768c0 -147.333 43.5 -267.833 130.5 -361.5
s199.167 -140.5 336.5 -140.5s249.5 46.833 336.5 140.5s130.5 214.167 130.5 361.5c0 146.667 -43.333 266.667 -130 360s-199 140 -337 140c-136.667 0 -248.667 -46.667 -336 -140s-131 -213.333 -131 -360zM741.002 1628l260 316h416l-399 -316h-277z" />
    <glyph glyph-name="Ocircumflex" unicode="&#xd4;" 
d="M86 768c0 114.667 20.1689 221 60.502 319s95.833 181.167 166.5 249.5s155 121.666 253 159.999s203.667 57.5 317 57.5s219 -19.167 317 -57.5s182.167 -91.666 252.5 -159.999s125.666 -151.5 165.999 -249.5s60.5 -204.333 60.5 -319
c0 -153.333 -34.667 -290.166 -104 -410.499s-164.333 -213.333 -285 -279s-256.334 -98.5 -407.001 -98.5c-151.333 0 -287.5 32.833 -408.5 98.5s-216 158.667 -285 279s-103.5 257.166 -103.5 410.499zM414.002 768c0 -147.333 43.5 -267.833 130.5 -361.5
s199.167 -140.5 336.5 -140.5s249.5 46.833 336.5 140.5s130.5 214.167 130.5 361.5c0 146.667 -43.333 266.667 -130 360s-199 140 -337 140c-136.667 0 -248.667 -46.667 -336 -140s-131 -213.333 -131 -360zM498.002 1628l237 330h295l238 -330h-256l-129 154l-129 -154
h-256z" />
    <glyph glyph-name="Otilde" unicode="&#xd5;" 
d="M86 768c0 114.667 20.1689 221 60.502 319s95.833 181.167 166.5 249.5s155 121.666 253 159.999s203.667 57.5 317 57.5s219 -19.167 317 -57.5s182.167 -91.666 252.5 -159.999s125.666 -151.5 165.999 -249.5s60.5 -204.333 60.5 -319
c0 -153.333 -34.667 -290.166 -104 -410.499s-164.333 -213.333 -285 -279s-256.334 -98.5 -407.001 -98.5c-151.333 0 -287.5 32.833 -408.5 98.5s-216 158.667 -285 279s-103.5 257.166 -103.5 410.499zM414.002 768c0 -147.333 43.5 -267.833 130.5 -361.5
s199.167 -140.5 336.5 -140.5s249.5 46.833 336.5 140.5s130.5 214.167 130.5 361.5c0 146.667 -43.333 266.667 -130 360s-199 140 -337 140c-136.667 0 -248.667 -46.667 -336 -140s-131 -213.333 -131 -360zM508.002 1645c-8 87.333 8.49902 162.998 49.499 226.998
s98.167 96 171.5 96c28.667 0 56.667 -5.66699 84 -17s49.666 -23.666 66.999 -36.999s36.833 -25.666 58.5 -36.999s41.834 -17 60.501 -17c56 0 84 31.333 84 94h174c7.33301 -88 -9.66699 -164 -51 -228s-98.666 -96 -171.999 -96c-29.333 0 -57.833 5.66699 -85.5 17
s-50.167 23.833 -67.5 37.5s-36.833 26.167 -58.5 37.5s-41.834 17 -60.501 17c-27.333 0 -48.166 -8.5 -62.499 -25.5s-21.5 -39.833 -21.5 -68.5h-170z" />
    <glyph glyph-name="Odieresis" unicode="&#xd6;" 
d="M86 768c0 114.667 20.1689 221 60.502 319s95.833 181.167 166.5 249.5s155 121.666 253 159.999s203.667 57.5 317 57.5s219 -19.167 317 -57.5s182.167 -91.666 252.5 -159.999s125.666 -151.5 165.999 -249.5s60.5 -204.333 60.5 -319
c0 -153.333 -34.667 -290.166 -104 -410.499s-164.333 -213.333 -285 -279s-256.334 -98.5 -407.001 -98.5c-151.333 0 -287.5 32.833 -408.5 98.5s-216 158.667 -285 279s-103.5 257.166 -103.5 410.499zM414.002 768c0 -147.333 43.5 -267.833 130.5 -361.5
s199.167 -140.5 336.5 -140.5s249.5 46.833 336.5 140.5s130.5 214.167 130.5 361.5c0 146.667 -43.333 266.667 -130 360s-199 140 -337 140c-136.667 0 -248.667 -46.667 -336 -140s-131 -213.333 -131 -360zM516.002 1800c0 45.333 16 84 48 116s70.667 48 116 48
c46.667 0 86 -16 118 -48s48 -70.667 48 -116c0 -46.667 -15.833 -85.667 -47.5 -117s-71.167 -47 -118.5 -47c-45.333 0 -84 15.667 -116 47s-48 70.333 -48 117zM915.002 1800c0 45.333 16.167 84 48.5 116s71.5 48 117.5 48s84.833 -16 116.5 -48s47.5 -70.667 47.5 -116
c0 -46.667 -15.833 -85.667 -47.5 -117s-70.5 -47 -116.5 -47c-46.667 0 -86 15.667 -118 47s-48 70.333 -48 117z" />
    <glyph glyph-name="multiply" unicode="&#xd7;" horiz-adv-x="1128" 
d="M88 485l274 275l-272 272l201 203l274 -274l271 272l202 -203l-272 -270l274 -275l-202 -202l-273 274l-274 -274z" />
    <glyph glyph-name="Oslash" unicode="&#xd8;" 
d="M86 768c0 114.667 20.168 220.999 60.501 318.999s95.833 181.167 166.5 249.5s155 121.666 253 159.999s203.667 57.5 317 57.5c137.333 0 265 -28.667 383 -86l129 170l196 -149l-127 -166c68.667 -70 121.667 -152.167 159 -246.5s56 -197.166 56 -308.499
c0 -153.333 -34.667 -290.166 -104 -410.499s-164.333 -213.333 -285 -279s-256.334 -98.5 -407.001 -98.5c-138 0 -265 28.667 -381 86l-129 -168l-197 149l125 164c-68.667 69.333 -121.667 151.5 -159 246.5s-56 198.5 -56 310.5zM414.001 767.999
c0 -114 28 -214.333 84 -301l581 760c-60 27.333 -126 41 -198 41c-136.667 0 -248.667 -46.667 -336 -140s-131 -213.333 -131 -360zM686.001 304.999c59.333 -26 124.333 -39 195 -39c137.333 0 249.5 46.833 336.5 140.5s130.5 214.167 130.5 361.5
c0 113.333 -27.333 212.333 -82 297z" />
    <glyph glyph-name="Ugrave" unicode="&#xd9;" horiz-adv-x="1599" 
d="M143 629v903h322v-897c0 -119.333 29 -211 87 -275s141 -96 249 -96s191 32 249 96s87 155.667 87 275v897h321v-903c0 -204 -58.5 -363.667 -175.5 -479s-277.5 -173 -481.5 -173s-364.667 57.667 -482 173s-176 275 -176 479zM250 1944h416l260 -316h-277z" />
    <glyph glyph-name="Uacute" unicode="&#xda;" horiz-adv-x="1599" 
d="M143 629v903h322v-897c0 -119.333 29 -211 87 -275s141 -96 249 -96s191 32 249 96s87 155.667 87 275v897h321v-903c0 -204 -58.5 -363.667 -175.5 -479s-277.5 -173 -481.5 -173s-364.667 57.667 -482 173s-176 275 -176 479zM659 1628l261 316h415l-399 -316h-277z
" />
    <glyph glyph-name="Ucircumflex" unicode="&#xdb;" horiz-adv-x="1599" 
d="M143 629v903h322v-897c0 -119.333 29 -211 87 -275s141 -96 249 -96s191 32 249 96s87 155.667 87 275v897h321v-903c0 -204 -58.5 -363.667 -175.5 -479s-277.5 -173 -481.5 -173s-364.667 57.667 -482 173s-176 275 -176 479zM416 1628l237 330h295l238 -330h-256
l-129 154l-129 -154h-256z" />
    <glyph glyph-name="Udieresis" unicode="&#xdc;" horiz-adv-x="1599" 
d="M143 629v903h322v-897c0 -119.333 29 -211 87 -275s141 -96 249 -96s191 32 249 96s87 155.667 87 275v897h321v-903c0 -204 -58.5 -363.667 -175.5 -479s-277.5 -173 -481.5 -173s-364.667 57.667 -482 173s-176 275 -176 479zM434 1800c0 45.333 16 84 48 116
s70.667 48 116 48c46.667 0 86 -16 118 -48s48 -70.667 48 -116c0 -46.667 -15.833 -85.667 -47.5 -117s-71.167 -47 -118.5 -47c-45.333 0 -84 15.667 -116 47s-48 70.333 -48 117zM834 1800c0 45.333 16 84 48 116s71 48 117 48s84.833 -16 116.5 -48
s47.5 -70.667 47.5 -116c0 -46.667 -15.833 -85.667 -47.5 -117s-70.5 -47 -116.5 -47s-85 15.667 -117 47s-48 70.333 -48 117z" />
    <glyph glyph-name="Yacute" unicode="&#xdd;" horiz-adv-x="1570" 
d="M25 1532h374l387 -645l388 645h374l-600 -965v-567h-321v567zM645 1628l260 316h416l-399 -316h-277z" />
    <glyph glyph-name="Thorn" unicode="&#xde;" horiz-adv-x="1243" 
d="M154 0v1532h321v-193h158c158 0 282.833 -40.167 374.5 -120.5s137.5 -197.166 137.5 -350.499s-45.833 -269.833 -137.5 -349.5s-216.5 -119.5 -374.5 -119.5h-158v-399h-321zM475 683.999h139c62 0 111 15.5 147 46.5s54 76.833 54 137.5c0 61.333 -18 107.5 -54 138.5
s-85 46.5 -147 46.5h-139v-369z" />
    <glyph glyph-name="germandbls" unicode="&#xdf;" horiz-adv-x="1339" 
d="M143 0l0.000976562 1157.01c0 136 47.167 245.167 141.5 327.5s216.5 123.5 366.5 123.5c148.667 0 265 -30.5 349 -91.5s126 -145.167 126 -252.5c0 -40 -6 -76 -18 -108s-26.667 -58 -44 -78s-34.666 -38.833 -51.999 -56.5s-32 -37.334 -44 -59.001
s-18 -44.834 -18 -69.501c0 -20.667 5.5 -40.834 16.5 -60.501s25.5 -37.834 43.5 -54.501s37.833 -33.834 59.5 -51.501s43.167 -37.167 64.5 -58.5s41 -44.166 59 -68.499s32.5 -53.5 43.5 -87.5s16.5 -71 16.5 -111c0 -128.667 -43 -230.334 -129 -305.001
s-198 -112 -336 -112c-86 0 -159.667 6.66699 -221 20l27 260c54 -16 109.333 -24 166 -24c58 0 103.167 14.167 135.5 42.5s48.5 72.166 48.5 131.499c0 28.667 -7.5 56.834 -22.5 84.501s-33.667 52 -56 73l-73 68c-26.333 24.333 -50.666 47.833 -72.999 70.5
s-41 49.5 -56 80.5s-22.5 63.167 -22.5 96.5c0 35.333 6.16699 66.666 18.5 93.999s27.166 49.5 44.499 66.5s34.666 32.833 51.999 47.5s32.166 31.167 44.499 49.5s18.5 38.166 18.5 59.499c0 46.667 -15 83.334 -45 110.001s-73.667 40 -131 40
c-59.333 0 -106.5 -18 -141.5 -54s-52.5 -86.333 -52.5 -151v-1149h-306z" />
    <glyph glyph-name="agrave" unicode="&#xe0;" horiz-adv-x="1089" 
d="M92 293c0 101.333 35.6689 181.334 107.002 240.001s164.666 88 279.999 88c57.333 0 113.333 -6.33301 168 -19v72c0 47.333 -12.333 84.666 -37 111.999s-59.334 41 -104.001 41s-81.667 -9.16699 -111 -27.5s-56.666 -45.833 -81.999 -82.5l-192 172
c52 64 111.333 111.667 178 143s146 47 238 47c124 0 224.167 -34.333 300.5 -103s114.5 -164 114.5 -286v-690h-284l-2 86c-72.667 -72.667 -160.334 -109 -263.001 -109c-91.333 0 -166 28.833 -224 86.5s-87 134.167 -87 229.5zM143.002 1618h346l170 -391h-237z
M401.002 317.001c0 -34.667 10.333 -60.667 31 -78s48.667 -26 84 -26c46.667 0 91 19.667 133 59v140c-34 9.33301 -70 14 -108 14c-42.667 0 -76.667 -9.16699 -102 -27.5s-38 -45.5 -38 -81.5z" />
    <glyph glyph-name="aacute" unicode="&#xe1;" horiz-adv-x="1089" 
d="M92 293c0 101.333 35.6689 181.334 107.002 240.001s164.666 88 279.999 88c57.333 0 113.333 -6.33301 168 -19v72c0 47.333 -12.333 84.666 -37 111.999s-59.334 41 -104.001 41s-81.667 -9.16699 -111 -27.5s-56.666 -45.833 -81.999 -82.5l-192 172
c52 64 111.333 111.667 178 143s146 47 238 47c124 0 224.167 -34.333 300.5 -103s114.5 -164 114.5 -286v-690h-284l-2 86c-72.667 -72.667 -160.334 -109 -263.001 -109c-91.333 0 -166 28.833 -224 86.5s-87 134.167 -87 229.5zM401.002 317.001
c0 -34.667 10.333 -60.667 31 -78s48.667 -26 84 -26c46.667 0 91 19.667 133 59v140c-34 9.33301 -70 14 -108 14c-42.667 0 -76.667 -9.16699 -102 -27.5s-38 -45.5 -38 -81.5zM426.002 1227l170 391h344l-276 -391h-238z" />
    <glyph glyph-name="acircumflex" unicode="&#xe2;" horiz-adv-x="1089" 
d="M92 293c0 101.333 35.6689 181.334 107.002 240.001s164.666 88 279.999 88c57.333 0 113.333 -6.33301 168 -19v72c0 47.333 -12.333 84.666 -37 111.999s-59.334 41 -104.001 41s-81.667 -9.16699 -111 -27.5s-56.666 -45.833 -81.999 -82.5l-192 172
c52 64 111.333 111.667 178 143s146 47 238 47c124 0 224.167 -34.333 300.5 -103s114.5 -164 114.5 -286v-690h-284l-2 86c-72.667 -72.667 -160.334 -109 -263.001 -109c-91.333 0 -166 28.833 -224 86.5s-87 134.167 -87 229.5zM162.002 1227l237 364h297l238 -364h-256
l-129 164l-131 -164h-256zM401.002 317.001c0 -34.667 10.333 -60.667 31 -78s48.667 -26 84 -26c46.667 0 91 19.667 133 59v140c-34 9.33301 -70 14 -108 14c-42.667 0 -76.667 -9.16699 -102 -27.5s-38 -45.5 -38 -81.5z" />
    <glyph glyph-name="atilde" unicode="&#xe3;" horiz-adv-x="1089" 
d="M92 293c0 101.333 35.6689 181.334 107.002 240.001s164.666 88 279.999 88c57.333 0 113.333 -6.33301 168 -19v72c0 47.333 -12.333 84.666 -37 111.999s-59.334 41 -104.001 41s-81.667 -9.16699 -111 -27.5s-56.666 -45.833 -81.999 -82.5l-192 172
c52 64 111.333 111.667 178 143s146 47 238 47c124 0 224.167 -34.333 300.5 -103s114.5 -164 114.5 -286v-690h-284l-2 86c-72.667 -72.667 -160.334 -109 -263.001 -109c-91.333 0 -166 28.833 -224 86.5s-87 134.167 -87 229.5zM172.002 1237
c-8 87.333 8.49805 163.167 49.498 227.5s98.167 96.5 171.5 96.5c28.667 0 56.834 -5.66699 84.501 -17s50.167 -23.833 67.5 -37.5s36.833 -26.167 58.5 -37.5s41.834 -17 60.501 -17c56 0 84 31.333 84 94h174c7.33301 -87.333 -9.83398 -163 -51.501 -227
s-99.167 -96 -172.5 -96c-37.333 0 -72.5 9 -105.5 27s-63.167 36 -90.5 54s-52.666 27 -75.999 27c-28 0 -49 -8.33301 -63 -25s-21 -39.667 -21 -69h-170zM401 317.002c0 -34.667 10.333 -60.667 31 -78s48.667 -26 84 -26c46.667 0 91 19.667 133 59v140
c-34 9.33301 -70 14 -108 14c-42.667 0 -76.667 -9.16699 -102 -27.5s-38 -45.5 -38 -81.5z" />
    <glyph glyph-name="adieresis" unicode="&#xe4;" horiz-adv-x="1089" 
d="M92 293c0 101.333 35.6689 181.334 107.002 240.001s164.666 88 279.999 88c57.333 0 113.333 -6.33301 168 -19v72c0 47.333 -12.333 84.666 -37 111.999s-59.334 41 -104.001 41s-81.667 -9.16699 -111 -27.5s-56.666 -45.833 -81.999 -82.5l-192 172
c52 64 111.333 111.667 178 143s146 47 238 47c124 0 224.167 -34.333 300.5 -103s114.5 -164 114.5 -286v-690h-284l-2 86c-72.667 -72.667 -160.334 -109 -263.001 -109c-91.333 0 -166 28.833 -224 86.5s-87 134.167 -87 229.5zM182.002 1391c0 44.667 16 83 48 115
s70.667 48 116 48c46.667 0 86 -15.833 118 -47.5s48 -70.167 48 -115.5c0 -46 -16 -84.833 -48 -116.5s-71.333 -47.5 -118 -47.5c-45.333 0 -84 15.833 -116 47.5s-48 70.5 -48 116.5zM401.002 317.001c0 -34.667 10.333 -60.667 31 -78s48.667 -26 84 -26
c46.667 0 91 19.667 133 59v140c-34 9.33301 -70 14 -108 14c-42.667 0 -76.667 -9.16699 -102 -27.5s-38 -45.5 -38 -81.5zM582.002 1391c0 45.333 16.167 83.833 48.5 115.5s71.5 47.5 117.5 47.5s84.667 -15.833 116 -47.5s47 -70.167 47 -115.5
c0 -46 -15.667 -84.833 -47 -116.5s-70 -47.5 -116 -47.5s-85.167 15.833 -117.5 47.5s-48.5 70.5 -48.5 116.5z" />
    <glyph glyph-name="aring" unicode="&#xe5;" horiz-adv-x="1089" 
d="M92 293c0 101.333 35.6689 181.334 107.002 240.001s164.666 88 279.999 88c57.333 0 113.333 -6.33301 168 -19v72c0 47.333 -12.333 84.666 -37 111.999s-59.334 41 -104.001 41s-81.667 -9.16699 -111 -27.5s-56.666 -45.833 -81.999 -82.5l-192 172
c52 64 111.333 111.667 178 143s146 47 238 47c124 0 224.167 -34.333 300.5 -103s114.5 -164 114.5 -286v-690h-284l-2 86c-72.667 -72.667 -160.334 -109 -263.001 -109c-91.333 0 -166 28.833 -224 86.5s-87 134.167 -87 229.5zM276.002 1438
c0 72 26.167 131.667 78.5 179s116.5 71 192.5 71s140 -23.667 192 -71s78 -107 78 -179c0 -72.667 -26 -132.834 -78 -180.501s-116 -71.5 -192 -71.5c-76.667 0 -141 23.833 -193 71.5s-78 107.834 -78 180.501zM401.002 317.001c0 -34.667 10.333 -60.667 31 -78
s48.667 -26 84 -26c46.667 0 91 19.667 133 59v140c-34 9.33301 -70 14 -108 14c-42.667 0 -76.667 -9.16699 -102 -27.5s-38 -45.5 -38 -81.5zM455.002 1438c0 -27.333 8.5 -49.5 25.5 -66.5s39.167 -25.5 66.5 -25.5s49.5 8.5 66.5 25.5s25.5 39.167 25.5 66.5
c0 26 -8.5 47.5 -25.5 64.5s-39.167 25.5 -66.5 25.5s-49.5 -8.5 -66.5 -25.5s-25.5 -38.5 -25.5 -64.5z" />
    <glyph glyph-name="ae" unicode="&#xe6;" horiz-adv-x="1701" 
d="M92 289c0 101.333 35.502 181.502 106.502 240.502s164.5 88.5 280.5 88.5c47.333 0 103.333 -6 168 -18v74c0 47.333 -12.333 84.666 -37 111.999s-59.334 41 -104.001 41s-81.667 -9.16699 -111 -27.5s-56.666 -45.833 -81.999 -82.5l-192 172
c52 64 111.333 111.667 178 143s146 47 238 47c130.667 0 233 -36 307 -108c90 72 197 108 321 108c166 0 287 -54.333 363 -163s101.333 -266 76 -472h-643c2 -64.667 24.167 -117.334 66.5 -158.001s97.166 -61 164.499 -61c52 0 94.667 9.33301 128 28
s63.666 46.334 90.999 83.001l191 -170c-44.667 -60.667 -103 -107.334 -175 -140.001s-151 -49 -237 -49c-78 0 -151.333 13.167 -220 39.5s-127 64.5 -175 114.5c-96 -102.667 -217.667 -154 -365 -154c-47.333 0 -91 6 -131 18s-75.667 30.167 -107 54.5
s-55.833 57 -73.5 98s-26.5 88.167 -26.5 141.5zM401.002 313.002c0 -66.667 37.667 -99.999 113 -99.999c36 0 67.5 11.667 94.5 35s40.5 56.666 40.5 99.999v64c-34 9.33301 -69.333 14 -106 14c-44.667 0 -79.5 -9.5 -104.5 -28.5s-37.5 -47.167 -37.5 -84.5z
M961.002 643.003l352.001 0.00195312c2 61.333 -11.333 110.166 -40 146.499s-69.334 54.5 -122.001 54.5c-53.333 0 -97.333 -18.833 -132 -56.5s-54 -85.834 -58 -144.501z" />
    <glyph glyph-name="ccedilla" unicode="&#xe7;" horiz-adv-x="1095" 
d="M84 530c0 110.667 24.833 208.169 74.5 292.502s115.667 148.166 198 191.499s173.833 65 274.5 65c184 0 325.333 -73.667 424 -221l-221 -153c-19.333 35.333 -46.166 64.5 -80.499 87.5s-74.5 34.5 -120.5 34.5c-72 0 -130 -26.833 -174 -80.5
s-66 -125.834 -66 -216.501c0 -91.333 22 -164 66 -218s102 -81 174 -81c46 0 86.167 11.5 120.5 34.5s61.166 51.833 80.499 86.5l221 -151c-94 -142.667 -226.667 -217.334 -398 -224.001l-18 -75c64.667 -3.33301 120 -23.666 166 -60.999s69 -89.333 69 -156
c0 -67.333 -27.833 -119 -83.5 -155s-122.5 -54 -200.5 -54c-88.667 0 -157.667 13.667 -207 41l45 149c31.333 -17.333 68.333 -26 111 -26c28 0 52.667 5.66699 74 17s32 29.333 32 54c0 26 -11 45.5 -33 58.5s-49.333 19.5 -82 19.5c-26 0 -49 -3.33301 -69 -10l65 207
c-129.333 22 -235.333 81.333 -318 178s-124 218.667 -124 366z" />
    <glyph glyph-name="egrave" unicode="&#xe8;" horiz-adv-x="1132" 
d="M84 520c0 88.667 13.834 168.834 41.501 240.501s65.334 130.5 113.001 176.5s102.167 81.167 163.5 105.5s126.666 36.5 195.999 36.5c165.333 0 286 -54.333 362 -163s101.333 -266 76 -472h-643c2 -64.667 24.333 -117.334 67 -158.001s97.667 -61 165 -61
c50.667 0 92.834 9.33301 126.501 28s64.5 46.334 92.5 83.001l190 -170c-44.667 -60.667 -102.834 -107.334 -174.501 -140.001s-150.5 -49 -236.5 -49c-74 0 -143.167 11.667 -207.5 35s-121.333 57 -171 101s-88.834 101 -117.501 171s-43 148.667 -43 236zM190.001 1618
h347l170 -391h-238zM393.001 643l351.998 0.000976562c1.33301 62 -12.167 111 -40.5 147s-69.166 54 -122.499 54s-97.166 -18.833 -131.499 -56.5s-53.5 -85.834 -57.5 -144.501z" />
    <glyph glyph-name="eacute" unicode="&#xe9;" horiz-adv-x="1132" 
d="M84 520c0 88.667 13.834 168.834 41.501 240.501s65.334 130.5 113.001 176.5s102.167 81.167 163.5 105.5s126.666 36.5 195.999 36.5c165.333 0 286 -54.333 362 -163s101.333 -266 76 -472h-643c2 -64.667 24.333 -117.334 67 -158.001s97.667 -61 165 -61
c50.667 0 92.834 9.33301 126.501 28s64.5 46.334 92.5 83.001l190 -170c-44.667 -60.667 -102.834 -107.334 -174.501 -140.001s-150.5 -49 -236.5 -49c-74 0 -143.167 11.667 -207.5 35s-121.333 57 -171 101s-88.834 101 -117.501 171s-43 148.667 -43 236zM393.001 643
l351.998 0.000976562c1.33301 62 -12.167 111 -40.5 147s-69.166 54 -122.499 54s-97.166 -18.833 -131.499 -56.5s-53.5 -85.834 -57.5 -144.501zM470.999 1227l170 391h344l-276 -391h-238z" />
    <glyph glyph-name="ecircumflex" unicode="&#xea;" horiz-adv-x="1132" 
d="M84 520c0 88.667 13.834 168.834 41.501 240.501s65.334 130.5 113.001 176.5s102.167 81.167 163.5 105.5s126.666 36.5 195.999 36.5c165.333 0 286 -54.333 362 -163s101.333 -266 76 -472h-643c2 -64.667 24.333 -117.334 67 -158.001s97.667 -61 165 -61
c50.667 0 92.834 9.33301 126.501 28s64.5 46.334 92.5 83.001l190 -170c-44.667 -60.667 -102.834 -107.334 -174.501 -140.001s-150.5 -49 -236.5 -49c-74 0 -143.167 11.667 -207.5 35s-121.333 57 -171 101s-88.834 101 -117.501 171s-43 148.667 -43 236zM209.001 1227
l237 364h297l238 -364h-256l-129 164l-131 -164h-256zM393.001 643l351.998 0.000976562c1.33301 62 -12.167 111 -40.5 147s-69.166 54 -122.499 54s-97.166 -18.833 -131.499 -56.5s-53.5 -85.834 -57.5 -144.501z" />
    <glyph glyph-name="edieresis" unicode="&#xeb;" horiz-adv-x="1132" 
d="M84 520c0 88.667 13.834 168.834 41.501 240.501s65.334 130.5 113.001 176.5s102.167 81.167 163.5 105.5s126.666 36.5 195.999 36.5c165.333 0 286 -54.333 362 -163s101.333 -266 76 -472h-643c2 -64.667 24.333 -117.334 67 -158.001s97.667 -61 165 -61
c50.667 0 92.834 9.33301 126.501 28s64.5 46.334 92.5 83.001l190 -170c-44.667 -60.667 -102.834 -107.334 -174.501 -140.001s-150.5 -49 -236.5 -49c-74 0 -143.167 11.667 -207.5 35s-121.333 57 -171 101s-88.834 101 -117.501 171s-43 148.667 -43 236zM227.001 1391
c0 44.667 16 83 48 115s70.667 48 116 48c46.667 0 86 -15.833 118 -47.5s48 -70.167 48 -115.5c0 -46 -16 -84.833 -48 -116.5s-71.333 -47.5 -118 -47.5c-45.333 0 -84 15.833 -116 47.5s-48 70.5 -48 116.5zM393.001 643l351.998 0.000976562
c1.33301 62 -12.167 111 -40.5 147s-69.166 54 -122.499 54s-97.166 -18.833 -131.499 -56.5s-53.5 -85.834 -57.5 -144.501zM626.999 1391c0 45.333 16.167 83.833 48.5 115.5s71.5 47.5 117.5 47.5s84.667 -15.833 116 -47.5s47 -70.167 47 -115.5
c0 -46 -15.667 -84.833 -47 -116.5s-70 -47.5 -116 -47.5s-85.167 15.833 -117.5 47.5s-48.5 70.5 -48.5 116.5z" />
    <glyph glyph-name="igrave" unicode="&#xec;" horiz-adv-x="598" 
d="M-109 1618h347l170 -391h-238zM147 0v1059h306v-1059h-306z" />
    <glyph glyph-name="iacute" unicode="&#xed;" horiz-adv-x="598" 
d="M147 0v1059h306v-1059h-306zM172 1227l170 391h344l-276 -391h-238z" />
    <glyph glyph-name="icircumflex" unicode="&#xee;" horiz-adv-x="598" 
d="M-90 1227l237 364h297l238 -364h-256l-129 164l-131 -164h-256zM147 0v1059h306v-1059h-306z" />
    <glyph glyph-name="idieresis" unicode="&#xef;" horiz-adv-x="598" 
d="M-70 1391c0 44.667 16 83 48 115s70.667 48 116 48c46.667 0 86 -15.833 118 -47.5s48 -70.167 48 -115.5c0 -46 -16 -84.833 -48 -116.5s-71.333 -47.5 -118 -47.5c-45.333 0 -84 15.833 -116 47.5s-48 70.5 -48 116.5zM147 0v1059h306v-1059h-306zM330 1391
c0 45.333 16.167 83.833 48.5 115.5s71.5 47.5 117.5 47.5s84.667 -15.833 116 -47.5s47 -70.167 47 -115.5c0 -46 -15.667 -84.833 -47 -116.5s-70 -47.5 -116 -47.5s-85.167 15.833 -117.5 47.5s-48.5 70.5 -48.5 116.5z" />
    <glyph glyph-name="eth" unicode="&#xf0;" horiz-adv-x="1228" 
d="M84 479c0 148 47.167 269.332 141.5 363.999s210.166 142 347.499 142c92 0 169.333 -18.333 232 -55c-26.667 122.667 -71 218.334 -133 287.001l-156 -148l-139 133l131 125c-74.667 27.333 -160.667 41 -258 41v223c174.667 0 324.667 -28 450 -84l144 138l141 -132
l-119 -112c179.333 -160 269 -429 269 -807c0 -199.333 -48.167 -352 -144.5 -458s-223.166 -159 -380.499 -159c-155.333 0 -281.833 45.833 -379.5 137.5s-146.5 213.167 -146.5 364.5zM391 482.999c0 -83.333 19.333 -148.167 58 -194.5s92.334 -69.5 161.001 -69.5
c68 0 121.167 24 159.5 72s57.5 115 57.5 201c0 74 -19.667 134.333 -59 181s-92 70 -158 70c-68.667 0 -122.334 -23.667 -161.001 -71s-58 -110.333 -58 -189z" />
    <glyph glyph-name="ntilde" unicode="&#xf1;" horiz-adv-x="1247" 
d="M147 0l0.000976562 1059h293v-111c25.333 38 62.666 69.333 111.999 94s110.333 37 183 37c112 0 202.833 -36.167 272.5 -108.5s104.5 -170.5 104.5 -294.5v-676h-305v623c0 50.667 -14.5 92 -43.5 124s-67.833 48 -116.5 48c-70 0 -134.667 -32.333 -194 -97v-698h-306
zM246.001 1237c-8 87.333 8.49805 163.167 49.498 227.5s98.167 96.5 171.5 96.5c28.667 0 56.667 -5.66699 84 -17s49.666 -23.833 66.999 -37.5s36.833 -26.167 58.5 -37.5s41.834 -17 60.501 -17c56 0 84 31.333 84 94h174c7.33301 -87.333 -9.66699 -163 -51 -227
s-98.666 -96 -171.999 -96c-37.333 0 -72.5 9 -105.5 27s-63.167 36 -90.5 54s-52.666 27 -75.999 27c-28 0 -49 -8.33301 -63 -25s-21 -39.667 -21 -69h-170z" />
    <glyph glyph-name="ograve" unicode="&#xf2;" horiz-adv-x="1275" 
d="M84 530c0 107.333 25 203.166 75 287.499s117.167 149 201.5 194s177.166 67.5 278.499 67.5s194.166 -22.5 278.499 -67.5s151.5 -109.667 201.5 -194s75 -180.166 75 -287.499c0 -108 -25 -204.5 -75 -289.5s-117.167 -150.167 -201.5 -195.5
s-177.166 -68 -278.499 -68s-194.166 22.667 -278.499 68s-151.5 110.5 -201.5 195.5s-75 181.5 -75 289.5zM236 1618h346l170 -391h-238zM391 530c0 -88.667 23.167 -160.667 69.5 -216s105.166 -83 176.499 -83c72 0 131.333 27.5 178 82.5s70 127.167 70 216.5
c0 88 -23.333 159.5 -70 214.5s-106 82.5 -178 82.5c-71.333 0 -130.166 -27.5 -176.499 -82.5s-69.5 -126.5 -69.5 -214.5z" />
    <glyph glyph-name="oacute" unicode="&#xf3;" horiz-adv-x="1275" 
d="M84 530c0 107.333 25 203.166 75 287.499s117.167 149 201.5 194s177.166 67.5 278.499 67.5s194.166 -22.5 278.499 -67.5s151.5 -109.667 201.5 -194s75 -180.166 75 -287.499c0 -108 -25 -204.5 -75 -289.5s-117.167 -150.167 -201.5 -195.5
s-177.166 -68 -278.499 -68s-194.166 22.667 -278.499 68s-151.5 110.5 -201.5 195.5s-75 181.5 -75 289.5zM391 530c0 -88.667 23.167 -160.667 69.5 -216s105.166 -83 176.499 -83c72 0 131.333 27.5 178 82.5s70 127.167 70 216.5c0 88 -23.333 159.5 -70 214.5
s-106 82.5 -178 82.5c-71.333 0 -130.166 -27.5 -176.499 -82.5s-69.5 -126.5 -69.5 -214.5zM516 1227l170 391h344l-276 -391h-238z" />
    <glyph glyph-name="ocircumflex" unicode="&#xf4;" horiz-adv-x="1275" 
d="M84 530c0 107.333 25 203.166 75 287.499s117.167 149 201.5 194s177.166 67.5 278.499 67.5s194.166 -22.5 278.499 -67.5s151.5 -109.667 201.5 -194s75 -180.166 75 -287.499c0 -108 -25 -204.5 -75 -289.5s-117.167 -150.167 -201.5 -195.5
s-177.166 -68 -278.499 -68s-194.166 22.667 -278.499 68s-151.5 110.5 -201.5 195.5s-75 181.5 -75 289.5zM254 1227l238 364h296l238 -364h-256l-129 164l-131 -164h-256zM391 530c0 -88.667 23.167 -160.667 69.5 -216s105.166 -83 176.499 -83
c72 0 131.333 27.5 178 82.5s70 127.167 70 216.5c0 88 -23.333 159.5 -70 214.5s-106 82.5 -178 82.5c-71.333 0 -130.166 -27.5 -176.499 -82.5s-69.5 -126.5 -69.5 -214.5z" />
    <glyph glyph-name="otilde" unicode="&#xf5;" horiz-adv-x="1275" 
d="M84 530c0 107.333 25 203.166 75 287.499s117.167 149 201.5 194s177.166 67.5 278.499 67.5s194.166 -22.5 278.499 -67.5s151.5 -109.667 201.5 -194s75 -180.166 75 -287.499c0 -108 -25 -204.5 -75 -289.5s-117.167 -150.167 -201.5 -195.5
s-177.166 -68 -278.499 -68s-194.166 22.667 -278.499 68s-151.5 110.5 -201.5 195.5s-75 181.5 -75 289.5zM264 1237c-8 87.333 8.5 163.169 49.5 227.502s98.167 96.5 171.5 96.5c28.667 0 56.834 -5.66699 84.501 -17s50.167 -23.833 67.5 -37.5
s36.833 -26.167 58.5 -37.5s41.834 -17 60.501 -17c56 0 84 31.333 84 94h174c7.33301 -87.333 -9.66699 -163 -51 -227s-98.666 -96 -171.999 -96c-29.333 0 -57.833 5.66699 -85.5 17s-50.334 23.666 -68.001 36.999s-37.334 25.666 -59.001 36.999s-41.834 17 -60.501 17
c-28 0 -49 -8.33301 -63 -25s-21 -39.667 -21 -69h-170zM391 530.003c0 -88.667 23.167 -160.667 69.5 -216s105.166 -83 176.499 -83c72 0 131.333 27.5 178 82.5s70 127.167 70 216.5c0 88 -23.333 159.5 -70 214.5s-106 82.5 -178 82.5
c-71.333 0 -130.166 -27.5 -176.499 -82.5s-69.5 -126.5 -69.5 -214.5z" />
    <glyph glyph-name="odieresis" unicode="&#xf6;" horiz-adv-x="1275" 
d="M84 530c0 107.333 25 203.166 75 287.499s117.167 149 201.5 194s177.166 67.5 278.499 67.5s194.166 -22.5 278.499 -67.5s151.5 -109.667 201.5 -194s75 -180.166 75 -287.499c0 -108 -25 -204.5 -75 -289.5s-117.167 -150.167 -201.5 -195.5
s-177.166 -68 -278.499 -68s-194.166 22.667 -278.499 68s-151.5 110.5 -201.5 195.5s-75 181.5 -75 289.5zM272 1391c0 44.667 16 83 48 115s70.667 48 116 48c46.667 0 86 -15.833 118 -47.5s48 -70.167 48 -115.5c0 -46 -16 -84.833 -48 -116.5s-71.333 -47.5 -118 -47.5
c-45.333 0 -84 15.833 -116 47.5s-48 70.5 -48 116.5zM391 530c0 -88.667 23.167 -160.667 69.5 -216s105.166 -83 176.499 -83c72 0 131.333 27.5 178 82.5s70 127.167 70 216.5c0 88 -23.333 159.5 -70 214.5s-106 82.5 -178 82.5
c-71.333 0 -130.166 -27.5 -176.499 -82.5s-69.5 -126.5 -69.5 -214.5zM672 1391c0 45.333 16.167 83.833 48.5 115.5s71.5 47.5 117.5 47.5s84.667 -15.833 116 -47.5s47 -70.167 47 -115.5c0 -46 -15.667 -84.833 -47 -116.5s-70 -47.5 -116 -47.5
s-85.167 15.833 -117.5 47.5s-48.5 70.5 -48.5 116.5z" />
    <glyph glyph-name="divide" unicode="&#xf7;" horiz-adv-x="1122" 
d="M63 618v287h996v-287h-996zM379 262c0 51.333 17.667 94.833 53 130.5s78.333 53.5 129 53.5c51.333 0 94.833 -18 130.5 -54s53.5 -79.333 53.5 -130s-17.833 -94 -53.5 -130s-79.167 -54 -130.5 -54c-50.667 0 -93.667 17.833 -129 53.5s-53 79.167 -53 130.5z
M379 1260c0 51.333 17.667 94.835 53 130.502s78.333 53.5 129 53.5c51.333 0 94.833 -18 130.5 -54s53.5 -79.333 53.5 -130s-17.833 -93.834 -53.5 -129.501s-79.167 -53.5 -130.5 -53.5c-50.667 0 -93.667 17.667 -129 53s-53 78.666 -53 129.999z" />
    <glyph glyph-name="oslash" unicode="&#xf8;" horiz-adv-x="1275" 
d="M84 530c0 107.333 24.999 203.167 74.999 287.5s117.167 149 201.5 194s177.166 67.5 278.499 67.5c88.667 0 171.334 -17.667 248.001 -53l84 113l166 -123l-84 -111c94 -100.667 141 -225.667 141 -375c0 -108 -25 -204.5 -75 -289.5s-117.167 -150.167 -201.5 -195.5
s-177.166 -68 -278.499 -68c-84.667 0 -166 17.333 -244 52l-88 -117l-168 125l86 115c-94 100.667 -141 226.667 -141 378zM390.999 530.001c0 -42 7 -85.667 21 -131l311 412c-28.667 10.667 -57.334 16 -86.001 16c-71.333 0 -130.166 -27.5 -176.499 -82.5
s-69.5 -126.5 -69.5 -214.5zM556.999 246.001c24.667 -10 51.333 -15.001 80 -15.001c72 0 131.333 27.5 178 82.5s70 127.167 70 216.5c0 46.667 -7 88.334 -21 125.001z" />
    <glyph glyph-name="ugrave" unicode="&#xf9;" horiz-adv-x="1222" 
d="M137 444v615h305v-621c0 -54.667 15.5 -98.334 46.5 -131.001s72.167 -49 123.5 -49c52 0 93.333 16.333 124 49s46 76.334 46 131.001v621h305v-615c0 -136 -43.5 -247.833 -130.5 -335.5s-201.833 -131.5 -344.5 -131.5s-257.5 43.833 -344.5 131.5
s-130.5 199.5 -130.5 335.5zM207 1618h346l170 -391h-238z" />
    <glyph glyph-name="uacute" unicode="&#xfa;" horiz-adv-x="1222" 
d="M137 444v615h305v-621c0 -54.667 15.5 -98.334 46.5 -131.001s72.167 -49 123.5 -49c52 0 93.333 16.333 124 49s46 76.334 46 131.001v621h305v-615c0 -136 -43.5 -247.833 -130.5 -335.5s-201.833 -131.5 -344.5 -131.5s-257.5 43.833 -344.5 131.5
s-130.5 199.5 -130.5 335.5zM489 1227l170 391h345l-277 -391h-238z" />
    <glyph glyph-name="ucircumflex" unicode="&#xfb;" horiz-adv-x="1222" 
d="M137 444v615h305v-621c0 -54.667 15.5 -98.334 46.5 -131.001s72.167 -49 123.5 -49c52 0 93.333 16.333 124 49s46 76.334 46 131.001v621h305v-615c0 -136 -43.5 -247.833 -130.5 -335.5s-201.833 -131.5 -344.5 -131.5s-257.5 43.833 -344.5 131.5
s-130.5 199.5 -130.5 335.5zM225 1227l238 364h297l237 -364h-256l-129 164l-131 -164h-256z" />
    <glyph glyph-name="udieresis" unicode="&#xfc;" horiz-adv-x="1222" 
d="M137 444v615h305v-621c0 -54.667 15.5 -98.334 46.5 -131.001s72.167 -49 123.5 -49c52 0 93.333 16.333 124 49s46 76.334 46 131.001v621h305v-615c0 -136 -43.5 -247.833 -130.5 -335.5s-201.833 -131.5 -344.5 -131.5s-257.5 43.833 -344.5 131.5
s-130.5 199.5 -130.5 335.5zM246 1391c0 44.667 16 83 48 115s70.667 48 116 48c46.667 0 85.834 -15.833 117.501 -47.5s47.5 -70.167 47.5 -115.5c0 -46 -15.833 -84.833 -47.5 -116.5s-70.834 -47.5 -117.501 -47.5c-45.333 0 -84 15.833 -116 47.5s-48 70.5 -48 116.5z
M645 1391c0 45.333 16.167 83.833 48.5 115.5s71.5 47.5 117.5 47.5s84.833 -15.833 116.5 -47.5s47.5 -70.167 47.5 -115.5c0 -46 -15.833 -84.833 -47.5 -116.5s-70.5 -47.5 -116.5 -47.5s-85.167 15.833 -117.5 47.5s-48.5 70.5 -48.5 116.5z" />
    <glyph glyph-name="yacute" unicode="&#xfd;" horiz-adv-x="1153" 
d="M18 1059h328l232 -672l231 672h328l-611 -1581h-323l215 549zM455 1227l170 391h344l-277 -391h-237z" />
    <glyph glyph-name="thorn" unicode="&#xfe;" horiz-adv-x="1296" 
d="M147 -522v2113h306v-606c68 62.667 159.333 94 274 94c64 0 124.833 -11.667 182.5 -35s109.334 -57.166 155.001 -101.499s82 -102.166 109 -173.499s40.5 -151 40.5 -239c0 -90.667 -13.667 -172 -41 -244s-64.333 -130 -111 -174s-99.834 -77.5 -159.501 -100.5
s-123.5 -34.5 -191.5 -34.5c-110.667 0 -196.667 28.667 -258 86v-585h-306zM451 329.998c51.333 -66 120 -99.001 206 -99.001c70.667 0 129.667 25.833 177 77.5s71 125.5 71 221.5c0 94.667 -23.667 167.834 -71 219.501s-106.333 77.5 -177 77.5
c-86 0 -154.667 -32.667 -206 -98v-399z" />
    <glyph glyph-name="ydieresis" unicode="&#xff;" horiz-adv-x="1153" 
d="M18 1059h328l232 -672l231 672h328l-611 -1581h-323l215 549zM211 1391c0 44.667 16 83 48 115s70.667 48 116 48c46.667 0 86 -15.833 118 -47.5s48 -70.167 48 -115.5c0 -46 -16 -84.833 -48 -116.5s-71.333 -47.5 -118 -47.5c-45.333 0 -84 15.833 -116 47.5
s-48 70.5 -48 116.5zM610 1391c0 45.333 16.167 83.833 48.5 115.5s71.5 47.5 117.5 47.5s84.833 -15.833 116.5 -47.5s47.5 -70.167 47.5 -115.5c0 -46 -15.833 -84.833 -47.5 -116.5s-70.5 -47.5 -116.5 -47.5s-85.167 15.833 -117.5 47.5s-48.5 70.5 -48.5 116.5z" />
    <glyph glyph-name="OE" unicode="&#x152;" horiz-adv-x="2252" 
d="M86 768c0 114.667 20.167 221.002 60.5 319.002s95.833 181.167 166.5 249.5s155 121.666 253 159.999s203.667 57.5 317 57.5c176.667 0 331.667 -44.333 465 -133v111h802v-285h-479v-323h422v-279h-422v-360h481v-285h-804v115c-132 -90 -287 -135 -465 -135
c-151.333 0 -287.5 32.833 -408.5 98.5s-216 158.667 -285 279s-103.5 257.166 -103.5 410.499zM414 768.002c0 -147.333 43.5 -267.833 130.5 -361.5s199.167 -140.5 336.5 -140.5s249.5 46.833 336.5 140.5s130.5 214.167 130.5 361.5c0 146.667 -43.333 266.667 -130 360
s-199 140 -337 140c-136.667 0 -248.667 -46.667 -336 -140s-131 -213.333 -131 -360z" />
    <glyph glyph-name="oe" unicode="&#x153;" horiz-adv-x="1935" 
d="M84 530c0 107.333 25.001 203.168 75.001 287.501s117.167 149 201.5 194s177.166 67.5 278.499 67.5c156 0 286.333 -50.333 391 -151c96.667 100.667 219.667 151 369 151c165.333 0 286 -54.333 362 -163s101.333 -266 76 -472h-643
c2 -64.667 24.167 -117.334 66.5 -158.001s97.166 -61 164.499 -61c51.333 0 93.833 9.33301 127.5 28s64.5 46.334 92.5 83.001l190 -170c-44.667 -60.667 -103 -107.334 -175 -140.001s-151 -49 -237 -49c-78 0 -150.833 13 -218.5 39s-125.834 63.667 -174.501 113
c-50.667 -48.667 -109.667 -86.167 -177 -112.5s-138.666 -39.5 -213.999 -39.5c-101.333 0 -194.166 22.667 -278.499 68s-151.5 110.5 -201.5 195.5s-75 181.5 -75 289.5zM391.001 530.002c0 -88.667 23.167 -160.667 69.5 -216s105.166 -83 176.499 -83
c72 0 131.333 27.5 178 82.5s70 127.167 70 216.5c0 88 -23.333 159.5 -70 214.5s-106 82.5 -178 82.5c-71.333 0 -130.166 -27.5 -176.499 -82.5s-69.5 -126.5 -69.5 -214.5zM1194 643.002l352.001 0.000976562c1.33301 62 -12.334 111 -41.001 147s-69.667 54 -123 54
s-97 -18.833 -131 -56.5s-53 -85.834 -57 -144.501z" />
    <glyph glyph-name="Ydieresis" unicode="&#x178;" horiz-adv-x="1570" 
d="M25 1532h374l387 -645l388 645h374l-600 -965v-567h-321v567zM420 1800c0 45.333 16 84 48 116s70.667 48 116 48c46.667 0 86 -16 118 -48s48 -70.667 48 -116c0 -46.667 -15.833 -85.667 -47.5 -117s-71.167 -47 -118.5 -47c-45.333 0 -84 15.667 -116 47
s-48 70.333 -48 117zM819 1800c0 45.333 16.167 84 48.5 116s71.5 48 117.5 48s84.833 -16 116.5 -48s47.5 -70.667 47.5 -116c0 -46.667 -15.833 -85.667 -47.5 -117s-70.5 -47 -116.5 -47c-46.667 0 -86 15.667 -118 47s-48 70.333 -48 117z" />
    <glyph glyph-name="circumflex" unicode="&#x2c6;" horiz-adv-x="804" 
d="M16 1227l238 364h297l237 -364h-256l-129 164l-131 -164h-256z" />
    <glyph glyph-name="tilde" unicode="&#x2dc;" horiz-adv-x="788" 
d="M20 1237c-8 87.333 8.66992 163.169 50.0029 227.502s98.666 96.5 171.999 96.5c28.667 0 56.667 -5.66699 84 -17s49.666 -23.833 66.999 -37.5s36.833 -26.167 58.5 -37.5s41.834 -17 60.501 -17c56 0 84 31.333 84 94h174c7.33301 -87.333 -9.66699 -163 -51 -227
s-98.666 -96 -171.999 -96c-29.333 0 -57.833 5.66699 -85.5 17s-50.334 23.666 -68.001 36.999s-37.334 25.666 -59.001 36.999s-41.834 17 -60.501 17c-28 0 -49 -8.33301 -63 -25s-21 -39.667 -21 -69h-170z" />
    <glyph glyph-name="uni2000" unicode="&#x2000;" horiz-adv-x="1033" 
 />
    <glyph glyph-name="uni2001" unicode="&#x2001;" horiz-adv-x="2066" 
 />
    <glyph glyph-name="uni2002" unicode="&#x2002;" horiz-adv-x="1033" 
 />
    <glyph glyph-name="uni2003" unicode="&#x2003;" horiz-adv-x="2066" 
 />
    <glyph glyph-name="uni2004" unicode="&#x2004;" horiz-adv-x="688" 
 />
    <glyph glyph-name="uni2005" unicode="&#x2005;" horiz-adv-x="516" 
 />
    <glyph glyph-name="uni2006" unicode="&#x2006;" horiz-adv-x="344" 
 />
    <glyph glyph-name="uni2007" unicode="&#x2007;" horiz-adv-x="344" 
 />
    <glyph glyph-name="uni2008" unicode="&#x2008;" horiz-adv-x="258" 
 />
    <glyph glyph-name="uni2009" unicode="&#x2009;" horiz-adv-x="413" 
 />
    <glyph glyph-name="uni200A" unicode="&#x200a;" horiz-adv-x="114" 
 />
    <glyph glyph-name="uni2010" unicode="&#x2010;" horiz-adv-x="833" 
d="M92 393v287h649v-287h-649z" />
    <glyph glyph-name="uni2011" unicode="&#x2011;" horiz-adv-x="833" 
d="M92 393v287h649v-287h-649z" />
    <glyph glyph-name="figuredash" unicode="&#x2012;" horiz-adv-x="833" 
d="M92 393v287h649v-287h-649z" />
    <glyph glyph-name="endash" unicode="&#x2013;" horiz-adv-x="1161" 
d="M92 393v287h977v-287h-977z" />
    <glyph glyph-name="emdash" unicode="&#x2014;" horiz-adv-x="1636" 
d="M92 393v287h1452v-287h-1452z" />
    <glyph glyph-name="quoteleft" unicode="&#x2018;" horiz-adv-x="499" 
d="M76 1116l0.000976562 1.99805v2c2 206 107 363 315 471v-127c-72.667 -47.333 -117.667 -108.666 -135 -183.999c47.333 -4 87.166 -23.167 119.499 -57.5s48.5 -75.166 48.5 -122.499c0 -52 -16.667 -95.833 -50 -131.5s-76 -53.5 -128 -53.5
c-53.333 0 -95 18.5 -125 55.5s-45 85.5 -45 145.5z" />
    <glyph glyph-name="quoteright" unicode="&#x2019;" horiz-adv-x="499" 
d="M74 1407c0 51.333 16.833 94.832 50.5 130.499s76.167 53.5 127.5 53.5c53.333 0 95.333 -18.833 126 -56.5s46 -87.167 46 -148.5v-2c-2 -204.667 -108 -361 -318 -469v127c72 45.333 118 106.333 138 183c-47.333 3.33301 -87.5 22.333 -120.5 57
s-49.5 76.334 -49.5 125.001z" />
    <glyph glyph-name="quotesinglbase" unicode="&#x201a;" horiz-adv-x="499" 
d="M74 162c0 50.667 16.833 93.999 50.5 129.999s76.167 54 127.5 54c53.333 0 95.333 -18.833 126 -56.5s46 -86.5 46 -146.5v-2v-2c-2 -206 -108 -363 -318 -471v129c74.667 46.667 120.667 107.667 138 183c-47.333 3.33301 -87.5 22.333 -120.5 57
s-49.5 76.334 -49.5 125.001z" />
    <glyph glyph-name="quotedblleft" unicode="&#x201c;" horiz-adv-x="931" 
d="M72 1116v1.99902v2c2 206 107.667 363 317 471v-129c-74 -46 -119.667 -106.667 -137 -182c47.333 -3.33301 87.5 -22.166 120.5 -56.499s49.5 -75.5 49.5 -123.5c0 -52 -16.833 -96.167 -50.5 -132.5s-76.167 -54.5 -127.5 -54.5c-53.333 0 -95.333 18.833 -126 56.5
s-46 86.5 -46 146.5zM504 1116v1.99902v2c2 206 107.667 363 317 471v-129c-74 -46 -119.667 -106.667 -137 -182c47.333 -3.33301 87.5 -22.166 120.5 -56.499s49.5 -75.5 49.5 -123.5c0 -52 -16.833 -96.167 -50.5 -132.5s-76.167 -54.5 -127.5 -54.5
c-53.333 0 -95.333 18.833 -126 56.5s-46 86.5 -46 146.5z" />
    <glyph glyph-name="quotedblright" unicode="&#x201d;" horiz-adv-x="931" 
d="M70 1407c0 50.667 16.833 93.999 50.5 129.999s76.167 54 127.5 54c53.333 0 95.333 -18.667 126 -56s46 -86 46 -146v-3v-2c-2 -206 -108 -363 -318 -471v129c74.667 46.667 120.667 107.667 138 183c-47.333 3.33301 -87.5 22.333 -120.5 57
s-49.5 76.334 -49.5 125.001zM504 1407c0 50.667 16.833 93.999 50.5 129.999s76.167 54 127.5 54c53.333 0 95.333 -18.667 126 -56s46 -86 46 -146v-3v-2c-2 -206 -107.667 -363 -317 -471v129c74 46 119.667 107 137 183c-47.333 3.33301 -87.5 22.333 -120.5 57
s-49.5 76.334 -49.5 125.001z" />
    <glyph glyph-name="quotedblbase" unicode="&#x201e;" horiz-adv-x="931" 
d="M74 162c0 50.667 16.833 93.999 50.5 129.999s76.167 54 127.5 54c53.333 0 95.333 -18.833 126 -56.5s46 -86.5 46 -146.5v-2v-2c-2 -206 -108 -363 -318 -471v129c74.667 46.667 120.667 107.667 138 183c-47.333 3.33301 -87.5 22.333 -120.5 57
s-49.5 76.334 -49.5 125.001zM508 161.999c0 51.333 16.666 94.833 49.999 130.5s76 53.5 128 53.5c53.333 0 95 -18.833 125 -56.5s45 -86.5 45 -146.5v-2v-2c-2 -206 -107.667 -363 -317 -471v129c74 46 119.667 107 137 183c-47.333 4 -87.166 23.167 -119.499 57.5
s-48.5 75.833 -48.5 124.5z" />
    <glyph glyph-name="bullet" unicode="&#x2022;" horiz-adv-x="714" 
d="M98 522c0 71.333 25.167 132.166 75.5 182.499s111.833 75.5 184.5 75.5c71.333 0 132.166 -25.167 182.499 -75.5s75.5 -111.166 75.5 -182.499c0 -72.667 -25.167 -134.167 -75.5 -184.5s-111.166 -75.5 -182.499 -75.5c-72.667 0 -134.167 25.167 -184.5 75.5
s-75.5 111.833 -75.5 184.5z" />
    <glyph glyph-name="ellipsis" unicode="&#x2026;" horiz-adv-x="1611" 
d="M94 162c0 51.333 17.667 94.833 53 130.5s78.333 53.5 129 53.5c51.333 0 95.333 -18 132 -54s55 -79.333 55 -130s-18.333 -94.167 -55 -130.5s-80.667 -54.5 -132 -54.5c-50.667 0 -93.667 18 -129 54s-53 79.667 -53 131zM623 162c0 51.333 17.667 94.833 53 130.5
s78.333 53.5 129 53.5c51.333 0 95.166 -18 131.499 -54s54.5 -79.333 54.5 -130s-18.167 -94.167 -54.5 -130.5s-80.166 -54.5 -131.499 -54.5c-50.667 0 -93.667 18 -129 54s-53 79.667 -53 131zM1151 162c0 51.333 17.667 94.833 53 130.5s78.333 53.5 129 53.5
c51.333 0 95 -18 131 -54s54 -79.333 54 -130s-18 -94.167 -54 -130.5s-79.667 -54.5 -131 -54.5c-50.667 0 -93.667 18 -129 54s-53 79.667 -53 131z" />
    <glyph glyph-name="uni202F" unicode="&#x202f;" horiz-adv-x="413" 
 />
    <glyph glyph-name="guilsinglleft" unicode="&#x2039;" horiz-adv-x="696" 
d="M31 528l413 478l218 -193l-265 -285l265 -284l-218 -193z" />
    <glyph glyph-name="guilsinglright" unicode="&#x203a;" horiz-adv-x="696" 
d="M33 244l264 284l-264 285l219 193l412 -478l-412 -477z" />
    <glyph glyph-name="uni205F" unicode="&#x205f;" horiz-adv-x="516" 
 />
    <glyph glyph-name="Euro" unicode="&#x20ac;" horiz-adv-x="1404" 
d="M20 498l70.001 187.999h143c-1.33301 18 -2 44.667 -2 80l2 70h-213l70 188h168c38 168.667 112.5 299.167 223.5 391.5s248.167 138.5 411.5 138.5c90 0 167 -10.5 231 -31.5s127 -53.5 189 -97.5l-101 -268c-84.667 74 -186.334 111 -305.001 111
c-76 0 -140.333 -21 -193 -63s-92 -102.333 -118 -181h563l-72 -188h-524c-1.33301 -15.333 -2 -38.666 -2 -69.999c0 -35.333 0.666992 -62 2 -80h467l-69 -188h-361c55.333 -156 157.666 -234 306.999 -234c110 0 209 36.333 297 109l135 -269
c-69.333 -44.667 -137.666 -77 -204.999 -97s-149 -30 -245 -30c-162 0 -297.5 45.5 -406.5 136.5s-183.167 219.167 -222.5 384.5h-240z" />
    <glyph glyph-name="trademark" unicode="&#x2122;" horiz-adv-x="1851" 
d="M41 1290v242h698v-242h-239v-493h-224v493h-235zM844 797v735h248l204 -406l205 406h248v-735h-225v370l-172 -370h-111l-174 370v-370h-223z" />
    <glyph glyph-name="uni25FC" unicode="&#x25fc;" horiz-adv-x="1054" 
d="M0 0v1055h1055v-1055h-1055z" />
    <glyph glyph-name="glyph1" horiz-adv-x="0" 
 />
    <glyph glyph-name="glyph2" horiz-adv-x="682" 
 />
    </font>
</defs>
</svg>
