<?xml version="1.0" standalone="no"?>
<!DOCTYPE svg PUBLIC "-//W3C//DTD SVG 1.1//EN" "http://www.w3.org/Graphics/SVG/1.1/DTD/svg11.dtd" >
<svg>
<metadata>
Created by FontForge 20090914 at Wed Dec 28 13:59:45 2016
 By www-data
Copyright &#194;&#169; 2013 by Type Dynamic. All rights reserved.
</metadata>
<defs>
<font id="Lasiver-Light" horiz-adv-x="1050" >
  <font-face 
    font-family="Lasiver Light"
    font-weight="300"
    font-stretch="normal"
    units-per-em="2048"
    panose-1="0 0 4 0 0 0 0 0 0 0"
    ascent="1536"
    descent="-512"
    x-height="1036"
    cap-height="1532"
    bbox="-287 -541 2288 2005"
    underline-thickness="102"
    underline-position="-204"
    unicode-range="U+000D-U+FB02"
  />
<missing-glyph horiz-adv-x="748" 
d="M68 0v1365h544v-1365h-544zM136 68h408v1229h-408v-1229z" />
    <glyph glyph-name="uniFB01" unicode="fi" horiz-adv-x="1120" 
d="M37 932v104h209v205c0 120.667 31.667 212 95 274s148.333 93 255 93c116.667 0 217.667 -34.333 303 -103l-45 -98c-69.333 62.667 -154 94 -254 94c-71.333 0 -128.333 -23 -171 -69s-64 -111.667 -64 -197v-199h561v-1036h-119v932h-442v-932h-119v932h-209z" />
    <glyph glyph-name="uniFB02" unicode="fl" horiz-adv-x="1171" 
d="M37 932l-0.000976562 104h209v203c0 121.333 28.667 212.5 86 273.5s138.333 91.5 243 91.5c48.667 0 88.334 -6.33301 119.001 -19l-16 -106c-28.667 10.667 -62 16 -100 16c-66 0 -117.667 -21 -155 -63s-56 -107 -56 -195v-201h295v-104h-295v-932h-121v932h-209z
M857.999 0v1591h119v-1591h-119z" />
    <glyph glyph-name=".notdef" horiz-adv-x="748" 
d="M68 0v1365h544v-1365h-544zM136 68h408v1229h-408v-1229z" />
    <glyph glyph-name="uni000D" unicode="&#xd;" horiz-adv-x="1228" 
 />
    <glyph glyph-name="space" unicode=" " horiz-adv-x="491" 
 />
    <glyph glyph-name="exclam" unicode="!" horiz-adv-x="528" 
d="M172 74c0 25.333 8.83301 47 26.5 65s38.834 27 63.501 27c27.333 0 50.166 -8.83301 68.499 -26.5s27.5 -39.5 27.5 -65.5s-9.16699 -47.833 -27.5 -65.5s-41.166 -26.5 -68.499 -26.5c-24.667 0 -45.834 9 -63.501 27s-26.5 39.667 -26.5 65zM195 1532h137l-4 -1143
h-125z" />
    <glyph glyph-name="quotedbl" unicode="&#x22;" horiz-adv-x="595" 
d="M96 1507h137l-18 -420h-102zM360 1507h138l-17 -420h-102z" />
    <glyph glyph-name="numbersign" unicode="#" horiz-adv-x="1269" 
d="M18 442l23 97h262l111 452h-279l23 96h278l107 445h100l-106 -445h350l106 445h99l-107 -445h266l-24 -96h-264l-109 -452h283l-23 -97h-283l-106 -442h-98l106 442h-350l-107 -442h-102l109 442h-265zM403 539h351l108 452h-350z" />
    <glyph glyph-name="dollar" unicode="$" horiz-adv-x="1140" 
d="M92 285l113 52.998c78 -161.333 202.333 -242 373 -242c91.333 0 166 26.5 224 79.5s87 130.5 87 232.5c0 27.333 -2.66699 52.333 -8 75s-12.166 42.5 -20.499 59.5s-20.833 33.333 -37.5 49s-32.334 28.834 -47.001 39.501s-35.334 22.167 -62.001 34.5
s-50.167 22.5 -70.5 30.5l-82.5 31c-70.667 25.333 -128.5 49 -173.5 71s-86.5 48.833 -124.5 80.5s-65.667 68.334 -83 110.001s-26 90.5 -26 146.5c0 114.667 32.167 209 96.5 283s153.5 117.333 267.5 130v224h100v-224c176 -10 299.667 -98 371 -264l-115 -43
c-58 130 -158.333 195 -301 195c-88.667 0 -159.167 -26.667 -211.5 -80s-78.5 -124.333 -78.5 -213c0 -34.667 5.33301 -65.667 16 -93s24.5 -50.666 41.5 -69.999s41.833 -38.333 74.5 -57s64.334 -34.334 95.001 -47.001s71.667 -28.334 123 -47.001
c53.333 -19.333 97.5 -37.166 132.5 -53.499s69.667 -36.166 104 -59.499s61.333 -48.333 81 -75s35.5 -58.834 47.5 -96.501s18 -80.5 18 -128.5c0 -130 -36.5 -232.833 -109.5 -308.5s-169.167 -117.5 -288.5 -125.5v-224h-100v224c-194.667 16 -336.667 117 -426 303z
" />
    <glyph glyph-name="percent" unicode="%" horiz-adv-x="1732" 
d="M82 1194c0 104.667 33.5 190.167 100.5 256.5s148.167 99.5 243.5 99.5c96.667 0 178.167 -33 244.5 -99s99.5 -151.667 99.5 -257c0 -104 -33.333 -189 -100 -255s-148 -99 -244 -99c-95.333 0 -176.5 33 -243.5 99s-100.5 151 -100.5 255zM178 1194
c0 -77.333 24 -140.666 72 -189.999s106.667 -74 176 -74c70 0 129.167 24.667 177.5 74s72.5 112.666 72.5 189.999c0 78 -24.167 141.5 -72.5 190.5s-107.5 73.5 -177.5 73.5c-69.333 0 -128 -24.5 -176 -73.5s-72 -112.5 -72 -190.5zM250 0l1114 1532h119l-1114 -1532
h-119zM961 338c0 104 33.5 189 100.5 255s148.833 99 245.5 99c95.333 0 176.166 -33 242.499 -99s99.5 -151 99.5 -255c0 -105.333 -33.167 -191 -99.5 -257s-147.166 -99 -242.499 -99c-96.667 0 -178.5 33 -245.5 99s-100.5 151.667 -100.5 257zM1055 338
c0 -78 24.167 -141.5 72.5 -190.5s107.5 -73.5 177.5 -73.5c69.333 0 128.166 24.5 176.499 73.5s72.5 112.5 72.5 190.5c0 77.333 -24.167 140.666 -72.5 189.999s-107.166 74 -176.499 74c-70 0 -129.167 -24.667 -177.5 -74s-72.5 -112.666 -72.5 -189.999z" />
    <glyph glyph-name="ampersand" unicode="&#x26;" horiz-adv-x="1411" 
d="M90 389c0 42.667 5.66602 82.502 16.999 119.502s25.666 69.5 42.999 97.5s41.5 56.167 72.5 84.5s61.333 53 91 74s67.167 45.5 112.5 73.5c-46.667 45.333 -84 84.166 -112 116.499s-53.167 71.833 -75.5 118.5s-33.5 93 -33.5 139c0 105.333 35 188 105 248
s157.667 90 263 90c102 0 189 -30.5 261 -91.5s108 -140.833 108 -239.5c0 -36 -6.33301 -70.333 -19 -103s-28.167 -61.167 -46.5 -85.5s-43.5 -49.5 -75.5 -75.5s-61.167 -47.667 -87.5 -65s-60.166 -38.333 -101.499 -63c15.333 -13.333 38 -35 68 -65l344 -350
c64.667 106 121.334 230.667 170.001 374l115 -36c-62 -172.667 -129 -314 -201 -424l319 -326h-172l-221 225c-132 -160.667 -292.333 -241 -481 -241c-136 0 -247.167 36.667 -333.5 110s-129.5 171.666 -129.5 294.999zM214.999 391.002
c0 -93.333 31.832 -165.501 95.499 -216.501s145.167 -76.5 244.5 -76.5c151.333 0 284.333 70.333 399 211l-376 385c-15.333 16 -39.333 39.333 -72 70c-51.333 -32 -92.333 -59.167 -123 -81.5s-60.167 -48.5 -88.5 -78.5s-48.666 -62.167 -60.999 -96.5
s-18.5 -73.166 -18.5 -116.499zM329.998 1206c0 -51.333 17.168 -100.498 51.501 -147.498s84.5 -99.5 150.5 -157.5c48 27.333 85.5 50 112.5 68s55.667 40.167 86 66.5s52.333 53.666 66 81.999s20.5 59.166 20.5 92.499c0 68 -24.5 123 -73.5 165s-105.833 63 -170.5 63
c-68.667 0 -126.334 -20.167 -173.001 -60.5s-70 -97.5 -70 -171.5z" />
    <glyph glyph-name="quotesingle" unicode="'" horiz-adv-x="331" 
d="M96 1507h137l-16 -420h-102z" />
    <glyph glyph-name="parenleft" unicode="(" horiz-adv-x="481" 
d="M86 655c0 160 23 311.168 69 453.501s105.667 267.833 179 376.5l102 -39c-68.667 -106 -124.334 -226.333 -167.001 -361s-64 -278 -64 -430c0 -151.333 21.333 -293.833 64 -427.5s98.334 -253.834 167.001 -360.501l-102 -39c-73.333 107.333 -133 232 -179 374
s-69 293 -69 453z" />
    <glyph glyph-name="parenright" unicode=")" horiz-adv-x="481" 
d="M45 -133c156 240.667 233.999 503.335 233.999 788.002c0 151.333 -21.667 294.166 -65 428.499s-99.666 255.166 -168.999 362.499l102 39c73.333 -108.667 133 -234.167 179 -376.5s69 -293.5 69 -453.5s-23 -311 -69 -453s-105.667 -266.667 -179 -374z" />
    <glyph glyph-name="asterisk" unicode="*" horiz-adv-x="647" 
d="M25 1300l22 70l242 -82v256h69l-2 -256l242 82l25 -70l-244 -75l151 -207l-57 -43l-149 207l-150 -207l-57 43l151 207z" />
    <glyph glyph-name="plus" unicode="+" horiz-adv-x="1118" 
d="M68 702v107h432v428h116v-428h431v-107h-431v-440h-116v440h-432z" />
    <glyph glyph-name="comma" unicode="," horiz-adv-x="387" 
d="M88 -236c70 56.667 107.001 129.997 111.001 219.997h-4c-24.667 0 -45.667 8.83301 -63 26.5s-26 38.834 -26 63.501s8.16699 45.834 24.5 63.501s37.166 26.5 62.499 26.5c26.667 0 47.667 -9.83301 63 -29.5s23 -45.5 23 -77.5v-4
c0 -151.333 -63.667 -266.666 -191 -345.999v57z" />
    <glyph glyph-name="hyphen" unicode="-" horiz-adv-x="821" 
d="M92 479v113h637v-113h-637z" />
    <glyph glyph-name="period" unicode="." horiz-adv-x="391" 
d="M104 74c0 25.333 9 47 27 65s39.333 27 64 27c26.667 0 49 -9 67 -27s27 -39.667 27 -65s-9 -47 -27 -65s-40.333 -27 -67 -27c-24.667 0 -46 9 -64 27s-27 39.667 -27 65z" />
    <glyph glyph-name="slash" unicode="/" horiz-adv-x="694" 
d="M25 -137l522 1669h125l-522 -1669h-125z" />
    <glyph glyph-name="zero" unicode="0" horiz-adv-x="1312" 
d="M121 766c0 248.667 48.5 441.5 145.5 578.5s226.5 205.5 388.5 205.5c164.667 0 295.334 -68.667 392.001 -206s145 -330 145 -578c0 -249.333 -48.333 -442.333 -145 -579s-227.334 -205 -392.001 -205c-164 0 -294 68.333 -390 205s-144 329.667 -144 579zM248 766
c0 -214 36.502 -379.167 109.502 -495.5s172.167 -174.5 297.5 -174.5s224.666 58.167 297.999 174.5s110 281.5 110 495.5c0 213.333 -36.333 378.333 -109 495s-172.334 175 -299.001 175s-226.167 -58.333 -298.5 -175s-108.5 -281.667 -108.5 -495z" />
    <glyph glyph-name="one" unicode="1" horiz-adv-x="747" 
d="M63 1178v129l386 225h100v-1532h-123v1386z" />
    <glyph glyph-name="two" unicode="2" horiz-adv-x="1097" 
d="M88 1311c100 159.333 250.331 238.999 450.998 238.999c130.667 0 235.334 -39 314.001 -117s118 -183.667 118 -317c0 -75.333 -12.667 -149.166 -38 -221.499s-52.833 -134.666 -82.5 -186.999s-80.167 -116 -151.5 -191s-128.666 -132.5 -171.999 -172.5l-217 -192
l-42 -37h725v-115h-901v104c192 164.667 322.333 280.334 391 347.001c154 149.333 257.333 284.666 310 405.999c35.333 81.333 53 163.666 53 246.999c0 100 -29 180.333 -87 241s-133.667 91 -227 91c-161.333 0 -282 -68.333 -362 -205z" />
    <glyph glyph-name="three" unicode="3" 
d="M41 205l82.002 80c39.333 -64 86.666 -111.5 141.999 -142.5s126 -46.5 212 -46.5c100.667 0 183.5 29.833 248.5 89.5s97.5 139.167 97.5 238.5c0 101.333 -35.667 180.166 -107 236.499s-163.333 84.5 -276 84.5h-129v111h121c96 0 176.333 25.833 241 77.5
s97 120.834 97 207.501c0 89.333 -27.5 160.833 -82.5 214.5s-127.833 80.5 -218.5 80.5c-142.667 0 -252.667 -63 -330 -189l-78 80c97.333 148.667 233.333 223 408 223c130 0 233.5 -36.5 310.5 -109.5s115.5 -171.5 115.5 -295.5c0 -85.333 -22.167 -157.333 -66.5 -216
s-100.833 -100 -169.5 -124c86 -24.667 155.667 -70 209 -136s80 -148.333 80 -247c0 -133.333 -43.333 -240 -130 -320s-199 -120 -337 -120c-102.667 0 -188.834 18.5 -258.501 55.5s-130.167 92.833 -181.5 167.5z" />
    <glyph glyph-name="four" unicode="4" horiz-adv-x="1214" 
d="M61 414v96l431 1022h133l-428 -1004h536v449h125v-449h309v-114h-309v-414h-125v414h-672z" />
    <glyph glyph-name="five" unicode="5" horiz-adv-x="1134" 
d="M121 205l82.001 80.001c39.333 -64 87 -111.5 143 -142.5s127.667 -46.5 215 -46.5c104 0 187.667 32.333 251 97s95 152 95 262c0 113.333 -33.5 201.666 -100.5 264.999s-155.5 95 -265.5 95c-55.333 0 -102.5 -5.16699 -141.5 -15.5s-80.167 -27.5 -123.5 -51.5h-92
v784h785v-115h-658v-536c71.333 31.333 150.666 47 237.999 47c140.667 0 256.667 -41.833 348 -125.5s137 -197.5 137 -341.5c0 -147.333 -43.167 -264 -129.5 -350s-199.5 -129 -339.5 -129c-104 0 -191.5 18.667 -262.5 56s-131.5 93 -181.5 167z" />
    <glyph glyph-name="six" unicode="6" horiz-adv-x="1185" 
d="M121 719c0 266 44.834 470.999 134.501 614.999s218.834 216 387.501 216c86.667 0 161.834 -15.667 225.501 -47s121.5 -79.666 173.5 -144.999l-69 -86c-42.667 55.333 -89.834 96.5 -141.501 123.5s-114.5 40.5 -188.5 40.5
c-128.667 0 -226.334 -55.5 -293.001 -166.5s-100 -271.5 -100 -481.5v-34c40.667 54 92.667 96.5 156 127.5s133.333 46.5 210 46.5c140.667 0 254 -42 340 -126s129 -199 129 -345s-41.333 -261.667 -124 -347s-197.667 -128 -345 -128c-170.667 0 -296.667 58 -378 174
c-44.667 64.667 -75.334 135.667 -92.001 213s-25 194 -25 350zM258.001 415.999c8 -78.667 34 -146.333 78 -203c60.667 -78 152 -117 274 -117c110.667 0 196.334 32.5 257.001 97.5s91 153.5 91 265.5c0 113.333 -32.167 201.333 -96.5 264s-149.5 94 -255.5 94
c-110.667 0 -200.334 -38.5 -269.001 -115.5s-95 -172.167 -79 -285.5z" />
    <glyph glyph-name="seven" unicode="7" horiz-adv-x="1083" 
d="M55 1417v115h989v-84l-800 -1448h-140l789 1417h-838z" />
    <glyph glyph-name="eight" unicode="8" horiz-adv-x="1210" 
d="M119 424c0 102 24.668 186.001 74.001 252.001s114 111 194 135c-70 23.333 -125 64.5 -165 123.5s-60 132.5 -60 220.5c0 114.667 40.833 209.167 122.5 283.5s188.167 111.5 319.5 111.5c132 0 238.833 -37 320.5 -111s122.5 -168.667 122.5 -284
c0 -87.333 -20.667 -161 -62 -221s-96 -101 -164 -123c80.667 -24.667 145.667 -70.334 195 -137.001s74 -150 74 -250c0 -131.333 -42.833 -237.833 -128.5 -319.5s-204.834 -122.5 -357.501 -122.5c-153.333 0 -272.5 40.667 -357.5 122s-127.5 188 -127.5 320z
M246.001 428.001c0 -101.333 31.667 -181.999 95 -241.999s151 -90 263 -90c113.333 0 201.5 30 264.5 90s94.5 140.667 94.5 242c0 102 -32.5 181.5 -97.5 238.5s-152.167 85.5 -261.5 85.5c-110 0 -197.167 -28.833 -261.5 -86.5s-96.5 -136.834 -96.5 -237.501z
M289.001 1151c0 -87.333 27.3311 -157.333 81.998 -210s132.334 -79 233.001 -79c101.333 0 179.666 26.833 234.999 80.5s83 123.167 83 208.5c0 86.667 -29.667 155.834 -89 207.501s-135.666 77.5 -228.999 77.5s-169.166 -26.333 -227.499 -79
s-87.5 -121.334 -87.5 -206.001z" />
    <glyph glyph-name="nine" unicode="9" horiz-adv-x="1185" 
d="M121 1075c0 146 41.333 261.668 124 347.001s197.667 128 345 128c84 0 158.333 -15 223 -45s116.667 -73 156 -129c44.667 -64.667 75.167 -135.667 91.5 -213s24.5 -194 24.5 -350c0 -266 -44.833 -471 -134.5 -615s-218.834 -216 -387.501 -216
c-86.667 0 -161.834 15.667 -225.501 47s-121.5 79.666 -173.5 144.999l69 86c42.667 -55.333 89.834 -96.5 141.501 -123.5s114.5 -40.5 188.5 -40.5c128.667 0 226.334 55.333 293.001 166s100 271 100 481v35c-40.667 -54 -92.667 -96.5 -156 -127.5
s-133.333 -46.5 -210 -46.5c-140.667 0 -254 42 -340 126s-129 199 -129 345zM248 1073c0 -113.333 32.167 -201.334 96.5 -264.001s149.5 -94 255.5 -94c110.667 0 200.334 38.5 269.001 115.5s95 172.167 79 285.5c-8 78.667 -34 146.334 -78 203.001
c-60.667 78 -152 117 -274 117c-110.667 0 -196.334 -32.5 -257.001 -97.5s-91 -153.5 -91 -265.5z" />
    <glyph glyph-name="colon" unicode=":" horiz-adv-x="391" 
d="M104 74c0 25.333 9 47 27 65s39.333 27 64 27c26.667 0 49.334 -9 68.001 -27s28 -39.667 28 -65s-9.33301 -47 -28 -65s-41.334 -27 -68.001 -27c-24.667 0 -46 9 -64 27s-27 39.667 -27 65zM104 963c0 25.333 9 47.001 27 65.001s39.333 27 64 27
c26.667 0 49 -9 67 -27s27 -39.667 27 -65c0 -26.667 -9 -48.834 -27 -66.501s-40.333 -26.5 -67 -26.5c-24.667 0 -46 9 -64 27s-27 40 -27 66z" />
    <glyph glyph-name="semicolon" unicode=";" horiz-adv-x="391" 
d="M88 -236c69.333 56 107.001 129.332 113.001 219.999h-6c-23.333 0 -44 9 -62 27s-27 39 -27 63c0 24.667 8.16699 45.834 24.5 63.501s37.166 26.5 62.499 26.5c28 0 49.667 -9.83301 65 -29.5s23 -45.5 23 -77.5v-2v-2c0 -150.667 -64.333 -266 -193 -346v57z
M104.001 962.999c0 25.333 9 47.001 27 65.001s39.333 27 64 27c26.667 0 49 -9 67 -27s27 -39.667 27 -65c0 -26.667 -9 -48.834 -27 -66.501s-40.333 -26.5 -67 -26.5c-24.667 0 -46 9 -64 27s-27 40 -27 66z" />
    <glyph glyph-name="less" unicode="&#x3c;" horiz-adv-x="1042" 
d="M55 756l914 440l4 -131l-680 -309l680 -307l-4 -136z" />
    <glyph glyph-name="equal" unicode="=" horiz-adv-x="1118" 
d="M68 453v110h979v-110h-979zM68 940v111h979v-111h-979z" />
    <glyph glyph-name="greater" unicode="&#x3e;" horiz-adv-x="1042" 
d="M68 449l682 307l-682 309l6 131l913 -440l-913 -443z" />
    <glyph glyph-name="question" unicode="?" horiz-adv-x="960" 
d="M47 1311c100.667 160.667 243.999 241.002 429.999 241.002c126.667 0 231.334 -38.333 314.001 -115s124 -174.667 124 -294c0 -61.333 -9.83301 -116.833 -29.5 -166.5s-45 -92 -76 -127s-70.833 -70.5 -119.5 -106.5c-72 -52.667 -120 -96.334 -144 -131.001
s-36 -85 -36 -151c0 -14.667 1.33301 -38.667 4 -72h-125c-2.66699 38.667 -4 64 -4 76c0 52 8 97.5 24 136.5s37.333 72.667 64 101s65.667 61.833 117 100.5c68 50.667 118 100.667 150 150s48 110.666 48 183.999c0 89.333 -29.5 161.5 -88.5 216.5
s-135.833 82.5 -230.5 82.5c-146.667 0 -260 -67.667 -340 -203zM355.999 74.002c0 25.333 9.16699 47 27.5 65s40.166 27 65.499 27c26.667 0 49 -9 67 -27s27 -39.667 27 -65s-9 -47 -27 -65s-40.333 -27 -67 -27c-25.333 0 -47.166 9 -65.499 27s-27.5 39.667 -27.5 65z
" />
    <glyph glyph-name="at" unicode="@" horiz-adv-x="1667" 
d="M106 502c0 137.333 31.165 261.334 93.498 372.001s149 197.167 260 259.5s235.833 93.5 374.5 93.5c137.333 0 261.333 -31.167 372 -93.5s197.167 -148.833 259.5 -259.5s93.5 -234.667 93.5 -372c0 -131.333 -26 -231.833 -78 -301.5s-119.667 -104.5 -203 -104.5
c-92.667 0 -152 35.667 -178 107c-77.333 -79.333 -173.666 -119 -288.999 -119c-51.333 0 -99.5 8.5 -144.5 25.5s-85.667 42.167 -122 75.5s-65.166 77.666 -86.499 132.999s-32 118 -32 188c0 70.667 10.667 133.667 32 189s50.166 99.5 86.499 132.5s77 58 122 75
s93.167 25.5 144.5 25.5c114.667 0 205.334 -37 272.001 -111v96h95v-620c0 -36.667 9.66699 -65 29 -85s47.666 -30 84.999 -30c54 0 98.333 27.667 133 83s52 135.666 52 240.999c0 123.333 -27.5 234.166 -82.5 332.499s-131.5 175 -229.5 230s-208.333 82.5 -331 82.5
c-124 0 -235 -27.5 -333 -82.5s-174.333 -131.667 -229 -230s-82 -209.166 -82 -332.499c0 -124.667 27.833 -236 83.5 -334s131.834 -173.667 228.501 -227s205 -80 325 -80c80 0 150 8.83301 210 26.5s117.667 44.834 173 81.501l29 -73
c-59.333 -38 -121.5 -66.333 -186.5 -85s-140.167 -28 -225.5 -28c-135.333 0 -257.833 30.5 -367.5 91.5s-196 146.5 -259 256.5s-94.5 233.667 -94.5 371zM523.998 506.001c0 -57.333 8.49902 -108.167 25.499 -152.5s40.167 -79.666 69.5 -105.999
s61.666 -46.166 96.999 -59.499s73 -20 113 -20c106 0 190.667 37.667 254 113v446c-35.333 40.667 -71.666 70 -108.999 88s-85.666 27 -144.999 27c-39.333 0 -76.833 -6.83301 -112.5 -20.5s-68.167 -33.834 -97.5 -60.501s-52.5 -61.834 -69.5 -105.501
s-25.5 -93.5 -25.5 -149.5z" />
    <glyph glyph-name="A" unicode="A" horiz-adv-x="1550" 
d="M59 0l652 1532h131l649 -1532h-135l-209 483h-744l-206 -483h-138zM449 598h655l-328 768z" />
    <glyph glyph-name="B" unicode="B" horiz-adv-x="1212" 
d="M199 0l-0.000976562 1532h393c134.667 0 241.334 -34.333 320.001 -103s118 -166.667 118 -294c0 -87.333 -17.833 -160.333 -53.5 -219s-81.167 -99 -136.5 -121c71.333 -20.667 128.333 -62.834 171 -126.501s64 -146.5 64 -248.5c0 -138 -41.667 -242.5 -125 -313.5
s-196 -106.5 -338 -106.5h-413zM325.999 115.001h278c107.333 0 191.5 26.167 252.5 78.5s91.5 128.5 91.5 228.5c0 206 -106.333 309 -319 309h-303v-616zM325.999 844.001h295c90.667 0 160 23.833 208 71.5s72 119.167 72 214.5c0 94.667 -27.5 166.167 -82.5 214.5
s-131.833 72.5 -230.5 72.5h-262v-573z" />
    <glyph glyph-name="C" unicode="C" horiz-adv-x="1536" 
d="M121 766c0 114.667 20.333 221.497 61 320.497s95.5 182 164.5 249s149.667 119.5 242 157.5s189.833 57 292.5 57c254.667 0 448.334 -93.333 581.001 -280l-92 -72c-112 158.667 -275 238 -489 238c-86 0 -167.5 -16.167 -244.5 -48.5s-144 -77.166 -201 -134.499
s-102.167 -128.166 -135.5 -212.499s-50 -175.833 -50 -274.5c0 -98 16.667 -189 50 -273s78.5 -154.667 135.5 -212s124 -102.166 201 -134.499s158.5 -48.5 244.5 -48.5c214.667 0 377.667 80 489 240l92 -74c-132.667 -186.667 -326.334 -280 -581.001 -280
c-102.667 0 -200.167 19 -292.5 57s-173 90.5 -242 157.5s-123.833 149.667 -164.5 248s-61 204.833 -61 319.5z" />
    <glyph glyph-name="D" unicode="D" horiz-adv-x="1626" 
d="M199 0v1532h514c82.667 0 162.334 -10 239.001 -30s148.5 -50.833 215.5 -92.5s125.333 -92.167 175 -151.5s88.834 -131.166 117.501 -215.499s43 -176.5 43 -276.5c0 -100.667 -14.333 -193.167 -43 -277.5s-67.834 -156.166 -117.501 -215.499
s-108 -109.833 -175 -151.5s-138.833 -72.334 -215.5 -92.001s-156.334 -29.5 -239.001 -29.5h-514zM326 114.999h387c68 0 133.833 8.16699 197.5 24.5s123.834 42 180.501 77s106 77.5 148 127.5s75.333 111.167 100 183.5s37 151.833 37 238.5s-12.333 166.167 -37 238.5
s-58 133.5 -100 183.5s-91.333 92.5 -148 127.5s-116.834 60.667 -180.501 77s-129.5 24.5 -197.5 24.5h-387v-1302z" />
    <glyph glyph-name="E" unicode="E" horiz-adv-x="1021" 
d="M199 0v1532h745v-115h-618v-567h563v-113h-563v-622h620v-115h-747z" />
    <glyph glyph-name="F" unicode="F" horiz-adv-x="987" 
d="M199 0v1532h731v-115h-604v-579h524v-115h-524v-723h-127z" />
    <glyph glyph-name="G" unicode="G" horiz-adv-x="1619" 
d="M121 766c0 92 13.001 179.331 39.001 261.998s62.5 155.334 109.5 218.001s101.833 117 164.5 163s132 81 208 105s155 36 237 36c254 0 446.333 -93.333 577 -280l-90 -72c-110.667 158.667 -272.334 238 -485.001 238c-86.667 0 -168.667 -16.167 -246 -48.5
s-144.333 -77.333 -201 -135s-101.5 -128.5 -134.5 -212.5s-49.5 -175.333 -49.5 -274c0 -98 16.667 -189 50 -273s78.5 -154.667 135.5 -212s124 -102.166 201 -134.499s158.5 -48.5 244.5 -48.5c199.333 0 353.333 62.333 462 187v354h-423v115h546v-518
c-66.667 -82 -149.667 -144.5 -249 -187.5s-211.333 -64.5 -336 -64.5c-102.667 0 -200.167 19 -292.5 57s-173 90.5 -242 157.5s-123.833 149.667 -164.5 248s-61 204.833 -61 319.5z" />
    <glyph glyph-name="H" unicode="H" horiz-adv-x="1589" 
d="M199 0v1532h127v-676h940v676h123v-1532h-123v741h-940v-741h-127z" />
    <glyph glyph-name="I" unicode="I" horiz-adv-x="524" 
d="M199 0v1532h127v-1532h-127z" />
    <glyph glyph-name="J" unicode="J" horiz-adv-x="1026" 
d="M27 305l119.999 27c48 -157.333 144.333 -236 289 -236c80 0 146.167 27.167 198.5 81.5s78.5 127.5 78.5 219.5v1135h123v-1120c0 -134.667 -37.833 -240 -113.5 -316s-171.167 -114 -286.5 -114c-213.333 0 -349.666 107.667 -408.999 323z" />
    <glyph glyph-name="K" unicode="K" horiz-adv-x="1380" 
d="M199 0v1532h127v-852l788 852h160l-617 -678l680 -854h-153l-615 760l-243 -258v-502h-127z" />
    <glyph glyph-name="L" unicode="L" horiz-adv-x="1042" 
d="M199 0v1532h127v-1417h647v-115h-774z" />
    <glyph glyph-name="M" unicode="M" horiz-adv-x="2029" 
d="M199 0v1532h127l690 -1352l686 1352h127v-1532h-127v1264l-643 -1264h-90l-643 1264v-1264h-127z" />
    <glyph glyph-name="N" unicode="N" horiz-adv-x="1589" 
d="M199 0v1532h118l949 -1311v1311h123v-1532h-119l-944 1313v-1313h-127z" />
    <glyph glyph-name="O" unicode="O" horiz-adv-x="1787" 
d="M121 766c0 116 20 223.167 60 321.5s94.667 181.166 164 248.499s151.333 119.833 246 157.5s196 56.5 304 56.5c107.333 0 208.166 -18.833 302.499 -56.5s176.166 -90.167 245.499 -157.5s124 -150.166 164 -248.499s60 -205.5 60 -321.5
c0 -115.333 -20.167 -222.166 -60.5 -320.499s-95.166 -181 -164.499 -248s-151.166 -119.333 -245.499 -157s-194.833 -56.5 -301.5 -56.5c-108 0 -209.333 18.833 -304 56.5s-176.667 90 -246 157s-124 149.667 -164 248s-60 205.166 -60 320.499zM248 766
c0 -98.667 16.832 -190 50.499 -274s79.334 -154.667 137.001 -212s126 -102 205 -134s163.167 -48 252.5 -48s173.5 16 252.5 48s147.667 76.667 206 134s104.333 128 138 212s50.5 175.333 50.5 274s-16.833 190 -50.5 274s-79.5 154.833 -137.5 212.5
s-126.5 102.667 -205.5 135s-163.5 48.5 -253.5 48.5s-174.5 -16.167 -253.5 -48.5s-147.333 -77.333 -205 -135s-103.167 -128.5 -136.5 -212.5s-50 -175.333 -50 -274z" />
    <glyph glyph-name="P" unicode="P" horiz-adv-x="1165" 
d="M199 0v1532h393c146.667 0 264.167 -37.667 352.5 -113s132.5 -184.333 132.5 -327c0 -144 -44.167 -253.833 -132.5 -329.5s-205.833 -113.5 -352.5 -113.5h-266v-649h-127zM326 764h260c109.333 0 197.333 27.833 264 83.5s100 137.167 100 244.5
c0 106.667 -33.333 187.5 -100 242.5s-154.667 82.5 -264 82.5h-260v-653z" />
    <glyph glyph-name="Q" unicode="Q" horiz-adv-x="1787" 
d="M121 766c0 116 19.998 223.168 59.998 321.501s94.667 181.166 164 248.499s151.333 119.833 246 157.5s196 56.5 304 56.5s209.333 -18.833 304 -56.5s176.667 -90.167 246 -157.5s124 -150.166 164 -248.499s60 -205.5 60 -321.5c0 -132 -25.667 -251.667 -77 -359
s-122.666 -196 -213.999 -266l303 -387h-157l-250 320c-118.667 -60 -245 -90 -379 -90c-107.333 0 -208.333 18.833 -303 56.5s-176.667 90 -246 157s-124.166 149.667 -164.499 248s-60.5 205.166 -60.5 320.499zM247.998 766.001
c0 -98.667 16.833 -190.001 50.5 -274.001s79.334 -154.667 137.001 -212s126 -102 205 -134s163.167 -48 252.5 -48c111.333 0 213 24 305 72l-283 362l99 78l291 -372c73.333 60 130.833 135.333 172.5 226s62.5 191.334 62.5 302.001c0 98.667 -16.833 190 -50.5 274
s-79.5 154.833 -137.5 212.5s-126.5 102.667 -205.5 135s-163.5 48.5 -253.5 48.5c-89.333 0 -173.5 -16.167 -252.5 -48.5s-147.333 -77.333 -205 -135s-103.334 -128.5 -137.001 -212.5s-50.5 -175.333 -50.5 -274z" />
    <glyph glyph-name="R" unicode="R" horiz-adv-x="1234" 
d="M199 0l0.000976562 1532h385c147.333 0 265.333 -37.167 354 -111.5s133 -183.166 133 -326.499c0 -106.667 -25.333 -194.834 -76 -264.501s-120.334 -118.834 -209.001 -147.501l369 -682h-139l-354 657c-33.333 -2.66699 -59.333 -4 -78 -4h-258v-653h-127z
M326.001 768.001h254c108.667 0 196.167 27.5 262.5 82.5s99.5 136.167 99.5 243.5s-33.167 188 -99.5 242s-153.833 81 -262.5 81h-254v-649z" />
    <glyph glyph-name="S" unicode="S" horiz-adv-x="1140" 
d="M92 285l113.001 53c80 -161.333 204.333 -242 373 -242c91.333 0 166 26.5 224 79.5s87 130.5 87 232.5c0 27.333 -2.66699 52.333 -8 75s-12.166 42.5 -20.499 59.5s-20.833 33.333 -37.5 49s-32.334 28.834 -47.001 39.501s-35.334 22.167 -62.001 34.5
s-50.167 22.5 -70.5 30.5l-82.5 31c-56 20 -103.167 38.667 -141.5 56s-75.333 37.666 -111 60.999s-63.834 48.333 -84.501 75s-37.167 58 -49.5 94s-18.5 76.667 -18.5 122c0 125.333 37.167 225.833 111.5 301.5s176.833 113.5 307.5 113.5c200 0 338 -88.667 414 -266
l-115 -43c-58 130 -158.333 195 -301 195c-88.667 0 -159.167 -26.667 -211.5 -80s-78.5 -124.333 -78.5 -213c0 -34.667 5.33301 -65.667 16 -93s24.5 -50.666 41.5 -69.999s41.833 -38.333 74.5 -57s64.334 -34.334 95.001 -47.001s71.667 -28.334 123 -47.001
c53.333 -19.333 97.666 -37.166 132.999 -53.499s70.333 -36.166 105 -59.499s61.834 -48.333 81.501 -75s35.5 -58.834 47.5 -96.501s18 -80.5 18 -128.5c0 -138.667 -41 -246 -123 -322s-188.667 -114 -320 -114c-224 0 -385 101.667 -483 305z" />
    <glyph glyph-name="T" unicode="T" horiz-adv-x="1331" 
d="M35 1417v115h1261v-115h-569v-1417h-125v1417h-567z" />
    <glyph glyph-name="U" unicode="U" horiz-adv-x="1587" 
d="M188 571v961h127v-957c0 -150 43.5 -267.333 130.5 -352s202.833 -127 347.5 -127c145.333 0 261.5 42.167 348.5 126.5s130.5 201.833 130.5 352.5v957h125v-961c0 -184.667 -55.167 -329 -165.5 -433s-256.5 -156 -438.5 -156s-328.333 52.333 -439 157
s-166 248.667 -166 432z" />
    <glyph glyph-name="V" unicode="V" horiz-adv-x="1542" 
d="M59 1532h136l577 -1358l576 1358h135l-647 -1532h-127z" />
    <glyph glyph-name="W" unicode="W" horiz-adv-x="2357" 
d="M78 1532h133l467 -1346l450 1346h103l446 -1346l467 1346h135l-538 -1532h-127l-434 1286l-437 -1286h-127z" />
    <glyph glyph-name="X" unicode="X" horiz-adv-x="1382" 
d="M57 0l543 780l-518 752h145l465 -668l463 668h145l-518 -752l541 -780h-145l-486 694l-487 -694h-148z" />
    <glyph glyph-name="Y" unicode="Y" horiz-adv-x="1409" 
d="M41 1532h145l519 -770l516 770h147l-600 -895v-637h-127v637z" />
    <glyph glyph-name="Z" unicode="Z" horiz-adv-x="1294" 
d="M76 0v100l968 1317h-933v115h1095v-100l-968 -1317h989v-115h-1151z" />
    <glyph glyph-name="bracketleft" unicode="[" horiz-adv-x="499" 
d="M123 -158v1628h330v-100h-211v-1427h211v-101h-330z" />
    <glyph glyph-name="backslash" unicode="\" horiz-adv-x="694" 
d="M25 1532h122l525 -1669h-127z" />
    <glyph glyph-name="bracketright" unicode="]" horiz-adv-x="499" 
d="M47 -57h211v1427h-211v100h330v-1628h-330v101z" />
    <glyph glyph-name="asciicircum" unicode="^" horiz-adv-x="1095" 
d="M66 766l481 790l481 -790h-133l-348 600l-348 -600h-133z" />
    <glyph glyph-name="underscore" unicode="_" horiz-adv-x="1398" 
d="M92 0h1215v-111h-1215v111z" />
    <glyph glyph-name="grave" unicode="`" horiz-adv-x="452" 
d="M47 1606h135l228 -392h-95z" />
    <glyph glyph-name="a" unicode="a" 
d="M125 266c0 98.667 34.999 174.167 104.999 226.5s165.333 78.5 286 78.5c66.667 0 144 -6.66699 232 -20v143c0 79.333 -21.667 141.833 -65 187.5s-101 68.5 -173 68.5c-61.333 0 -113.666 -12 -156.999 -36s-83.333 -59.667 -120 -107l-75 72
c46 58.667 97.5 102.667 154.5 132s125.5 44 205.5 44c104 0 188 -31.333 252 -94s96 -149 96 -259v-702h-114v113c-87.333 -87.333 -192 -131 -314 -131c-92 0 -167.167 25.833 -225.5 77.5s-87.5 120.5 -87.5 206.5zM243.999 274c0 -60 20.332 -106.667 60.999 -140
s94.667 -50 162 -50c98.667 0 192.334 45.667 281.001 137v234c-68.667 12 -139 18 -211 18c-195.333 0 -293 -66.333 -293 -199z" />
    <glyph glyph-name="b" unicode="b" horiz-adv-x="1255" 
d="M193 0l-0.000976562 1591h118v-680c84 96 199.333 144 346 144c62.667 0 122.5 -11 179.5 -33s108.833 -54.333 155.5 -97s83.834 -99 111.501 -169s41.5 -149.333 41.5 -238c0 -88 -13.833 -167 -41.5 -237s-64.5 -126.167 -110.5 -168.5s-97.333 -74.666 -154 -96.999
s-115.667 -33.5 -177 -33.5c-86 0 -156.667 12.833 -212 38.5s-103 61.834 -143 108.501v-129h-114zM310.999 243.998c40.667 -52 86.5 -91.3301 137.5 -117.997s115.833 -40 194.5 -40c48 0 94.5 9 139.5 27s85.833 44.167 122.5 78.5s66 79.666 88 135.999
s33 119.833 33 190.5s-11 134.167 -33 190.5s-51.333 101.666 -88 135.999s-77.5 60.5 -122.5 78.5s-91.5 27 -139.5 27c-78 0 -142.5 -13.833 -193.5 -41.5s-97.167 -67.834 -138.5 -120.501v-544z" />
    <glyph glyph-name="c" unicode="c" horiz-adv-x="1079" 
d="M111 518c0 163.333 48.332 293.669 144.999 391.002s217.334 146 362.001 146c164.667 0 294 -63.667 388 -191l-86 -65c-74 100.667 -174.667 151 -302 151c-112 0 -204.5 -38.833 -277.5 -116.5s-109.5 -182.834 -109.5 -315.501s36.5 -237.834 109.5 -315.501
s165.5 -116.5 277.5 -116.5c128.667 0 229.334 50.667 302.001 152l86 -66c-92 -126.667 -221.333 -190 -388 -190c-144.667 0 -265.334 48.5 -362.001 145.5s-145 227.167 -145 390.5z" />
    <glyph glyph-name="d" unicode="d" horiz-adv-x="1255" 
d="M111 518c0 88.667 13.8311 168.002 41.498 238.002s64.667 126.333 111 169s98 75 155 97s116.833 33 179.5 33c146.667 0 262 -48 346 -144v680h119v-1591h-113v129c-41.333 -46.667 -89.666 -82.834 -144.999 -108.501s-125.666 -38.5 -210.999 -38.5
c-61.333 0 -120.333 11.167 -177 33.5s-108 54.666 -154 96.999s-82.833 98.5 -110.5 168.5s-41.5 149 -41.5 237zM228.998 518.002c0 -70.667 11 -134.17 33 -190.503s51.333 -101.666 88 -135.999s77.5 -60.5 122.5 -78.5s91.5 -27 139.5 -27
c78.667 0 143.5 13.333 194.5 40s96.833 66 137.5 118v544c-41.333 52.667 -87.5 92.834 -138.5 120.501s-115.5 41.5 -193.5 41.5c-48 0 -94.5 -9 -139.5 -27s-85.833 -44.167 -122.5 -78.5s-66 -79.666 -88 -135.999s-33 -119.833 -33 -190.5z" />
    <glyph glyph-name="e" unicode="e" horiz-adv-x="1130" 
d="M111 508c0 82.667 12.6689 158.501 38.002 227.501s59.666 126.667 102.999 173s94.5 82.333 153.5 108s121.833 38.5 188.5 38.5c145.333 0.666992 255 -48.333 329 -147c60.667 -80.667 91 -190.334 91 -329.001c0 -30 -1.33301 -61.333 -4 -94h-779
c0 -122.667 35.833 -219.834 107.5 -291.501s162.834 -107.5 273.501 -107.5c135.333 0 240.666 48.333 315.999 145l76 -69c-43.333 -57.333 -98.833 -101.666 -166.5 -132.999s-142.834 -47 -225.501 -47c-93.333 0 -177.5 20 -252.5 60s-135.167 100.333 -180.5 181
s-68 175.667 -68 285zM233.002 588.001h664v12c0 108 -26.333 192.667 -79 254c-54.667 64 -130.667 96 -228 96c-96.667 0 -178.167 -33.333 -244.5 -100s-103.833 -154 -112.5 -262z" />
    <glyph glyph-name="f" unicode="f" horiz-adv-x="665" 
d="M37 932v103.999h209v203c0 121.333 28.667 212.5 86 273.5s138.333 91.5 243 91.5c48.667 0 88.334 -6.33301 119.001 -19l-16 -106c-28.667 10.667 -62 16 -100 16c-66.667 0 -118.834 -21.167 -156.501 -63.5s-56.5 -107.166 -56.5 -194.499v-201h297v-104h-297v-932
h-119v932h-209z" />
    <glyph glyph-name="g" unicode="g" horiz-adv-x="1226" 
d="M111 518c0 88 13.8359 166.999 41.5029 236.999s64.5 126.333 110.5 169s97.333 75.167 154 97.5s115.667 33.5 177 33.5c85.333 0 155.666 -12.833 210.999 -38.5s103.666 -62.167 144.999 -109.5v129h113v-1116c0 -143.333 -41.833 -255.666 -125.5 -336.999
s-194.167 -122 -331.5 -122c-192.667 0 -343.334 67 -452.001 201l82 82c96 -118.667 220.667 -178 374 -178c103.333 0 184.833 29.5 244.5 88.5s89.5 144.833 89.5 257.5v213c-84 -95.333 -199.333 -143 -346 -143c-62.667 0 -122.5 11 -179.5 33
s-108.667 54.167 -155 96.5s-83.333 98.5 -111 168.5s-41.5 149.333 -41.5 238zM229.003 517.999c0 -70.667 11 -134.17 33 -190.503s51.333 -101.666 88 -135.999s77.5 -60.5 122.5 -78.5s91.5 -27 139.5 -27c78 0 142.5 13.833 193.5 41.5s97.167 67.834 138.5 120.501
v545c-40.667 51.333 -86.5 90.333 -137.5 117s-115.833 40 -194.5 40c-48 0 -94.5 -9 -139.5 -27s-85.833 -44.167 -122.5 -78.5s-66 -79.666 -88 -135.999s-33 -119.833 -33 -190.5z" />
    <glyph glyph-name="h" unicode="h" horiz-adv-x="1204" 
d="M193 0v1591h118v-692c88 104 201.333 156 340 156c111.333 0 200.666 -36.833 267.999 -110.5s101 -170.834 101 -291.501v-653h-119v637c0 90.667 -24.5 164.5 -73.5 221.5s-115.833 85.5 -200.5 85.5c-37.333 0 -72.333 -4.66699 -105 -14s-62 -22.833 -88 -40.5
s-48.167 -34.667 -66.5 -51s-37.166 -35.833 -56.499 -58.5v-780h-118z" />
    <glyph glyph-name="i" unicode="i" horiz-adv-x="505" 
d="M162 1415c0 24.667 8.83301 46.167 26.5 64.5s38.834 27.5 63.501 27.5s46.167 -9.16699 64.5 -27.5s27.5 -39.833 27.5 -64.5c0 -25.333 -9 -46.333 -27 -63s-39.667 -25 -65 -25c-24.667 0 -45.834 8.33301 -63.501 25s-26.5 37.667 -26.5 63zM193 0v1036h118v-1036
h-118z" />
    <glyph glyph-name="j" unicode="j" horiz-adv-x="505" 
d="M-287 -383l94 70c23.333 -42 50.666 -72.667 81.999 -92s69 -29 113 -29c130 0 195 79.667 195 239v1231h118v-1231c0 -116.667 -27.167 -203.5 -81.5 -260.5s-130.166 -85.5 -227.499 -85.5c-131.333 0 -229 52.667 -293 158zM162 1415
c0 24.667 8.83301 46.167 26.5 64.5s38.834 27.5 63.501 27.5s46.167 -9.16699 64.5 -27.5s27.5 -39.833 27.5 -64.5c0 -25.333 -9 -46.333 -27 -63s-39.667 -25 -65 -25c-24.667 0 -45.834 8.33301 -63.501 25s-26.5 37.667 -26.5 63z" />
    <glyph glyph-name="k" unicode="k" horiz-adv-x="1058" 
d="M193 0v1591h118v-1110l529 555h147l-428 -456l467 -580h-147l-404 489l-164 -163v-326h-118z" />
    <glyph glyph-name="l" unicode="l" horiz-adv-x="505" 
d="M193 0v1591h118v-1591h-118z" />
    <glyph glyph-name="m" unicode="m" horiz-adv-x="1898" 
d="M193 0l0.000976562 1036h114v-141c35.333 44 81.333 81.667 138 113s124.667 47 204 47c74 0 138.667 -16.833 194 -50.5s97.333 -80.5 126 -140.5c99.333 127.333 226.333 191 381 191c110 0 197.833 -36.833 263.5 -110.5s98.5 -170.834 98.5 -291.501v-653h-119v637
c0 91.333 -23.667 165.333 -71 222s-113 85 -197 85c-69.333 0 -129.833 -16.667 -181.5 -50s-99.167 -76.666 -142.5 -129.999c7.33301 -40 11 -75 11 -105v-659h-119v637c0 91.333 -23.833 165.333 -71.5 222s-113.167 85 -196.5 85
c-116.667 0 -221.334 -54.667 -314.001 -164v-780h-118z" />
    <glyph glyph-name="n" unicode="n" horiz-adv-x="1204" 
d="M193 0l-0.000976562 1036h116v-139c34.667 44 80.334 81.333 137.001 112s125 46 205 46c111.333 0 200.666 -36.833 267.999 -110.5s101 -170.834 101 -291.501v-653h-119v637c0 90.667 -24.5 164.5 -73.5 221.5s-115.833 85.5 -200.5 85.5
c-37.333 0 -72.333 -4.66699 -105 -14s-62 -22.833 -88 -40.5s-48.167 -34.667 -66.5 -51s-37.166 -35.833 -56.499 -58.5v-780h-118z" />
    <glyph glyph-name="o" unicode="o" horiz-adv-x="1259" 
d="M111 518c0 79.333 13.667 152.833 41 220.5s64.5 124.334 111.5 170.001s102 81.5 165 107.5s129.833 39 200.5 39s137.667 -13 201 -39s118.5 -61.833 165.5 -107.5s84.333 -102.334 112 -170.001s41.5 -141.167 41.5 -220.5c0 -105.333 -23.5 -199.166 -70.5 -281.499
s-109.833 -145.333 -188.5 -189s-165.667 -65.5 -261 -65.5c-94.667 0 -181.167 21.833 -259.5 65.5s-141 106.667 -188 189s-70.5 176.166 -70.5 281.499zM229 518c0 -127.333 38.668 -231.166 116.001 -311.499s172 -120.5 284 -120.5s206.5 40.167 283.5 120.5
s115.5 184.166 115.5 311.499c0 128.667 -38.333 232.834 -115 312.501s-171.334 119.5 -284.001 119.5s-207.5 -39.833 -284.5 -119.5s-115.5 -183.834 -115.5 -312.501z" />
    <glyph glyph-name="p" unicode="p" horiz-adv-x="1255" 
d="M193 -522l0.000976562 1558h114v-129c40 46.667 87.833 83 143.5 109s126.167 39 211.5 39c61.333 0 120.333 -11.167 177 -33.5s108 -54.833 154 -97.5s82.833 -99 110.5 -169s41.5 -149 41.5 -237c0 -88.667 -13.833 -168 -41.5 -238s-64.834 -126.167 -111.501 -168.5
s-98.5 -74.5 -155.5 -96.5s-116.833 -33 -179.5 -33c-146.667 0 -262 47.667 -346 143v-647h-118zM311.001 248c41.333 -52.667 87.5 -92.8311 138.5 -120.498s115.5 -41.5 193.5 -41.5c48 0 94.5 9 139.5 27s85.833 44.167 122.5 78.5s66 79.666 88 135.999
s33 119.833 33 190.5s-11 134.167 -33 190.5s-51.333 101.666 -88 135.999s-77.5 60.5 -122.5 78.5s-91.5 27 -139.5 27c-78.667 0 -143.5 -13.333 -194.5 -40s-96.833 -65.667 -137.5 -117v-545z" />
    <glyph glyph-name="q" unicode="q" horiz-adv-x="1255" 
d="M111 518c0 88 13.835 167 41.502 237s64.5 126.333 110.5 169s97.333 75.167 154 97.5s115.667 33.5 177 33.5c85.333 0 155.666 -12.833 210.999 -38.5s103.666 -62.167 144.999 -109.5v129h113v-1558h-119v647c-84 -95.333 -199.333 -143 -346 -143
c-62.667 0 -122.5 11 -179.5 33s-108.667 54.167 -155 96.5s-83.333 98.5 -111 168.5s-41.5 149.333 -41.5 238zM229.002 518c0 -70.667 11 -134.17 33 -190.503s51.333 -101.666 88 -135.999s77.5 -60.5 122.5 -78.5s91.5 -27 139.5 -27c78 0 142.5 13.833 193.5 41.5
s97.167 67.834 138.5 120.501v545c-40.667 51.333 -86.5 90.333 -137.5 117s-115.833 40 -194.5 40c-48 0 -94.5 -9 -139.5 -27s-85.833 -44.167 -122.5 -78.5s-66 -79.666 -88 -135.999s-33 -119.833 -33 -190.5z" />
    <glyph glyph-name="r" unicode="r" horiz-adv-x="669" 
d="M193 0v1036h118v-151c88 104.667 195.333 157 322 157l-8 -120c-67.333 0 -125 -14.5 -173 -43.5s-95 -69.167 -141 -120.5v-758h-118z" />
    <glyph glyph-name="s" unicode="s" horiz-adv-x="866" 
d="M74 190l95.9971 55.998c53.333 -106.667 140 -160 260 -160c66.667 0 118.834 15.5 156.501 46.5s56.5 77.5 56.5 139.5c0 29.333 -4.5 54.166 -13.5 74.499s-24.5 38.333 -46.5 54s-44.833 28.5 -68.5 38.5s-57.167 22 -100.5 36
c-50.667 16.667 -92.834 32.834 -126.501 48.501s-65.167 34.667 -94.5 57s-51.166 48.5 -65.499 78.5s-21.5 64.333 -21.5 103c0 87.333 29.333 158 88 212s136 81 232 81c74.667 0 139.334 -15.833 194.001 -47.5s95.667 -78.167 123 -139.5l-96 -51
c-41.333 88.667 -113.666 133 -216.999 133c-62.667 0 -112.5 -16.167 -149.5 -48.5s-55.5 -76.166 -55.5 -131.499c0 -18.667 2.16699 -35.334 6.5 -50.001s11.833 -28.167 22.5 -40.5s21.5 -22.833 32.5 -31.5s27.333 -17.834 49 -27.501s41.167 -17.667 58.5 -24
l73 -25.5c51.333 -17.333 92.5 -33.166 123.5 -47.499s60.833 -32.666 89.5 -54.999s49.5 -48.666 62.5 -78.999s19.5 -66.5 19.5 -108.5c0 -94.667 -31.5 -168.167 -94.5 -220.5s-142.167 -78.5 -237.5 -78.5c-167.333 0 -286 69.333 -356 208z" />
    <glyph glyph-name="t" unicode="t" horiz-adv-x="731" 
d="M37 932l-0.00195312 103.999h219l2 346h121l-2 -346h293v-104h-293l-4 -637c0 -62.667 15.833 -110.5 47.5 -143.5s71.834 -49.5 120.501 -49.5c41.333 0 80 12.333 116 37l39 -98c-50.667 -31.333 -108 -47 -172 -47c-79.333 0 -144.166 24.333 -194.499 73
s-75.5 119.334 -75.5 212.001l2 653h-219z" />
    <glyph glyph-name="u" unicode="u" horiz-adv-x="1179" 
d="M184 406v630h119v-630c0 -92 26.667 -167.333 80 -226s122.333 -88 207 -88s153.667 29.333 207 88s80 134 80 226v630h118v-630c0 -124 -37.5 -225.667 -112.5 -305s-172.5 -119 -292.5 -119s-217.667 39.667 -293 119s-113 181 -113 305z" />
    <glyph glyph-name="v" unicode="v" horiz-adv-x="1036" 
d="M43 1036h127l348 -884l348 884h127l-409 -1036h-129z" />
    <glyph glyph-name="w" unicode="w" horiz-adv-x="1648" 
d="M43 1036h127l297 -848l309 848h94l310 -848l297 848h127l-367 -1036h-111l-303 834l-303 -834h-110z" />
    <glyph glyph-name="x" unicode="x" horiz-adv-x="1019" 
d="M47 0l379 535l-354 501h135l301 -422l303 422h133l-350 -501l377 -535h-137l-326 455l-324 -455h-137z" />
    <glyph glyph-name="y" unicode="y" horiz-adv-x="1036" 
d="M43 1036h127l348 -880l348 880h127l-626 -1558h-127l217 534z" />
    <glyph glyph-name="z" unicode="z" horiz-adv-x="917" 
d="M63 0v80l605 854h-592v102h745v-80l-606 -854h639v-102h-791z" />
    <glyph glyph-name="braceleft" unicode="{" horiz-adv-x="464" 
d="M45 606l-0.000976562 98.9941h16c20.667 0 38.167 2.66699 52.5 8s26 12.333 35 21s15.5 20.834 19.5 36.501s6.33301 31.167 7 46.5s-0.5 34.833 -3.5 58.5s-6.5 45.5 -10.5 65.5s-9.33301 45 -16 75c-32.667 145.333 -25.667 257 21 335s125.667 117 237 117h13v-100
h-13c-73.333 0 -121.333 -29.667 -144 -89s-21.667 -149.666 3 -270.999c7.33301 -38.667 13 -71.667 17 -99s6.33301 -56.666 7 -87.999s-2.16602 -57.166 -8.49902 -77.499s-17 -38.666 -32 -54.999s-34.833 -27.5 -59.5 -33.5c20.667 -5.33301 38 -13.666 52 -24.999
s24.5 -25.833 31.5 -43.5s11.833 -36.167 14.5 -55.5s3 -42.5 1 -69.5s-4.83301 -52.167 -8.5 -75.5s-8.5 -51 -14.5 -83c-24.667 -120.667 -25.667 -210.834 -3 -270.501s70.667 -89.5 144 -89.5h13v-101h-13c-111.333 0 -190.333 39.5 -237 118.5
s-53.667 191.167 -21 336.5c6.66699 29.333 12 54 16 74s7.5 41.833 10.5 65.5s4.16699 43 3.5 58s-3 30.333 -7 46s-10.5 27.834 -19.5 36.501s-20.667 15.667 -35 21s-31.833 8 -52.5 8h-16z" />
    <glyph glyph-name="bar" unicode="|" horiz-adv-x="485" 
d="M182 -137v1669h119v-1669h-119z" />
    <glyph glyph-name="braceright" unicode="}" horiz-adv-x="464" 
d="M47 -57l12 -0.00292969c73.333 0 121.5 29.833 144.5 89.5s22.167 149.834 -2.5 270.501c-8 39.333 -13.833 72.333 -17.5 99s-5.83398 55.834 -6.50098 87.501s2 57.5 8 77.5s16.5 38.167 31.5 54.5s34.833 27.5 59.5 33.5c-24.667 6 -44.5 17.167 -59.5 33.5
s-25.5 34.666 -31.5 54.999s-8.66699 46.166 -8 77.499s2.83398 60.5 6.50098 87.5s9.5 60.167 17.5 99.5c24.667 121.333 25.5 211.666 2.5 270.999s-71.167 89 -144.5 89h-12v100h12c111.333 0 190.333 -39 237 -117s54.334 -189.667 23.001 -335
c-8 -34.667 -14.333 -63.5 -19 -86.5s-8.33398 -47.667 -11.001 -74s-2.5 -47.666 0.5 -63.999s8.5 -31.666 16.5 -45.999s19.833 -24.666 35.5 -30.999s35.5 -9.5 59.5 -9.5h17v-99h-17c-24 0 -43.833 -3.16699 -59.5 -9.5s-27.5 -16.666 -35.5 -30.999
s-13.5 -29.666 -16.5 -45.999s-3.16699 -37.5 -0.5 -63.5s6.33398 -50.333 11.001 -73s11 -51.334 19 -86.001c31.333 -145.333 23.666 -257.5 -23.001 -336.5s-125.667 -118.5 -237 -118.5h-12v101z" />
    <glyph glyph-name="asciitilde" unicode="~" horiz-adv-x="1089" 
d="M53 721c45.333 54.667 88.999 95 130.999 121s93.333 39 154 39c35.333 0 69.666 -7 102.999 -21s61.333 -29.167 84 -45.5s52 -31.5 88 -45.5s74 -21 114 -21c56.667 0 103 10 139 30s73.667 53 113 99l57 -78c-45.333 -55.333 -90.333 -96.5 -135 -123.5
s-99.334 -40.5 -164.001 -40.5c-43.333 0 -83.666 7 -120.999 21s-67.166 29.167 -89.499 45.5s-49.333 31.5 -81 45.5s-64.167 21 -97.5 21c-51.333 0 -93.666 -9.5 -126.999 -28.5s-70 -51.167 -110 -96.5z" />
    <glyph glyph-name="uni00A0" unicode="&#xa0;" horiz-adv-x="491" 
 />
    <glyph glyph-name="exclamdown" unicode="&#xa1;" horiz-adv-x="528" 
d="M170 950c0 25.333 9.33301 47 28 65s41.334 27 68.001 27c24.667 0 45.834 -9 63.501 -27s26.5 -39.667 26.5 -65s-8.83301 -47 -26.5 -65s-38.834 -27 -63.501 -27c-26.667 0 -49.334 9 -68.001 27s-28 39.667 -28 65zM197 -508l4 1143h127l6 -1143h-137z" />
    <glyph glyph-name="cent" unicode="&#xa2;" horiz-adv-x="1056" 
d="M111 518c0 153.333 43.333 277.836 130 373.503s196.667 149.5 330 161.5v231h101v-231c140 -12 251.333 -75 334 -189l-84 -65c-76 100.667 -176.333 151 -301 151c-112.667 0 -205.834 -38.833 -279.501 -116.5s-110.5 -182.834 -110.5 -315.501
s36.833 -237.834 110.5 -315.501s166.834 -116.5 279.501 -116.5c126 0 226.333 50.667 301 152l84 -66c-82 -113.333 -193.333 -176 -334 -188v-226h-101v226c-133.333 12 -243.333 65.667 -330 161s-130 219.666 -130 372.999z" />
    <glyph glyph-name="sterling" unicode="&#xa3;" horiz-adv-x="1081" 
d="M59 694v98.999h224l-23 227c-17.333 162.667 8 291.667 76 387s169.667 143 305 143c94 0 171.667 -19.333 233 -58s112 -97 152 -175l-80 -74c-30.667 65.333 -69.167 113.833 -115.5 145.5s-106.833 47.5 -181.5 47.5c-100.667 0 -174 -36.167 -220 -108.5
s-62.667 -172.166 -50 -299.499l24 -235h369v-99h-358l6 -67c26.667 -224 -33.333 -394.667 -180 -512h792v-115h-952v104c38 21.333 70.833 45 98.5 71s53 58.5 76 97.5s38.5 87.167 46.5 144.5s8 122.333 0 195l-8 82h-234z" />
    <glyph glyph-name="currency" unicode="&#xa4;" horiz-adv-x="1189" 
d="M59 14l248.001 247.998c-44.667 70.667 -67 156 -67 256c0 98 23.667 182.667 71 254l-252 250l78 74l248 -246c60 43.333 131 65 213 65c84 0 154.333 -21 211 -63l248 244l73 -74l-247 -248c46 -69.333 69 -154.666 69 -255.999s-23 -186.666 -69 -255.999l247 -248
l-75 -75l-248 245c-58.667 -42 -128.334 -63 -209.001 -63c-86 0 -157.667 21.667 -215 65l-246 -247zM336.001 517.998c0 -97.333 22.667 -172.833 68 -226.5s109.333 -80.5 192 -80.5c78.667 0 141 27.167 187 81.5s69 129.5 69 225.5c0 98 -22.167 173.667 -66.5 227
s-107.5 80 -189.5 80c-79.333 0 -142.5 -27.5 -189.5 -82.5s-70.5 -129.833 -70.5 -224.5z" />
    <glyph glyph-name="yen" unicode="&#xa5;" horiz-adv-x="1409" 
d="M41 1532h145l519 -770l516 770h147l-551 -821h246v-80h-295v-209h295v-80h-295v-342h-127v342h-293v80h293v209h-293v80h244z" />
    <glyph glyph-name="brokenbar" unicode="&#xa6;" horiz-adv-x="485" 
d="M182 -137v653h119v-653h-119zM182 879v653h119v-653h-119z" />
    <glyph glyph-name="section" unicode="&#xa7;" horiz-adv-x="1044" 
d="M119 152l97.9971 58.9971c26.667 -52 66.5 -92.333 119.5 -121s115.5 -43 187.5 -43c50 0 95.833 7 137.5 21s76.667 37.833 105 71.5s42.5 74.5 42.5 122.5c0 21.333 -2.83301 40.5 -8.5 57.5s-12.5 31.833 -20.5 44.5s-20.333 24.5 -37 35.5s-31.667 19.833 -45 26.5
s-33.166 13.834 -59.499 21.501s-48 13.667 -65 18s-42.167 10.166 -75.5 17.499c-47.333 10 -87.666 19.833 -120.999 29.5s-66.5 22.167 -99.5 37.5s-59.333 32.5 -79 51.5s-35.5 42.833 -47.5 71.5s-18 61 -18 97c0 58.667 11.5 108.334 34.5 149.001
s57.833 77 104.5 109c-70.667 44.667 -106 115.667 -106 213c0 96.667 34.167 172.334 102.5 227.001s153.5 82 255.5 82c82 0 151.667 -15.833 209 -47.5s99 -77.834 125 -138.501l-94 -53c-44 90 -123.333 135 -238 135c-68 0 -125.167 -17.833 -171.5 -53.5
s-69.5 -86.167 -69.5 -151.5c0 -27.333 4.5 -51.166 13.5 -71.499s20 -36.833 33 -49.5s32 -24.334 57 -35.001s47.667 -18.834 68 -24.501s48.5 -12.5 84.5 -20.5c58.667 -11.333 108 -23.666 148 -36.999s77.5 -30.833 112.5 -52.5s61 -49.167 78 -82.5
s25.5 -72.666 25.5 -117.999c0 -56.667 -10.833 -103.5 -32.5 -140.5s-54.5 -71.5 -98.5 -103.5c52 -24.667 90.667 -56.167 116 -94.5s38 -88.166 38 -149.499c0 -66.667 -19.167 -124.667 -57.5 -174s-87.666 -85.833 -147.999 -109.5s-126.5 -35.5 -198.5 -35.5
c-96 0 -178.5 17.667 -247.5 53s-121.5 87.333 -157.5 156zM243.997 781.997c0 -27.333 5.00293 -51.3301 15.0029 -71.9971s22.5 -37.834 37.5 -51.501s36.5 -26.167 64.5 -37.5s55 -20.333 81 -27s59.667 -14.334 101 -23.001c35.333 -6 77.666 -15.333 126.999 -28
c43.333 27.333 75 55.166 95 83.499s30 65.833 30 112.5c0 27.333 -5 51.5 -15 72.5s-22.833 38.333 -38.5 52s-37.5 26.167 -65.5 37.5s-54.833 20.5 -80.5 27.5s-58.834 14.833 -99.501 23.5c-46.667 10 -89.667 21 -129 33c-40.667 -26 -71.334 -55 -92.001 -87
s-31 -70.667 -31 -116z" />
    <glyph glyph-name="dieresis" unicode="&#xa8;" horiz-adv-x="526" 
d="M51 1395c0 22 7.83301 41.167 23.5 57.5s33.834 24.5 54.501 24.5c22.667 0 42 -8 58 -24s24 -35.333 24 -58c0 -21.333 -8 -39.333 -24 -54s-35.333 -22 -58 -22c-20.667 0 -38.834 7.33301 -54.501 22s-23.5 32.667 -23.5 54zM315 1395c0 22.667 7.66699 42 23 58
s34.333 24 57 24s41.667 -8 57 -24s23 -35.333 23 -58c0 -21.333 -7.66699 -39.333 -23 -54s-34.333 -22 -57 -22s-41.667 7.33301 -57 22s-23 32.667 -23 54z" />
    <glyph glyph-name="copyright" unicode="&#xa9;" horiz-adv-x="1181" 
d="M66 1038c0 145.333 50.333 267.333 151 366s225.667 148 375 148c96.667 0 185.167 -22.5 265.5 -67.5s143.5 -106.833 189.5 -185.5s69 -165.667 69 -261s-23 -182.333 -69 -261s-109.167 -140.5 -189.5 -185.5s-168.833 -67.5 -265.5 -67.5
c-149.333 0 -274.333 49.333 -375 148s-151 220.667 -151 366zM119 1038c0 -131.333 45.333 -242 136 -332s202.334 -135 335.001 -135c134 0 246.333 45 337 135s136 200.667 136 332s-45.333 242 -136 332s-203 135 -337 135c-132.667 0 -244.334 -45 -335.001 -135
s-136 -200.667 -136 -332zM289 1038c0 95.333 30.334 172.834 91.001 232.501s134.667 89.5 222 89.5c100.667 0 179.334 -37.667 236.001 -113l-47 -43c-42 61.333 -104.333 92 -187 92c-68 0 -125.667 -23.833 -173 -71.5s-71 -109.834 -71 -186.501
c0 -74.667 23.833 -136 71.5 -184s105.167 -72 172.5 -72c81.333 0 143.666 31.667 186.999 95l47 -43c-54.667 -76.667 -133.334 -115 -236.001 -115c-86.667 0 -160.5 29.833 -221.5 89.5s-91.5 136.167 -91.5 229.5z" />
    <glyph glyph-name="ordfeminine" unicode="&#xaa;" horiz-adv-x="841" 
d="M100 913c0 78.667 28.167 139.668 84.5 183.001s132.833 65 229.5 65c54.667 0 114.667 -4 180 -12v108c0 62.667 -16.667 111.834 -50 147.501s-78.666 53.5 -135.999 53.5c-88.667 0 -160.334 -37.333 -215.001 -112l-66 61c74 92.667 171 139 291 139
c83.333 0 150.5 -24.833 201.5 -74.5s76.5 -118.834 76.5 -207.501v-562h-96v91c-34 -32.667 -70.167 -58.334 -108.5 -77.001s-85.5 -28 -141.5 -28c-72.667 0 -132.5 20.5 -179.5 61.5s-70.5 95.5 -70.5 163.5zM203 922.001c0 -46.667 16.001 -82.667 48.001 -108
s74.667 -38 128 -38c79.333 0 151.666 35 216.999 105v186c-45.333 8 -100 12 -164 12c-152.667 0 -229 -52.333 -229 -157z" />
    <glyph glyph-name="guillemotleft" unicode="&#xab;" horiz-adv-x="1036" 
d="M31 516l383 434l92 -61l-336 -373l336 -375l-92 -61zM516 516l383 434l94 -61l-338 -373l338 -375l-94 -61z" />
    <glyph glyph-name="logicalnot" unicode="&#xac;" horiz-adv-x="1093" 
d="M82 719v96h911v-459h-96v363h-815z" />
    <glyph glyph-name="uni00AD" unicode="&#xad;" horiz-adv-x="821" 
d="M92 479v113h637v-113h-637z" />
    <glyph glyph-name="registered" unicode="&#xae;" horiz-adv-x="1181" 
d="M66 1038c0 145.333 50.333 267.333 151 366s225.667 148 375 148c96.667 0 185.167 -22.5 265.5 -67.5s143.5 -106.833 189.5 -185.5s69 -165.667 69 -261s-23 -182.333 -69 -261s-109.167 -140.5 -189.5 -185.5s-168.833 -67.5 -265.5 -67.5
c-149.333 0 -274.333 49.333 -375 148s-151 220.667 -151 366zM119 1038c0 -131.333 45.333 -242 136 -332s202.334 -135 335.001 -135c134 0 246.333 45 337 135s136 200.667 136 332s-45.333 242 -136 332s-203 135 -337 135c-132.667 0 -244.334 -45 -335.001 -135
s-136 -200.667 -136 -332zM383 725l-0.000976562 627h221c66.667 0 118.834 -15.667 156.501 -47s56.5 -77.333 56.5 -138c0 -85.333 -36.667 -141.333 -110 -168l143 -274h-76l-135 260l-35 -2h-151v-258h-70zM452.999 1040h147c45.333 0 80.833 10.333 106.5 31
s38.5 52.667 38.5 96c0 83.333 -48.333 125 -145 125h-147v-252z" />
    <glyph glyph-name="macron" unicode="&#xaf;" horiz-adv-x="581" 
d="M39 1317v92h504v-92h-504z" />
    <glyph glyph-name="degree" unicode="&#xb0;" horiz-adv-x="681" 
d="M66 1251c0 88.667 25.167 160.334 75.5 215.001s116.5 82 198.5 82c81.333 0 147.666 -27.333 198.999 -82s77 -126.334 77 -215.001c0 -89.333 -25.667 -161.5 -77 -216.5s-117.666 -82.5 -198.999 -82.5c-82 0 -148.167 27.333 -198.5 82s-75.5 127 -75.5 217z
M150 1251c0 -66 17.5 -118.667 52.5 -158s80.833 -59 137.5 -59c58 0 104.5 19.667 139.5 59s52.5 92 52.5 158s-17.5 118.667 -52.5 158s-81.5 59 -139.5 59s-104.167 -19.667 -138.5 -59s-51.5 -92 -51.5 -158z" />
    <glyph glyph-name="plusminus" unicode="&#xb1;" horiz-adv-x="1118" 
d="M68 205v110h979v-110h-979zM68 895v111h432v426h116v-426h431v-111h-431v-438h-116v438h-432z" />
    <glyph glyph-name="acute" unicode="&#xb4;" horiz-adv-x="452" 
d="M43 1214l229 392h136l-269 -392h-96z" />
    <glyph glyph-name="paragraph" unicode="&#xb6;" horiz-adv-x="1320" 
d="M98 1159c0 120.667 39.5 213 118.5 277s184.167 96 315.5 96h744v-92h-139v-1577h-95v1577h-301v-1577h-94v923h-115c-132.667 0 -238.167 32.167 -316.5 96.5s-117.5 156.5 -117.5 276.5z" />
    <glyph glyph-name="periodcentered" unicode="&#xb7;" horiz-adv-x="391" 
d="M104 578c0 25.333 9 47 27 65s39.333 27 64 27c26.667 0 49 -9 67 -27s27 -39.667 27 -65s-9.16699 -47.166 -27.5 -65.499s-40.5 -27.5 -66.5 -27.5c-24.667 0 -46 9.16699 -64 27.5s-27 40.166 -27 65.499z" />
    <glyph glyph-name="cedilla" unicode="&#xb8;" horiz-adv-x="561" 
d="M45 -446l22.999 69.001c50 -30 106.667 -45 170 -45c43.333 0 80 9.16699 110 27.5s45 46.166 45 83.499c0 40.667 -18.333 71.667 -55 93s-85 32 -145 32c-15.333 0 -29.666 -1.33301 -42.999 -4l49 202h67l-28 -133c73.333 -2 132.833 -19.667 178.5 -53
s68.5 -80.333 68.5 -141c0 -56 -22.833 -100.5 -68.5 -133.5s-100.5 -49.5 -164.5 -49.5c-80 0 -149 17.333 -207 52z" />
    <glyph glyph-name="ordmasculine" unicode="&#xba;" horiz-adv-x="1009" 
d="M88 1118c0 126 40.5 228.833 121.5 308.5s179.833 119.5 296.5 119.5c115.333 0 213.5 -39.833 294.5 -119.5s121.5 -182.5 121.5 -308.5s-40.5 -229.167 -121.5 -309.5s-179.167 -120.5 -294.5 -120.5c-116 0 -214.667 40.167 -296 120.5s-122 183.5 -122 309.5z
M190 1118c0 -101.333 30.333 -183.666 91 -246.999s135.667 -95 225 -95c88.667 0 163 31.667 223 95s90 145.666 90 246.999s-30 183.333 -90 246s-134.333 94 -223 94c-89.333 0 -164.333 -31.333 -225 -94s-91 -144.667 -91 -246z" />
    <glyph glyph-name="guillemotright" unicode="&#xbb;" horiz-adv-x="1036" 
d="M45 141l336 375l-336 373l92 61l383 -434l-383 -436zM530 141l338 375l-338 373l95 61l383 -434l-383 -436z" />
    <glyph glyph-name="onequarter" unicode="&#xbc;" horiz-adv-x="1513" 
d="M47 0l1100 1532h123l-1100 -1532h-123zM49 1313v94l215 125h76v-873h-90v766zM834 225v70l233 577h96l-233 -563h284v248h89v-248h170v-84h-170v-225h-89v225h-380z" />
    <glyph glyph-name="onehalf" unicode="&#xbd;" horiz-adv-x="1505" 
d="M47 0l1100 1532h123l-1100 -1532h-123zM49 1313v94l215 125h76v-873h-90v766zM907 750c58.667 88.667 146 133 262 133c77.333 0 139 -22.333 185 -67s69 -105.667 69 -183c0 -68 -18.667 -135.167 -56 -201.5s-74.666 -118.166 -111.999 -155.499s-99 -94.333 -185 -171
l-7.5 -7.5c-1.66699 -1.66699 -4 -3.83398 -7 -6.50098s-5.83301 -5 -8.5 -7h389v-84h-523v76c125.333 106.667 208.666 181 249.999 223c96 97.333 151.333 188.333 166 273c2.66699 17.333 4 35 4 53c0 54 -15.667 96.5 -47 127.5s-72.333 46.5 -123 46.5
c-86 0 -150.667 -36.333 -194 -109z" />
    <glyph glyph-name="threequarters" unicode="&#xbe;" horiz-adv-x="1656" 
d="M33 776l59 55c21.333 -32.667 46.833 -57.167 76.5 -73.5s67.167 -24.5 112.5 -24.5c54 0 98.167 15.667 132.5 47s51.5 73 51.5 125c0 54 -19.5 95.5 -58.5 124.5s-88.5 43.5 -148.5 43.5h-68v82h68c51.333 0 94.166 13.5 128.499 40.5s51.5 64.167 51.5 111.5
c0 46 -14.5 82.667 -43.5 110s-67.5 41 -115.5 41c-77.333 0 -136.333 -32.667 -177 -98l-61 55c56.667 84.667 136 127 238 127c76.667 0 137.334 -21 182.001 -63s67 -99.333 67 -172c0 -47.333 -12.5 -87.5 -37.5 -120.5s-57.5 -57.167 -97.5 -72.5
c50.667 -14 90.667 -38.667 120 -74s44 -81 44 -137c0 -78 -25 -139.833 -75 -185.5s-115.667 -68.5 -197 -68.5c-113.333 0 -197.333 42.333 -252 127zM193 0l1099 1532h123l-1100 -1532h-122zM977 225v70l233 577h97l-234 -563h285v248h88v-248h170v-84h-170v-225h-88v225
h-381z" />
    <glyph glyph-name="questiondown" unicode="&#xbf;" horiz-adv-x="960" 
d="M45 -106c0 88 18.8301 162.335 56.4971 223.002s93.834 118.667 168.501 174c38.667 28.667 67.334 51.167 86.001 67.5s36.334 35.666 53.001 57.999s27.834 45.5 33.501 69.5s8.5 53.667 8.5 89c0 6 -1.66699 30 -5 72h125c2.66699 -38.667 4 -64 4 -76
c0 -52 -7.83301 -97.667 -23.5 -137s-37 -73.333 -64 -102s-65.833 -62.334 -116.5 -101.001c-68 -50 -118.167 -99.333 -150.5 -148s-48.5 -109.667 -48.5 -183c0 -89.333 29.667 -161.833 89 -217.5s136.333 -83.5 231 -83.5c144.667 0 257.667 67.333 339 202l82 -75
c-100 -161.333 -243.333 -242 -430 -242c-126.667 0 -231.334 38.333 -314.001 115s-124 175 -124 295zM417.997 963.002c0 26 9.16699 47.832 27.5 65.499s41.166 26.5 68.499 26.5c24.667 0 45.834 -9 63.501 -27s26.5 -39.667 26.5 -65s-8.83301 -47.166 -26.5 -65.499
s-38.834 -27.5 -63.501 -27.5c-27.333 0 -50.166 9 -68.499 27s-27.5 40 -27.5 66z" />
    <glyph glyph-name="Agrave" unicode="&#xc0;" horiz-adv-x="1550" 
d="M59 0l652 1532h131l649 -1532h-135l-209 483h-744l-206 -483h-138zM336 1905h170l323 -277h-116zM449 598h655l-328 768z" />
    <glyph glyph-name="Aacute" unicode="&#xc1;" horiz-adv-x="1550" 
d="M59 0l652 1532h131l649 -1532h-135l-209 483h-744l-206 -483h-138zM449 598h655l-328 768zM715 1628l323 277h168l-372 -277h-119z" />
    <glyph glyph-name="Acircumflex" unicode="&#xc2;" horiz-adv-x="1550" 
d="M59 0l652 1532h131l649 -1532h-135l-209 483h-744l-206 -483h-138zM449 598h655l-328 768zM475 1628l246 277h110l248 -277h-104l-199 199l-196 -199h-105z" />
    <glyph glyph-name="Atilde" unicode="&#xc3;" horiz-adv-x="1550" 
d="M59 0l652 1532h131l649 -1532h-135l-209 483h-744l-206 -483h-138zM449 598h655l-328 768zM461 1683c-3.33301 58 10.501 107.335 41.501 148.002s72.5 61 124.5 61c28.667 0 56.667 -6.83301 84 -20.5s50 -28.667 68 -45s38.667 -31.333 62 -45s46 -20.5 68 -20.5
c34 0 60.333 10.667 79 32s28.667 49.666 30 84.999h72c2 -58 -12.5 -107.333 -43.5 -148s-72.5 -61 -124.5 -61c-28.667 0 -56.5 6.83301 -83.5 20.5s-49.5 28.667 -67.5 45s-38.833 31.333 -62.5 45s-46.834 20.5 -69.501 20.5c-33.333 0 -59.5 -10.833 -78.5 -32.5
s-29.167 -49.834 -30.5 -84.501h-69z" />
    <glyph glyph-name="Adieresis" unicode="&#xc4;" horiz-adv-x="1550" 
d="M59 0l652 1532h131l649 -1532h-135l-209 483h-744l-206 -483h-138zM449 598h655l-328 768zM561 1769c0 22 7.83301 40.5 23.5 55.5s33.834 22.5 54.501 22.5c22.667 0 42 -7.5 58 -22.5s24 -33.5 24 -55.5s-8 -40.667 -24 -56s-35.333 -23 -58 -23
c-20.667 0 -38.834 7.66699 -54.501 23s-23.5 34 -23.5 56zM825 1769c0 22.667 7.66699 41.334 23 56.001s34.333 22 57 22s41.667 -7.33301 57 -22s23 -33.334 23 -56.001s-7.66699 -41.5 -23 -56.5s-34.333 -22.5 -57 -22.5s-41.667 7.5 -57 22.5s-23 33.833 -23 56.5z
" />
    <glyph glyph-name="Aring" unicode="&#xc5;" horiz-adv-x="1550" 
d="M59 0l652 1532h131l649 -1532h-135l-209 483h-744l-206 -483h-138zM449 598h655l-328 768zM573 1817c0 54.667 19.167 99.667 57.5 135s85.5 53 141.5 53c57.333 0 105.5 -17.667 144.5 -53s58.5 -80.333 58.5 -135c0 -56 -19.5 -101.833 -58.5 -137.5
s-87.167 -53.5 -144.5 -53.5c-56 0 -103.167 17.833 -141.5 53.5s-57.5 81.5 -57.5 137.5zM649 1817c0 -35.333 12 -64.333 36 -87s53.667 -34 89 -34c34.667 0 64.5 11.333 89.5 34s37.5 51.667 37.5 87c0 34 -12.5 62.167 -37.5 84.5s-54.833 33.5 -89.5 33.5
c-35.333 0 -65 -11 -89 -33s-36 -50.333 -36 -85z" />
    <glyph glyph-name="AE" unicode="&#xc6;" horiz-adv-x="1914" 
d="M39 0l1026 1532h772v-115h-620v-567h565v-113h-565v-622h622v-115h-747v483h-582l-317 -483h-154zM590 598h502v760z" />
    <glyph glyph-name="Ccedilla" unicode="&#xc7;" horiz-adv-x="1536" 
d="M121 766c0 114.667 20.333 221.495 61 320.495s95.5 182 164.5 249s149.667 119.5 242 157.5s189.833 57 292.5 57c256.667 0 450.334 -93.333 581.001 -280l-92 -72c-112 158.667 -274.333 238 -487 238c-86.667 0 -168.5 -16.167 -245.5 -48.5
s-144.167 -77.166 -201.5 -134.499s-102.666 -128.166 -135.999 -212.499s-50 -175.833 -50 -274.5c0 -98 16.667 -189 50 -273s78.666 -154.667 135.999 -212s124.5 -102.166 201.5 -134.499s158.833 -48.5 245.5 -48.5c213.333 0 375.666 80 486.999 240l92 -74
c-128.667 -184.667 -319.667 -278 -573 -280l-25 -115c73.333 -2 133 -19.833 179 -53.5s69 -80.834 69 -141.501c0 -56 -22.833 -100.333 -68.5 -133s-100.5 -49 -164.5 -49c-81.333 0 -150.333 17 -207 51l22 70c50 -30 106.667 -45 170 -45c43.333 0 80.166 9 110.499 27
s45.5 45.667 45.5 83c0 40.667 -18.5 71.667 -55.5 93s-85.5 32 -145.5 32c-15.333 0 -29.666 -1.33301 -42.999 -4l45 187c-96 7.33301 -186.5 31.333 -271.5 72s-159.167 94.334 -222.5 161.001s-113.5 147.334 -150.5 242.001s-55.5 196.334 -55.5 305.001z" />
    <glyph glyph-name="Egrave" unicode="&#xc8;" horiz-adv-x="1021" 
d="M143 1905h170l324 -277h-117zM199 0v1532h745v-115h-620v-567h565v-113h-565v-622h622v-115h-747z" />
    <glyph glyph-name="Eacute" unicode="&#xc9;" horiz-adv-x="1021" 
d="M199 0v1532h745v-115h-620v-567h565v-113h-565v-622h622v-115h-747zM522 1628l324 277h168l-373 -277h-119z" />
    <glyph glyph-name="Ecircumflex" unicode="&#xca;" horiz-adv-x="1021" 
d="M199 0v1532h745v-115h-620v-567h565v-113h-565v-622h622v-115h-747zM283 1628l245 277h111l248 -277h-105l-198 199l-197 -199h-104z" />
    <glyph glyph-name="Edieresis" unicode="&#xcb;" horiz-adv-x="1021" 
d="M199 0v1532h745v-115h-620v-567h565v-113h-565v-622h622v-115h-747zM369 1769c0 22 7.66699 40.5 23 55.5s33.333 22.5 54 22.5c22.667 0 42 -7.5 58 -22.5s24 -33.5 24 -55.5s-8 -40.667 -24 -56s-35.333 -23 -58 -23c-20.667 0 -38.667 7.66699 -54 23s-23 34 -23 56z
M633 1769c0 22.667 7.66699 41.334 23 56.001s34.333 22 57 22s41.667 -7.33301 57 -22s23 -33.334 23 -56.001s-7.66699 -41.5 -23 -56.5s-34.333 -22.5 -57 -22.5s-41.667 7.5 -57 22.5s-23 33.833 -23 56.5z" />
    <glyph glyph-name="Igrave" unicode="&#xcc;" horiz-adv-x="524" 
d="M-174 1905h170l323 -277h-116zM199 0v1532h125v-1532h-125z" />
    <glyph glyph-name="Iacute" unicode="&#xcd;" horiz-adv-x="524" 
d="M199 0v1532h125v-1532h-125zM205 1628l323 277h168l-372 -277h-119z" />
    <glyph glyph-name="Icircumflex" unicode="&#xce;" horiz-adv-x="524" 
d="M-35 1628l246 277h111l247 -277h-104l-199 199l-196 -199h-105zM199 0v1532h125v-1532h-125z" />
    <glyph glyph-name="Idieresis" unicode="&#xcf;" horiz-adv-x="524" 
d="M51 1769c0 22 7.83301 40.5 23.5 55.5s33.834 22.5 54.501 22.5c22.667 0 42 -7.5 58 -22.5s24 -33.5 24 -55.5s-8 -40.667 -24 -56s-35.333 -23 -58 -23c-20.667 0 -38.834 7.66699 -54.501 23s-23.5 34 -23.5 56zM199 0v1532h125v-1532h-125zM315 1769
c0 22.667 7.66699 41.334 23 56.001s34.333 22 57 22s41.667 -7.33301 57 -22s23 -33.334 23 -56.001s-7.66699 -41.5 -23 -56.5s-34.333 -22.5 -57 -22.5s-41.667 7.5 -57 22.5s-23 33.833 -23 56.5z" />
    <glyph glyph-name="Eth" unicode="&#xd0;" horiz-adv-x="1626" 
d="M-12 717v97.999h211v717h514c82.667 0 162.167 -10 238.5 -30s148 -50.833 215 -92.5s125.167 -92.167 174.5 -151.5s88.333 -131.166 117 -215.499s43 -176.5 43 -276.5c0 -100.667 -14.333 -193.167 -43 -277.5s-67.667 -156.166 -117 -215.499
s-107.5 -109.833 -174.5 -151.5s-138.667 -72.334 -215 -92.001s-155.833 -29.5 -238.5 -29.5h-514v717h-211zM326 114.999h387c68 0 133.833 8.16699 197.5 24.5s123.834 42 180.501 77s106 77.5 148 127.5s75.333 111.167 100 183.5s37 151.833 37 238.5
s-12.333 166.167 -37 238.5s-58 133.5 -100 183.5s-91.333 92.5 -148 127.5s-116.834 60.667 -180.501 77s-129.5 24.5 -197.5 24.5h-387v-602h374v-98h-374v-602z" />
    <glyph glyph-name="Ntilde" unicode="&#xd1;" horiz-adv-x="1589" 
d="M199 0v1532h118l947 -1311v1311h125v-1532h-119l-946 1313v-1313h-125zM481 1683c-3.33301 58 10.499 107.335 41.499 148.002s72.5 61 124.5 61c28.667 0 56.834 -6.83301 84.501 -20.5s50.334 -28.667 68.001 -45s38.334 -31.333 62.001 -45s46.5 -20.5 68.5 -20.5
c34 0 60.167 10.667 78.5 32s28.166 49.666 29.499 84.999h72c2 -58 -12.5 -107.333 -43.5 -148s-72.5 -61 -124.5 -61c-28.667 0 -56.5 6.83301 -83.5 20.5s-49.5 28.667 -67.5 45s-38.833 31.333 -62.5 45s-46.834 20.5 -69.501 20.5c-33.333 0 -59.333 -10.833 -78 -32.5
s-28.667 -49.834 -30 -84.501h-70z" />
    <glyph glyph-name="Ograve" unicode="&#xd2;" horiz-adv-x="1787" 
d="M121 766c0 116 20.001 223.167 60.001 321.5s94.667 181.166 164 248.499s151.333 119.833 246 157.5s196 56.5 304 56.5s209.333 -18.833 304 -56.5s176.667 -90.167 246 -157.5s124 -150.166 164 -248.499s60 -205.5 60 -321.5
c0 -115.333 -20.167 -222.166 -60.5 -320.499s-95.333 -181 -165 -248s-151.834 -119.333 -246.501 -157s-195.334 -56.5 -302.001 -56.5c-107.333 0 -208.333 18.833 -303 56.5s-176.667 90 -246 157s-124.166 149.667 -164.499 248s-60.5 205.166 -60.5 320.499z
M248.001 766c0 -98.667 16.833 -190 50.5 -274s79.334 -154.667 137.001 -212s126 -102 205 -134s163.167 -48 252.5 -48s173.5 16 252.5 48s147.667 76.667 206 134s104.333 128 138 212s50.5 175.333 50.5 274s-16.833 190 -50.5 274s-79.5 154.833 -137.5 212.5
s-126.5 102.667 -205.5 135s-163.5 48.5 -253.5 48.5c-89.333 0 -173.5 -16.167 -252.5 -48.5s-147.333 -77.333 -205 -135s-103.334 -128.5 -137.001 -212.5s-50.5 -175.333 -50.5 -274zM455.001 1905h170l323 -277h-117z" />
    <glyph glyph-name="Oacute" unicode="&#xd3;" horiz-adv-x="1787" 
d="M121 766c0 116 20.001 223.167 60.001 321.5s94.667 181.166 164 248.499s151.333 119.833 246 157.5s196 56.5 304 56.5s209.333 -18.833 304 -56.5s176.667 -90.167 246 -157.5s124 -150.166 164 -248.499s60 -205.5 60 -321.5
c0 -115.333 -20.167 -222.166 -60.5 -320.499s-95.333 -181 -165 -248s-151.834 -119.333 -246.501 -157s-195.334 -56.5 -302.001 -56.5c-107.333 0 -208.333 18.833 -303 56.5s-176.667 90 -246 157s-124.166 149.667 -164.499 248s-60.5 205.166 -60.5 320.499z
M248.001 766c0 -98.667 16.833 -190 50.5 -274s79.334 -154.667 137.001 -212s126 -102 205 -134s163.167 -48 252.5 -48s173.5 16 252.5 48s147.667 76.667 206 134s104.333 128 138 212s50.5 175.333 50.5 274s-16.833 190 -50.5 274s-79.5 154.833 -137.5 212.5
s-126.5 102.667 -205.5 135s-163.5 48.5 -253.5 48.5c-89.333 0 -173.5 -16.167 -252.5 -48.5s-147.333 -77.333 -205 -135s-103.334 -128.5 -137.001 -212.5s-50.5 -175.333 -50.5 -274zM834.001 1628l323 277h168l-373 -277h-118z" />
    <glyph glyph-name="Ocircumflex" unicode="&#xd4;" horiz-adv-x="1787" 
d="M121 766c0 116 20.001 223.167 60.001 321.5s94.667 181.166 164 248.499s151.333 119.833 246 157.5s196 56.5 304 56.5s209.333 -18.833 304 -56.5s176.667 -90.167 246 -157.5s124 -150.166 164 -248.499s60 -205.5 60 -321.5
c0 -115.333 -20.167 -222.166 -60.5 -320.499s-95.333 -181 -165 -248s-151.834 -119.333 -246.501 -157s-195.334 -56.5 -302.001 -56.5c-107.333 0 -208.333 18.833 -303 56.5s-176.667 90 -246 157s-124.166 149.667 -164.499 248s-60.5 205.166 -60.5 320.499z
M248.001 766c0 -98.667 16.833 -190 50.5 -274s79.334 -154.667 137.001 -212s126 -102 205 -134s163.167 -48 252.5 -48s173.5 16 252.5 48s147.667 76.667 206 134s104.333 128 138 212s50.5 175.333 50.5 274s-16.833 190 -50.5 274s-79.5 154.833 -137.5 212.5
s-126.5 102.667 -205.5 135s-163.5 48.5 -253.5 48.5c-89.333 0 -173.5 -16.167 -252.5 -48.5s-147.333 -77.333 -205 -135s-103.334 -128.5 -137.001 -212.5s-50.5 -175.333 -50.5 -274zM594.001 1628l246 277h110l248 -277h-104l-199 199l-197 -199h-104z" />
    <glyph glyph-name="Otilde" unicode="&#xd5;" horiz-adv-x="1787" 
d="M121 766c0 116 20.001 223.167 60.001 321.5s94.667 181.166 164 248.499s151.333 119.833 246 157.5s196 56.5 304 56.5s209.333 -18.833 304 -56.5s176.667 -90.167 246 -157.5s124 -150.166 164 -248.499s60 -205.5 60 -321.5
c0 -115.333 -20.167 -222.166 -60.5 -320.499s-95.333 -181 -165 -248s-151.834 -119.333 -246.501 -157s-195.334 -56.5 -302.001 -56.5c-107.333 0 -208.333 18.833 -303 56.5s-176.667 90 -246 157s-124.166 149.667 -164.499 248s-60.5 205.166 -60.5 320.499z
M248.001 766c0 -98.667 16.833 -190 50.5 -274s79.334 -154.667 137.001 -212s126 -102 205 -134s163.167 -48 252.5 -48s173.5 16 252.5 48s147.667 76.667 206 134s104.333 128 138 212s50.5 175.333 50.5 274s-16.833 190 -50.5 274s-79.5 154.833 -137.5 212.5
s-126.5 102.667 -205.5 135s-163.5 48.5 -253.5 48.5c-89.333 0 -173.5 -16.167 -252.5 -48.5s-147.333 -77.333 -205 -135s-103.334 -128.5 -137.001 -212.5s-50.5 -175.333 -50.5 -274zM580.001 1683c-3.33301 58 10.332 107.335 40.999 148.002s72 61 124 61
c28.667 0 56.834 -6.83301 84.501 -20.5s50.334 -28.667 68.001 -45s38.334 -31.333 62.001 -45s46.5 -20.5 68.5 -20.5c34 0 60.333 10.667 79 32s28.667 49.666 30 84.999h71c2 -58 -12.5 -107.333 -43.5 -148s-72.5 -61 -124.5 -61c-28.667 0 -56.5 6.83301 -83.5 20.5
s-49.333 28.667 -67 45s-38.334 31.333 -62.001 45s-46.834 20.5 -69.501 20.5c-33.333 0 -59.5 -10.833 -78.5 -32.5s-29.167 -49.834 -30.5 -84.501h-69z" />
    <glyph glyph-name="Odieresis" unicode="&#xd6;" horiz-adv-x="1787" 
d="M121 766c0 116 20.001 223.167 60.001 321.5s94.667 181.166 164 248.499s151.333 119.833 246 157.5s196 56.5 304 56.5s209.333 -18.833 304 -56.5s176.667 -90.167 246 -157.5s124 -150.166 164 -248.499s60 -205.5 60 -321.5
c0 -115.333 -20.167 -222.166 -60.5 -320.499s-95.333 -181 -165 -248s-151.834 -119.333 -246.501 -157s-195.334 -56.5 -302.001 -56.5c-107.333 0 -208.333 18.833 -303 56.5s-176.667 90 -246 157s-124.166 149.667 -164.499 248s-60.5 205.166 -60.5 320.499z
M248.001 766c0 -98.667 16.833 -190 50.5 -274s79.334 -154.667 137.001 -212s126 -102 205 -134s163.167 -48 252.5 -48s173.5 16 252.5 48s147.667 76.667 206 134s104.333 128 138 212s50.5 175.333 50.5 274s-16.833 190 -50.5 274s-79.5 154.833 -137.5 212.5
s-126.5 102.667 -205.5 135s-163.5 48.5 -253.5 48.5c-89.333 0 -173.5 -16.167 -252.5 -48.5s-147.333 -77.333 -205 -135s-103.334 -128.5 -137.001 -212.5s-50.5 -175.333 -50.5 -274zM680.001 1769c0 22 7.83301 40.5 23.5 55.5s33.834 22.5 54.501 22.5
c22.667 0 42 -7.5 58 -22.5s24 -33.5 24 -55.5s-8 -40.667 -24 -56s-35.333 -23 -58 -23c-20.667 0 -38.834 7.66699 -54.501 23s-23.5 34 -23.5 56zM944.001 1769c0 22.667 7.66699 41.334 23 56.001s34.333 22 57 22s41.667 -7.33301 57 -22s23 -33.334 23 -56.001
s-7.66699 -41.5 -23 -56.5s-34.333 -22.5 -57 -22.5s-41.667 7.5 -57 22.5s-23 33.833 -23 56.5z" />
    <glyph glyph-name="multiply" unicode="&#xd7;" 
d="M111 420l338 336l-334 334l78 77l333 -331l328 327l78 -80l-326 -327l332 -334l-80 -78l-332 332l-338 -336z" />
    <glyph glyph-name="Oslash" unicode="&#xd8;" horiz-adv-x="1787" 
d="M121 766c0 116 20.002 223.166 60.002 321.499s94.667 181.166 164 248.499s151.333 119.833 246 157.5s196 56.5 304 56.5c164 0 310 -41.667 438 -125l129 168l80 -59l-129 -168c80.667 -71.333 143.5 -158.166 188.5 -260.499s67.5 -215.5 67.5 -339.5
c0 -115.333 -20.167 -222.166 -60.5 -320.499s-95.333 -181 -165 -248s-151.834 -119.333 -246.501 -157s-195.334 -56.5 -302.001 -56.5c-164 0 -310.667 42.333 -440 127l-129 -168l-80 59l129 170c-80 70.667 -142.333 156.5 -187 257.5s-67 213.167 -67 336.5z
M248.002 765.999c0 -102.667 17.5 -196.333 52.5 -281s84.5 -157 148.5 -217l811 1061c-109.333 71.333 -231.666 107 -366.999 107c-89.333 0 -173.5 -16.167 -252.5 -48.5s-147.333 -77.333 -205 -135s-103.334 -128.5 -137.001 -212.5s-50.5 -175.333 -50.5 -274z
M526.002 205c109.333 -71.333 231.667 -107 367 -107c89.333 0 173.5 16 252.5 48s147.667 76.667 206 134s104.333 128 138 212s50.5 175.333 50.5 274c0 103.333 -17.833 197.5 -53.5 282.5s-85.5 157.5 -149.5 217.5z" />
    <glyph glyph-name="Ugrave" unicode="&#xd9;" horiz-adv-x="1587" 
d="M188 571l0.000976562 961h125v-957c0 -150 43.667 -267.333 131 -352s203.666 -127 348.999 -127c144.667 0 260.667 42.167 348 126.5s131 201.833 131 352.5v957h125v-961c0 -184 -55.333 -328.167 -166 -432.5s-256.667 -156.5 -438 -156.5
c-182 0 -328.333 52.333 -439 157s-166 248.667 -166 432zM350.001 1905h170l324 -277h-117z" />
    <glyph glyph-name="Uacute" unicode="&#xda;" horiz-adv-x="1587" 
d="M188 571l0.000976562 961h125v-957c0 -150 43.667 -267.333 131 -352s203.666 -127 348.999 -127c144.667 0 260.667 42.167 348 126.5s131 201.833 131 352.5v957h125v-961c0 -184 -55.333 -328.167 -166 -432.5s-256.667 -156.5 -438 -156.5
c-182 0 -328.333 52.333 -439 157s-166 248.667 -166 432zM729.001 1628l324 277h168l-373 -277h-119z" />
    <glyph glyph-name="Ucircumflex" unicode="&#xdb;" horiz-adv-x="1587" 
d="M188 571l0.000976562 961h125v-957c0 -150 43.667 -267.333 131 -352s203.666 -127 348.999 -127c144.667 0 260.667 42.167 348 126.5s131 201.833 131 352.5v957h125v-961c0 -184 -55.333 -328.167 -166 -432.5s-256.667 -156.5 -438 -156.5
c-182 0 -328.333 52.333 -439 157s-166 248.667 -166 432zM489.001 1628l246 277h111l248 -277h-105l-198 199l-197 -199h-105z" />
    <glyph glyph-name="Udieresis" unicode="&#xdc;" horiz-adv-x="1587" 
d="M188 571l0.000976562 961h125v-957c0 -150 43.667 -267.333 131 -352s203.666 -127 348.999 -127c144.667 0 260.667 42.167 348 126.5s131 201.833 131 352.5v957h125v-961c0 -184 -55.333 -328.167 -166 -432.5s-256.667 -156.5 -438 -156.5
c-182 0 -328.333 52.333 -439 157s-166 248.667 -166 432zM575.001 1769c0 22 7.83301 40.5 23.5 55.5s33.834 22.5 54.501 22.5c22.667 0 42 -7.5 58 -22.5s24 -33.5 24 -55.5s-8 -40.667 -24 -56s-35.333 -23 -58 -23c-20.667 0 -38.834 7.66699 -54.501 23
s-23.5 34 -23.5 56zM840.001 1769c0 22.667 7.66699 41.334 23 56.001s34.333 22 57 22s41.5 -7.33301 56.5 -22s22.5 -33.334 22.5 -56.001s-7.5 -41.5 -22.5 -56.5s-33.833 -22.5 -56.5 -22.5s-41.667 7.5 -57 22.5s-23 33.833 -23 56.5z" />
    <glyph glyph-name="Yacute" unicode="&#xdd;" horiz-adv-x="1409" 
d="M41 1532h145l519 -770l516 770h147l-600 -895v-637h-127v637zM643 1628l324 277h168l-373 -277h-119z" />
    <glyph glyph-name="Thorn" unicode="&#xde;" horiz-adv-x="1175" 
d="M199 0l0.00195312 1532h127v-209h264c147.333 0 263.666 -35.333 348.999 -106s128 -175.334 128 -314.001c0 -136 -42.833 -239.333 -128.5 -310s-201.834 -106 -348.501 -106h-264v-487h-127zM326.002 602.001h260c108.667 0 194.834 25.333 258.501 76
s95.5 125.667 95.5 225c0 101.333 -31.833 177.5 -95.5 228.5s-149.834 76.5 -258.501 76.5h-260v-606z" />
    <glyph glyph-name="germandbls" unicode="&#xdf;" horiz-adv-x="1269" 
d="M188 0l0.000976562 1245c0 107.333 37.833 194.666 113.5 261.999s174.5 101 296.5 101c117.333 0 210.5 -28.333 279.5 -85s103.5 -131 103.5 -223c0 -37.333 -6.5 -71.333 -19.5 -102s-28.833 -56.667 -47.5 -78l-56 -61c-18.667 -19.333 -34.5 -41 -47.5 -65
s-19.5 -49.333 -19.5 -76s6.83301 -51.667 20.5 -75s31.334 -44.5 53.001 -63.5s45.667 -38.167 72 -57.5s52.666 -40.666 78.999 -63.999s50.333 -48.666 72 -75.999s39.334 -61 53.001 -101s20.5 -83.667 20.5 -131c0 -110.667 -38.333 -199.334 -115 -266.001
s-176 -100 -298 -100c-78 0 -145.667 9.33301 -203 28l14 103c56.667 -19.333 116 -29 178 -29c90.667 0 163.834 23.833 219.501 71.5s83.5 112.5 83.5 194.5c0 39.333 -6.83301 76.166 -20.5 110.499s-31.334 63.833 -53.001 88.5s-45.667 48.167 -72 70.5l-79 65
c-26.333 21 -50.333 42.333 -72 64s-39.334 46.5 -53.001 74.5s-20.5 58 -20.5 90c0 33.333 6.5 64.333 19.5 93s28.833 53.167 47.5 73.5l56 59.5c18.667 19.333 34.5 41.166 47.5 65.499s19.5 50.166 19.5 77.499c0 66.667 -23.333 120.5 -70 161.5
s-111.334 61.5 -194.001 61.5c-86 0 -155.667 -24.5 -209 -73.5s-80 -113.167 -80 -192.5v-1241h-119z" />
    <glyph glyph-name="agrave" unicode="&#xe0;" 
d="M125 266c0 98.667 34.999 174.167 104.999 226.5s165.333 78.5 286 78.5c66.667 0 144 -6.66699 232 -20v143c0 79.333 -21.667 141.833 -65 187.5s-101 68.5 -173 68.5c-61.333 0 -113.666 -12 -156.999 -36s-83.333 -59.667 -120 -107l-75 72
c46 58.667 97.5 102.667 154.5 132s125.5 44 205.5 44c104 0 188 -31.333 252 -94s96 -149 96 -259v-702h-114v113c-87.333 -87.333 -192 -131 -314 -131c-92 0 -167.167 25.833 -225.5 77.5s-87.5 120.5 -87.5 206.5zM208.999 1606h135l227 -392h-94zM243.999 274
c0 -60 20.332 -106.667 60.999 -140s94.667 -50 162 -50c96.667 0 189.334 45.667 278.001 137v234c-66 12 -136 18 -210 18c-92 0 -163.5 -16.167 -214.5 -48.5s-76.5 -82.5 -76.5 -150.5z" />
    <glyph glyph-name="aacute" unicode="&#xe1;" 
d="M125 266c0 98.667 34.999 174.167 104.999 226.5s165.333 78.5 286 78.5c66.667 0 144 -6.66699 232 -20v143c0 79.333 -21.667 141.833 -65 187.5s-101 68.5 -173 68.5c-61.333 0 -113.666 -12 -156.999 -36s-83.333 -59.667 -120 -107l-75 72
c46 58.667 97.5 102.667 154.5 132s125.5 44 205.5 44c104 0 188 -31.333 252 -94s96 -149 96 -259v-702h-114v113c-87.333 -87.333 -192 -131 -314 -131c-92 0 -167.167 25.833 -225.5 77.5s-87.5 120.5 -87.5 206.5zM243.999 274c0 -60 20.332 -106.667 60.999 -140
s94.667 -50 162 -50c96.667 0 189.334 45.667 278.001 137v234c-66 12 -136 18 -210 18c-92 0 -163.5 -16.167 -214.5 -48.5s-76.5 -82.5 -76.5 -150.5zM474.998 1214l230 392h135l-269 -392h-96z" />
    <glyph glyph-name="acircumflex" unicode="&#xe2;" 
d="M125 266c0 98.667 34.999 174.167 104.999 226.5s165.333 78.5 286 78.5c66.667 0 144 -6.66699 232 -20v143c0 79.333 -21.667 141.833 -65 187.5s-101 68.5 -173 68.5c-61.333 0 -113.666 -12 -156.999 -36s-83.333 -59.667 -120 -107l-75 72
c46 58.667 97.5 102.667 154.5 132s125.5 44 205.5 44c104 0 188 -31.333 252 -94s96 -149 96 -259v-702h-114v113c-87.333 -87.333 -192 -131 -314 -131c-92 0 -167.167 25.833 -225.5 77.5s-87.5 120.5 -87.5 206.5zM220.999 1217l250 339h111l245 -339h-102l-201 253
l-198 -253h-105zM243.999 274c0 -60 20.332 -106.667 60.999 -140s94.667 -50 162 -50c96.667 0 189.334 45.667 278.001 137v234c-66 12 -136 18 -210 18c-92 0 -163.5 -16.167 -214.5 -48.5s-76.5 -82.5 -76.5 -150.5z" />
    <glyph glyph-name="atilde" unicode="&#xe3;" 
d="M125 266c0 98.667 34.999 174.167 104.999 226.5s165.333 78.5 286 78.5c66.667 0 144 -6.66699 232 -20v143c0 79.333 -21.667 141.833 -65 187.5s-101 68.5 -173 68.5c-61.333 0 -113.666 -12 -156.999 -36s-83.333 -59.667 -120 -107l-75 72
c46 58.667 97.5 102.667 154.5 132s125.5 44 205.5 44c104 0 188 -31.333 252 -94s96 -149 96 -259v-702h-114v113c-87.333 -87.333 -192 -131 -314 -131c-92 0 -167.167 25.833 -225.5 77.5s-87.5 120.5 -87.5 206.5zM208.999 1274
c-3.33301 58 10.502 107.668 41.502 149.001s72.5 62 124.5 62c28.667 0 56.667 -7 84 -21s50 -29.167 68 -45.5s38.667 -31.5 62 -45.5s46 -21 68 -21c34 0 60.333 10.833 79 32.5s28.667 50.167 30 85.5h72c2 -58.667 -12.5 -108.334 -43.5 -149.001s-72.5 -61 -124.5 -61
c-28.667 0 -56.667 7 -84 21s-49.833 29.167 -67.5 45.5s-38.334 31.5 -62.001 45.5s-46.834 21 -69.501 21c-32.667 0 -58.5 -11.167 -77.5 -33.5s-29.167 -50.833 -30.5 -85.5h-70zM244.001 274.001c0 -60 20.332 -106.667 60.999 -140s94.667 -50 162 -50
c96.667 0 189.334 45.667 278.001 137v234c-66 12 -136 18 -210 18c-92 0 -163.5 -16.167 -214.5 -48.5s-76.5 -82.5 -76.5 -150.5z" />
    <glyph glyph-name="adieresis" unicode="&#xe4;" 
d="M125 266c0 98.667 34.999 174.167 104.999 226.5s165.333 78.5 286 78.5c66.667 0 144 -6.66699 232 -20v143c0 79.333 -21.667 141.833 -65 187.5s-101 68.5 -173 68.5c-61.333 0 -113.666 -12 -156.999 -36s-83.333 -59.667 -120 -107l-75 72
c46 58.667 97.5 102.667 154.5 132s125.5 44 205.5 44c104 0 188 -31.333 252 -94s96 -149 96 -259v-702h-114v113c-87.333 -87.333 -192 -131 -314 -131c-92 0 -167.167 25.833 -225.5 77.5s-87.5 120.5 -87.5 206.5zM243.999 274c0 -60 20.332 -106.667 60.999 -140
s94.667 -50 162 -50c96.667 0 189.334 45.667 278.001 137v234c-66 12 -136 18 -210 18c-92 0 -163.5 -16.167 -214.5 -48.5s-76.5 -82.5 -76.5 -150.5zM310.998 1395c0 22 7.83301 41.167 23.5 57.5s33.834 24.5 54.501 24.5c22.667 0 42 -8 58 -24s24 -35.333 24 -58
c0 -21.333 -8 -39.333 -24 -54s-35.333 -22 -58 -22c-20.667 0 -38.834 7.33301 -54.501 22s-23.5 32.667 -23.5 54zM574.998 1395c0 22.667 7.66699 42 23 58s34.333 24 57 24s41.667 -8 57 -24s23 -35.333 23 -58c0 -21.333 -7.66699 -39.333 -23 -54s-34.333 -22 -57 -22
s-41.667 7.33301 -57 22s-23 32.667 -23 54z" />
    <glyph glyph-name="aring" unicode="&#xe5;" 
d="M125 266c0 98.667 34.999 174.167 104.999 226.5s165.333 78.5 286 78.5c66.667 0 144 -6.66699 232 -20v143c0 79.333 -21.667 141.833 -65 187.5s-101 68.5 -173 68.5c-61.333 0 -113.666 -12 -156.999 -36s-83.333 -59.667 -120 -107l-75 72
c46 58.667 97.5 102.667 154.5 132s125.5 44 205.5 44c104 0 188 -31.333 252 -94s96 -149 96 -259v-702h-114v113c-87.333 -87.333 -192 -131 -314 -131c-92 0 -167.167 25.833 -225.5 77.5s-87.5 120.5 -87.5 206.5zM243.999 274c0 -60 20.332 -106.667 60.999 -140
s94.667 -50 162 -50c96.667 0 189.334 45.667 278.001 137v234c-66 12 -136 18 -210 18c-92 0 -163.5 -16.167 -214.5 -48.5s-76.5 -82.5 -76.5 -150.5zM306.998 1409c0 58 21.168 106.333 63.501 145s94.166 58 155.499 58c60 0 110.833 -19.333 152.5 -58
s62.5 -87 62.5 -145c0 -59.333 -20.667 -108.333 -62 -147s-92.333 -58 -153 -58c-62 0 -114 19.167 -156 57.5s-63 87.5 -63 147.5zM390.999 1409c0 -38 12.332 -69 36.999 -93s56.667 -36 96 -36c38 0 69 12 93 36s36 55 36 93c0 35.333 -12.167 65 -36.5 89
s-55.166 36 -92.499 36c-38.667 0 -70.5 -12 -95.5 -36s-37.5 -53.667 -37.5 -89z" />
    <glyph glyph-name="ae" unicode="&#xe6;" horiz-adv-x="1769" 
d="M125 262c0 98.667 34.8311 174.499 104.498 227.499s165.167 79.5 286.5 79.5c66.667 0 144 -6.66699 232 -20v149c0 78.667 -21.5 140.334 -64.5 185.001s-100.833 67 -173.5 67c-61.333 0 -113.833 -11.833 -157.5 -35.5s-83.5 -58.834 -119.5 -105.501l-75 70
c46 58.667 97.5 102.667 154.5 132s125.5 44 205.5 44c78.667 0 146.167 -18 202.5 -54s96.833 -87 121.5 -153c44 66 100 117 168 153s142.333 54 223 54c145.333 0 254.833 -49.167 328.5 -147.5s102.834 -239.166 87.501 -422.499h-781
c0 -122.667 36.167 -219.834 108.5 -291.501s163.833 -107.5 274.5 -107.5c133.333 0 238.666 48.333 315.999 145l73 -69c-42 -57.333 -96.667 -101.666 -164 -132.999s-142.333 -47 -225 -47c-91.333 0 -174.666 19.667 -249.999 59s-134.666 96 -177.999 170
c-20.667 -44.667 -45.667 -81.667 -75 -111c-74.667 -78.667 -174.334 -118 -299.001 -118c-95.333 0 -173.166 24.667 -233.499 74s-90.5 118 -90.5 206zM243.998 269.999c0 -59.333 20.833 -105.167 62.5 -137.5s96.5 -48.5 164.5 -48.5c47.333 0 91.333 9.33301 132 28
s74.5 48.5 101.5 89.5s40.5 89.833 40.5 146.5v107c-66 12 -134.667 18 -206 18c-196.667 0 -295 -67.667 -295 -203zM869.998 587.998h666c0.666992 114 -26.166 202.833 -80.499 266.5s-130.5 95.5 -228.5 95.5c-96 0 -177.333 -33.333 -244 -100
s-104.334 -154 -113.001 -262z" />
    <glyph glyph-name="ccedilla" unicode="&#xe7;" horiz-adv-x="1079" 
d="M111 518c0 82 13.333 157.004 40 225.004s63.167 124.667 109.5 170s100.5 80.333 162.5 105s128 37 198 37c162.667 0 291 -63.667 385 -191l-84 -65c-76 100.667 -176.333 151 -301 151c-112.667 0 -205.834 -38.833 -279.501 -116.5s-110.5 -182.834 -110.5 -315.501
s36.833 -237.834 110.5 -315.501s166.834 -116.5 279.501 -116.5c126 0 226.333 50.667 301 152l84 -66c-92 -126.667 -219.667 -190 -383 -190l-25 -111c73.333 -2 133 -19.833 179 -53.5s69 -80.834 69 -141.501c0 -56 -23 -100.333 -69 -133s-101 -49 -165 -49
c-80.667 0 -149.334 17 -206.001 51l22 70c50 -30 106.667 -45 170 -45c43.333 0 80.166 9.16699 110.499 27.5s45.5 46.166 45.5 83.499c0 40.667 -18.5 71.5 -55.5 92.5s-85.5 31.5 -145.5 31.5c-15.333 0 -29.666 -1.33301 -42.999 -4l45 185
c-129.333 15.333 -235.666 70.333 -318.999 165s-125 217 -125 367z" />
    <glyph glyph-name="egrave" unicode="&#xe8;" horiz-adv-x="1130" 
d="M111 508c0 82.667 12.668 158.5 38.001 227.5s60 126.667 104 173s95.5 82.333 154.5 108s121.833 38.5 188.5 38.5c145.333 0 254.666 -49.167 327.999 -147.5s102 -239.166 86 -422.499h-779c0 -122.667 36 -219.834 108 -291.501s163.667 -107.5 275 -107.5
c133.333 0 238.666 48.333 315.999 145l74 -69c-43.333 -58 -98.5 -102.5 -165.5 -133.5s-141.833 -46.5 -224.5 -46.5c-93.333 0 -177.666 20 -252.999 60s-135.833 100.333 -181.5 181s-68.5 175.667 -68.5 285zM233.001 588h664.001c2 114 -24.167 202.833 -78.5 266.5
s-130.5 95.5 -228.5 95.5c-96 0 -177.333 -33.333 -244 -100s-104.334 -154 -113.001 -262zM281.002 1606h135l227 -392h-94z" />
    <glyph glyph-name="eacute" unicode="&#xe9;" horiz-adv-x="1130" 
d="M111 508c0 82.667 12.668 158.5 38.001 227.5s60 126.667 104 173s95.5 82.333 154.5 108s121.833 38.5 188.5 38.5c145.333 0 254.666 -49.167 327.999 -147.5s102 -239.166 86 -422.499h-779c0 -122.667 36 -219.834 108 -291.501s163.667 -107.5 275 -107.5
c133.333 0 238.666 48.333 315.999 145l74 -69c-43.333 -58 -98.5 -102.5 -165.5 -133.5s-141.833 -46.5 -224.5 -46.5c-93.333 0 -177.666 20 -252.999 60s-135.833 100.333 -181.5 181s-68.5 175.667 -68.5 285zM233.001 588h664.001c2 114 -24.167 202.833 -78.5 266.5
s-130.5 95.5 -228.5 95.5c-96 0 -177.333 -33.333 -244 -100s-104.334 -154 -113.001 -262zM549.002 1214l229 392h135l-268 -392h-96z" />
    <glyph glyph-name="ecircumflex" unicode="&#xea;" horiz-adv-x="1130" 
d="M111 508c0 82.667 12.668 158.5 38.001 227.5s60 126.667 104 173s95.5 82.333 154.5 108s121.833 38.5 188.5 38.5c145.333 0 254.666 -49.167 327.999 -147.5s102 -239.166 86 -422.499h-779c0 -122.667 36 -219.834 108 -291.501s163.667 -107.5 275 -107.5
c133.333 0 238.666 48.333 315.999 145l74 -69c-43.333 -58 -98.5 -102.5 -165.5 -133.5s-141.833 -46.5 -224.5 -46.5c-93.333 0 -177.666 20 -252.999 60s-135.833 100.333 -181.5 181s-68.5 175.667 -68.5 285zM233.001 588h664.001c2 114 -24.167 202.833 -78.5 266.5
s-130.5 95.5 -228.5 95.5c-96 0 -177.333 -33.333 -244 -100s-104.334 -154 -113.001 -262zM293.002 1217l250 339h110l246 -339h-102l-201 253l-199 -253h-104z" />
    <glyph glyph-name="edieresis" unicode="&#xeb;" horiz-adv-x="1130" 
d="M111 508c0 82.667 12.668 158.5 38.001 227.5s60 126.667 104 173s95.5 82.333 154.5 108s121.833 38.5 188.5 38.5c145.333 0 254.666 -49.167 327.999 -147.5s102 -239.166 86 -422.499h-779c0 -122.667 36 -219.834 108 -291.501s163.667 -107.5 275 -107.5
c133.333 0 238.666 48.333 315.999 145l74 -69c-43.333 -58 -98.5 -102.5 -165.5 -133.5s-141.833 -46.5 -224.5 -46.5c-93.333 0 -177.666 20 -252.999 60s-135.833 100.333 -181.5 181s-68.5 175.667 -68.5 285zM233.001 588h664.001c2 114 -24.167 202.833 -78.5 266.5
s-130.5 95.5 -228.5 95.5c-96 0 -177.333 -33.333 -244 -100s-104.334 -154 -113.001 -262zM385.002 1395c0 22 7.83301 41.167 23.5 57.5s33.834 24.5 54.501 24.5c22.667 0 42 -8 58 -24s24 -35.333 24 -58c0 -21.333 -8 -39.333 -24 -54s-35.333 -22 -58 -22
c-20.667 0 -38.834 7.33301 -54.501 22s-23.5 32.667 -23.5 54zM649.002 1395c0 22.667 7.66699 42 23 58s34.333 24 57 24s41.667 -8 57 -24s23 -35.333 23 -58c0 -21.333 -7.66699 -39.333 -23 -54s-34.333 -22 -57 -22s-41.667 7.33301 -57 22s-23 32.667 -23 54z" />
    <glyph glyph-name="igrave" unicode="&#xec;" horiz-adv-x="505" 
d="M-66 1606h136l227 -392h-94zM193 0v1036h118v-1036h-118z" />
    <glyph glyph-name="iacute" unicode="&#xed;" horiz-adv-x="505" 
d="M193 0v1036h118v-1036h-118zM201 1214l229 392h135l-268 -392h-96z" />
    <glyph glyph-name="icircumflex" unicode="&#xee;" horiz-adv-x="505" 
d="M-53 1217l250 339h110l246 -339h-102l-201 253l-199 -253h-104zM193 0v1036h118v-1036h-118z" />
    <glyph glyph-name="idieresis" unicode="&#xef;" horiz-adv-x="505" 
d="M39 1395c0 22 7.83301 41.167 23.5 57.5s33.834 24.5 54.501 24.5c22.667 0 42 -8 58 -24s24 -35.333 24 -58c0 -21.333 -8 -39.333 -24 -54s-35.333 -22 -58 -22c-20.667 0 -38.834 7.33301 -54.501 22s-23.5 32.667 -23.5 54zM193 0v1036h118v-1036h-118zM303 1395
c0 22.667 7.66699 42 23 58s34.333 24 57 24s41.667 -8 57 -24s23 -35.333 23 -58c0 -21.333 -7.66699 -39.333 -23 -54s-34.333 -22 -57 -22s-41.667 7.33301 -57 22s-23 32.667 -23 54z" />
    <glyph glyph-name="eth" unicode="&#xf0;" horiz-adv-x="1230" 
d="M111 481c0 100.667 22 189.5 66 266.5s102.167 135.167 174.5 174.5s152.5 59 240.5 59c74.667 0 144.667 -14.5 210 -43.5s119 -69.167 161 -120.5c-39.333 238 -125.333 414.333 -258 529l-228 -164l-55 55l217 158c-106 65.333 -231.667 98 -377 98v98
c186 0 342.333 -43.667 469 -131l215 156l53 -55l-204 -150c102.667 -88 179.834 -205.833 231.501 -353.5s77.5 -319.834 77.5 -516.501c0 -92 -12.833 -174 -38.5 -246s-61.167 -130.5 -106.5 -175.5s-97.833 -79.167 -157.5 -102.5s-124.834 -35 -195.501 -35
c-92 0 -175.167 19.667 -249.5 59s-133.833 97.333 -178.5 174s-67 165.334 -67 266.001zM231 481c0 -123.333 35.5 -219.999 106.5 -289.999s160.5 -105 268.5 -105c113.333 0 204.5 36.167 273.5 108.5s103.5 175.5 103.5 309.5c0 110 -36.333 199.667 -109 269
s-162 104 -268 104c-108 0 -197.5 -35.333 -268.5 -106s-106.5 -167.334 -106.5 -290.001z" />
    <glyph glyph-name="ntilde" unicode="&#xf1;" horiz-adv-x="1204" 
d="M193 0l-0.000976562 1036h116v-139c34.667 44 80.334 81.333 137.001 112s125 46 205 46c111.333 0 200.666 -36.833 267.999 -110.5s101 -170.834 101 -291.501v-653h-119v637c0 90.667 -24.5 164.5 -73.5 221.5s-115.833 85.5 -200.5 85.5
c-37.333 0 -72.333 -4.66699 -105 -14s-62 -22.833 -88 -40.5s-48.167 -34.667 -66.5 -51s-37.166 -35.833 -56.499 -58.5v-780h-118zM275.999 1274c-3.33301 58 10.4961 107.668 41.4961 149.001s72.5 62 124.5 62c28.667 0 56.834 -7 84.501 -21
s50.334 -29.167 68.001 -45.5s38.334 -31.5 62.001 -45.5s46.5 -21 68.5 -21c34 0 60.333 10.833 79 32.5s28.667 50.167 30 85.5h71c2 -58.667 -12.5 -108.334 -43.5 -149.001s-72.5 -61 -124.5 -61c-28.667 0 -56.667 7 -84 21s-49.833 29.167 -67.5 45.5
s-38.167 31.5 -61.5 45.5s-46.333 21 -69 21c-32.667 0 -58.667 -11.333 -78 -34s-29.666 -51 -30.999 -85h-70z" />
    <glyph glyph-name="ograve" unicode="&#xf2;" horiz-adv-x="1259" 
d="M111 518c0 79.333 13.835 152.833 41.502 220.5s65.167 124.334 112.5 170.001s102.5 81.5 165.5 107.5s129.833 39 200.5 39s137.5 -13 200.5 -39s118.167 -61.833 165.5 -107.5s84.833 -102.334 112.5 -170.001s41.5 -141.167 41.5 -220.5
c0 -105.333 -23.667 -199.166 -71 -281.499s-110.333 -145.333 -189 -189s-165.334 -65.5 -260.001 -65.5s-181.334 21.833 -260.001 65.5s-141.667 106.667 -189 189s-71 176.166 -71 281.499zM229.002 518c0 -127.333 38.668 -231.166 116.001 -311.499
s172 -120.5 284 -120.5s206.5 40.167 283.5 120.5s115.5 184.166 115.5 311.499c0 128.667 -38.333 232.834 -115 312.501s-171.334 119.5 -284.001 119.5s-207.5 -39.833 -284.5 -119.5s-115.5 -183.834 -115.5 -312.501zM313.003 1606h136l227 -392h-94z" />
    <glyph glyph-name="oacute" unicode="&#xf3;" horiz-adv-x="1259" 
d="M111 518c0 79.333 13.835 152.833 41.502 220.5s65.167 124.334 112.5 170.001s102.5 81.5 165.5 107.5s129.833 39 200.5 39s137.5 -13 200.5 -39s118.167 -61.833 165.5 -107.5s84.833 -102.334 112.5 -170.001s41.5 -141.167 41.5 -220.5
c0 -105.333 -23.667 -199.166 -71 -281.499s-110.333 -145.333 -189 -189s-165.334 -65.5 -260.001 -65.5s-181.334 21.833 -260.001 65.5s-141.667 106.667 -189 189s-71 176.166 -71 281.499zM229.002 518c0 -127.333 38.668 -231.166 116.001 -311.499
s172 -120.5 284 -120.5s206.5 40.167 283.5 120.5s115.5 184.166 115.5 311.499c0 128.667 -38.333 232.834 -115 312.501s-171.334 119.5 -284.001 119.5s-207.5 -39.833 -284.5 -119.5s-115.5 -183.834 -115.5 -312.501zM580.003 1214l229 392h135l-268 -392h-96z" />
    <glyph glyph-name="ocircumflex" unicode="&#xf4;" horiz-adv-x="1259" 
d="M111 518c0 79.333 13.835 152.833 41.502 220.5s65.167 124.334 112.5 170.001s102.5 81.5 165.5 107.5s129.833 39 200.5 39s137.5 -13 200.5 -39s118.167 -61.833 165.5 -107.5s84.833 -102.334 112.5 -170.001s41.5 -141.167 41.5 -220.5
c0 -105.333 -23.667 -199.166 -71 -281.499s-110.333 -145.333 -189 -189s-165.334 -65.5 -260.001 -65.5s-181.334 21.833 -260.001 65.5s-141.667 106.667 -189 189s-71 176.166 -71 281.499zM229.002 518c0 -127.333 38.668 -231.166 116.001 -311.499
s172 -120.5 284 -120.5s206.5 40.167 283.5 120.5s115.5 184.166 115.5 311.499c0 128.667 -38.333 232.834 -115 312.501s-171.334 119.5 -284.001 119.5s-207.5 -39.833 -284.5 -119.5s-115.5 -183.834 -115.5 -312.501zM326.003 1217l249 339h111l246 -339h-103l-200 253
l-199 -253h-104z" />
    <glyph glyph-name="otilde" unicode="&#xf5;" horiz-adv-x="1259" 
d="M111 518c0 79.333 13.835 152.833 41.502 220.5s65.167 124.334 112.5 170.001s102.5 81.5 165.5 107.5s129.833 39 200.5 39s137.5 -13 200.5 -39s118.167 -61.833 165.5 -107.5s84.833 -102.334 112.5 -170.001s41.5 -141.167 41.5 -220.5
c0 -105.333 -23.667 -199.166 -71 -281.499s-110.333 -145.333 -189 -189s-165.334 -65.5 -260.001 -65.5s-181.334 21.833 -260.001 65.5s-141.667 106.667 -189 189s-71 176.166 -71 281.499zM229.002 518c0 -127.333 38.668 -231.166 116.001 -311.499
s172 -120.5 284 -120.5s206.5 40.167 283.5 120.5s115.5 184.166 115.5 311.499c0 128.667 -38.333 232.834 -115 312.501s-171.334 119.5 -284.001 119.5s-207.5 -39.833 -284.5 -119.5s-115.5 -183.834 -115.5 -312.501zM313.003 1274
c-3.33301 58 10.4971 107.668 41.4971 149.001s72.5 62 124.5 62c28.667 0 56.834 -7 84.501 -21s50.334 -29.167 68.001 -45.5s38.334 -31.5 62.001 -45.5s46.5 -21 68.5 -21c34 0 60.167 10.833 78.5 32.5s28.166 50.167 29.499 85.5h72
c2 -58.667 -12.5 -108.334 -43.5 -149.001s-72.5 -61 -124.5 -61c-28.667 0 -56.667 7 -84 21s-49.833 29.167 -67.5 45.5s-38.167 31.5 -61.5 45.5s-46.333 21 -69 21c-32.667 0 -58.667 -11.333 -78 -34s-29.666 -51 -30.999 -85h-70z" />
    <glyph glyph-name="odieresis" unicode="&#xf6;" horiz-adv-x="1259" 
d="M111 518c0 79.333 13.835 152.833 41.502 220.5s65.167 124.334 112.5 170.001s102.5 81.5 165.5 107.5s129.833 39 200.5 39s137.5 -13 200.5 -39s118.167 -61.833 165.5 -107.5s84.833 -102.334 112.5 -170.001s41.5 -141.167 41.5 -220.5
c0 -105.333 -23.667 -199.166 -71 -281.499s-110.333 -145.333 -189 -189s-165.334 -65.5 -260.001 -65.5s-181.334 21.833 -260.001 65.5s-141.667 106.667 -189 189s-71 176.166 -71 281.499zM229.002 518c0 -127.333 38.668 -231.166 116.001 -311.499
s172 -120.5 284 -120.5s206.5 40.167 283.5 120.5s115.5 184.166 115.5 311.499c0 128.667 -38.333 232.834 -115 312.501s-171.334 119.5 -284.001 119.5s-207.5 -39.833 -284.5 -119.5s-115.5 -183.834 -115.5 -312.501zM416.003 1395c0 22 7.83301 41.167 23.5 57.5
s33.834 24.5 54.501 24.5c22.667 0 41.834 -8 57.501 -24s23.5 -35.333 23.5 -58c0 -21.333 -7.83301 -39.333 -23.5 -54s-34.834 -22 -57.501 -22c-20.667 0 -38.834 7.33301 -54.501 22s-23.5 32.667 -23.5 54zM680.003 1395c0 22.667 7.66699 42 23 58s34.333 24 57 24
s41.667 -8 57 -24s23 -35.333 23 -58c0 -21.333 -7.66699 -39.333 -23 -54s-34.333 -22 -57 -22s-41.667 7.33301 -57 22s-23 32.667 -23 54z" />
    <glyph glyph-name="divide" unicode="&#xf7;" horiz-adv-x="1118" 
d="M68 702v111h979v-111h-979zM467 348c0 26 8.83301 48.167 26.5 66.5s38.834 27.5 63.501 27.5c26.667 0 49.334 -9 68.001 -27s28 -40.333 28 -67c0 -24.667 -9.33301 -45.834 -28 -63.501s-41.334 -26.5 -68.001 -26.5c-24.667 0 -45.834 8.83301 -63.501 26.5
s-26.5 38.834 -26.5 63.501zM467 1165c0 25.333 8.83301 47 26.5 65s38.834 27 63.501 27c26.667 0 49.334 -9 68.001 -27s28 -39.667 28 -65c0 -26 -9.33301 -47.833 -28 -65.5s-41.334 -26.5 -68.001 -26.5c-24.667 0 -45.834 8.83301 -63.501 26.5s-26.5 39.5 -26.5 65.5
z" />
    <glyph glyph-name="oslash" unicode="&#xf8;" horiz-adv-x="1259" 
d="M111 518c0 79.333 13.834 152.829 41.501 220.496s65.167 124.334 112.5 170.001s102.5 81.5 165.5 107.5s129.833 39 200.5 39c108 0 203.667 -28 287 -84l88 114l67 -51l-88 -114c52 -48 92.667 -106.5 122 -175.5s44 -144.5 44 -226.5
c0 -105.333 -23.667 -199.166 -71 -281.499s-110.333 -145.333 -189 -189s-165.334 -65.5 -260.001 -65.5c-108 0 -205.667 28.667 -293 86l-92 -121l-68 51l94 123c-50.667 48.667 -90.167 106.834 -118.5 174.501s-42.5 141.834 -42.5 222.501zM229.001 517.996
c0 -122 36.999 -224.332 110.999 -306.999l512 672c-65.333 44.667 -139.666 67 -222.999 67c-112.667 0 -207.5 -39.833 -284.5 -119.5s-115.5 -183.834 -115.5 -312.501zM403 155.997c68.667 -46.667 144 -69.999 226 -69.999c112 0 206.5 40.167 283.5 120.5
s115.5 184.166 115.5 311.499c0 126.667 -37.667 229.667 -113 309z" />
    <glyph glyph-name="ugrave" unicode="&#xf9;" horiz-adv-x="1179" 
d="M184 406v630h119v-630c0 -92 26.667 -167.333 80 -226s122.333 -88 207 -88s153.667 29.333 207 88s80 134 80 226v630h118v-630c0 -124 -37.5 -225.667 -112.5 -305s-172.5 -119 -292.5 -119s-217.667 39.667 -293 119s-113 181 -113 305zM272 1606h136l227 -392h-94z
" />
    <glyph glyph-name="uacute" unicode="&#xfa;" horiz-adv-x="1179" 
d="M184 406v630h119v-630c0 -92 26.667 -167.333 80 -226s122.333 -88 207 -88s153.667 29.333 207 88s80 134 80 226v630h118v-630c0 -124 -37.5 -225.667 -112.5 -305s-172.5 -119 -292.5 -119s-217.667 39.667 -293 119s-113 181 -113 305zM539 1214l229 392h135
l-268 -392h-96z" />
    <glyph glyph-name="ucircumflex" unicode="&#xfb;" horiz-adv-x="1179" 
d="M184 406v630h119v-630c0 -92 26.667 -167.333 80 -226s122.333 -88 207 -88s153.667 29.333 207 88s80 134 80 226v630h118v-630c0 -124 -37.5 -225.667 -112.5 -305s-172.5 -119 -292.5 -119s-217.667 39.667 -293 119s-113 181 -113 305zM285 1217l250 339h110
l246 -339h-103l-200 253l-199 -253h-104z" />
    <glyph glyph-name="udieresis" unicode="&#xfc;" horiz-adv-x="1179" 
d="M184 406v630h119v-630c0 -92 26.667 -167.333 80 -226s122.333 -88 207 -88s153.667 29.333 207 88s80 134 80 226v630h118v-630c0 -124 -37.5 -225.667 -112.5 -305s-172.5 -119 -292.5 -119s-217.667 39.667 -293 119s-113 181 -113 305zM375 1395
c0 22 7.83301 41.167 23.5 57.5s33.834 24.5 54.501 24.5c22.667 0 42 -8 58 -24s24 -35.333 24 -58c0 -21.333 -8 -39.333 -24 -54s-35.333 -22 -58 -22c-20.667 0 -38.834 7.33301 -54.501 22s-23.5 32.667 -23.5 54zM639 1395c0 22.667 7.66699 42 23 58s34.333 24 57 24
s41.667 -8 57 -24s23 -35.333 23 -58c0 -21.333 -7.66699 -39.333 -23 -54s-34.333 -22 -57 -22s-41.667 7.33301 -57 22s-23 32.667 -23 54z" />
    <glyph glyph-name="yacute" unicode="&#xfd;" horiz-adv-x="1036" 
d="M43 1036h129l346 -880l348 880h129l-626 -1558h-129l217 534zM469 1214l229 392h136l-269 -392h-96z" />
    <glyph glyph-name="thorn" unicode="&#xfe;" horiz-adv-x="1255" 
d="M193 -522l0.000976562 2113h118v-678c82.667 94.667 199.667 142 351 142c61.333 0 120.333 -11.167 177 -33.5s108 -54.833 154 -97.5s82.833 -99 110.5 -169s41.5 -149 41.5 -237c0 -88.667 -13.833 -168 -41.5 -238s-64.834 -126.167 -111.501 -168.5
s-98.5 -74.5 -155.5 -96.5s-116.833 -33 -179.5 -33c-146.667 0 -262 47.667 -346 143v-647h-118zM311.001 248c41.333 -52.667 87.5 -92.8311 138.5 -120.498s115.5 -41.5 193.5 -41.5c48 0 94.5 9 139.5 27s85.833 44.167 122.5 78.5s66 79.666 88 135.999
s33 119.833 33 190.5s-11 134.167 -33 190.5s-51.333 101.666 -88 135.999s-77.5 60.5 -122.5 78.5s-91.5 27 -139.5 27c-78.667 0 -143.5 -13.333 -194.5 -40s-96.833 -65.667 -137.5 -117v-545z" />
    <glyph glyph-name="ydieresis" unicode="&#xff;" horiz-adv-x="1036" 
d="M43 1036h129l346 -880l348 880h129l-626 -1558h-129l217 534zM305 1395c0 22 7.83301 41.167 23.5 57.5s33.834 24.5 54.501 24.5c22.667 0 42 -8 58 -24s24 -35.333 24 -58c0 -21.333 -8 -39.333 -24 -54s-35.333 -22 -58 -22c-20.667 0 -38.834 7.33301 -54.501 22
s-23.5 32.667 -23.5 54zM569 1395c0 22.667 7.66699 42 23 58s34.333 24 57 24s41.667 -8 57 -24s23 -35.333 23 -58c0 -21.333 -7.66699 -39.333 -23 -54s-34.333 -22 -57 -22s-41.667 7.33301 -57 22s-23 32.667 -23 54z" />
    <glyph glyph-name="OE" unicode="&#x152;" horiz-adv-x="2361" 
d="M121 766c0 116 20.001 223.169 60.001 321.502s94.667 181.166 164 248.499s151.333 119.833 246 157.5s196 56.5 304 56.5c135.333 0 259.5 -28.833 372.5 -86.5s203.833 -138.5 272.5 -242.5v311h746v-115h-621v-563v-4h563v-113h-559
c-0.666992 -6.66699 -1.33398 -16.5 -2.00098 -29.5s-1.33398 -22.833 -2.00098 -29.5v-563h623v-115h-748v315c-69.333 -104.667 -160.5 -186 -273.5 -244s-236.833 -87 -371.5 -87c-107.333 0 -208.333 18.833 -303 56.5s-176.667 90 -246 157
s-124.166 149.667 -164.499 248s-60.5 205.166 -60.5 320.499zM248.001 766.002c0 -98.667 16.835 -190.167 50.502 -274.5s79.334 -155.333 137.001 -213s126 -102.834 205 -135.501s163.167 -49 252.5 -49s173.666 16.333 252.999 49s148 77.834 206 135.501
s103.833 128.667 137.5 213s50.5 175.833 50.5 274.5s-16.833 190.167 -50.5 274.5s-79.334 155.333 -137.001 213s-126.167 102.834 -205.5 135.501s-164 49 -254 49c-89.333 0 -173.5 -16.333 -252.5 -49s-147.333 -77.834 -205 -135.501s-103.334 -128.667 -137.001 -213
s-50.5 -175.833 -50.5 -274.5z" />
    <glyph glyph-name="oe" unicode="&#x153;" horiz-adv-x="2050" 
d="M111 518c0 79.333 13.835 152.831 41.502 220.498s65.167 124.334 112.5 170.001s102.5 81.5 165.5 107.5s129.833 39 200.5 39c97.333 0 186.333 -23.833 267 -71.5s143.667 -113.5 189 -197.5c40.667 84.667 98.667 150.667 174 198s159.333 71 252 71
c145.333 0 254.833 -49.167 328.5 -147.5s102.834 -239.166 87.501 -422.499h-778l-2 -16c2.66699 -118 40 -211.333 112 -280s162.333 -103 271 -103c132.667 0 237.667 48.333 315 145l74 -69c-42 -57.333 -96.667 -101.666 -164 -132.999s-142.333 -47 -225 -47
c-99.333 0 -188.333 22.833 -267 68.5s-138.667 110.834 -180 195.501c-44.667 -82.667 -107.334 -147.334 -188.001 -194.001s-169.334 -70 -266.001 -70c-94.667 0 -181.334 21.833 -260.001 65.5s-141.667 106.667 -189 189s-71 176.166 -71 281.499zM229.002 517.998
c0 -127.333 38.668 -231.166 116.001 -311.499s172 -120.5 284 -120.5s206.5 40.167 283.5 120.5s115.5 184.166 115.5 311.499c0 128.667 -38.333 232.834 -115 312.501s-171.334 119.5 -284.001 119.5s-207.5 -39.833 -284.5 -119.5s-115.5 -183.834 -115.5 -312.501z
M1151 587.998h666.001c0.666992 114 -26.333 202.833 -81 266.5s-131 95.5 -229 95.5c-95.333 0 -176.333 -33.333 -243 -100s-104.334 -154 -113.001 -262z" />
    <glyph glyph-name="Ydieresis" unicode="&#x178;" horiz-adv-x="1409" 
d="M41 1532h145l519 -770l516 770h147l-600 -895v-637h-127v637zM489 1769c0 22 7.83301 40.5 23.5 55.5s33.834 22.5 54.501 22.5c22.667 0 42 -7.5 58 -22.5s24 -33.5 24 -55.5s-8 -40.667 -24 -56s-35.333 -23 -58 -23c-20.667 0 -38.834 7.66699 -54.501 23
s-23.5 34 -23.5 56zM754 1769c0 22.667 7.66699 41.334 23 56.001s34.333 22 57 22s41.5 -7.33301 56.5 -22s22.5 -33.334 22.5 -56.001s-7.5 -41.5 -22.5 -56.5s-33.833 -22.5 -56.5 -22.5s-41.667 7.5 -57 22.5s-23 33.833 -23 56.5z" />
    <glyph glyph-name="circumflex" unicode="&#x2c6;" horiz-adv-x="688" 
d="M39 1217l250 339h110l246 -339h-102l-201 253l-199 -253h-104z" />
    <glyph glyph-name="tilde" unicode="&#x2dc;" horiz-adv-x="718" 
d="M45 1274c-3.33301 58 10.5 107.668 41.5 149.001s72.5 62 124.5 62c28.667 0 56.834 -7 84.501 -21s50.334 -29.167 68.001 -45.5s38.334 -31.5 62.001 -45.5s46.5 -21 68.5 -21c34 0 60.167 10.833 78.5 32.5s28.166 50.167 29.499 85.5h72
c2 -58.667 -12.5 -108.334 -43.5 -149.001s-72.5 -61 -124.5 -61c-28.667 0 -56.667 7 -84 21s-49.833 29.167 -67.5 45.5s-38.334 31.5 -62.001 45.5s-46.834 21 -69.501 21c-32.667 0 -58.5 -11.167 -77.5 -33.5s-29.167 -50.833 -30.5 -85.5h-70z" />
    <glyph glyph-name="uni2000" unicode="&#x2000;" horiz-adv-x="1002" 
 />
    <glyph glyph-name="uni2001" unicode="&#x2001;" horiz-adv-x="2005" 
 />
    <glyph glyph-name="uni2002" unicode="&#x2002;" horiz-adv-x="1002" 
 />
    <glyph glyph-name="uni2003" unicode="&#x2003;" horiz-adv-x="2005" 
 />
    <glyph glyph-name="uni2004" unicode="&#x2004;" horiz-adv-x="668" 
 />
    <glyph glyph-name="uni2005" unicode="&#x2005;" horiz-adv-x="501" 
 />
    <glyph glyph-name="uni2006" unicode="&#x2006;" horiz-adv-x="334" 
 />
    <glyph glyph-name="uni2007" unicode="&#x2007;" horiz-adv-x="334" 
 />
    <glyph glyph-name="uni2008" unicode="&#x2008;" horiz-adv-x="250" 
 />
    <glyph glyph-name="uni2009" unicode="&#x2009;" horiz-adv-x="401" 
 />
    <glyph glyph-name="uni200A" unicode="&#x200a;" horiz-adv-x="111" 
 />
    <glyph glyph-name="uni2010" unicode="&#x2010;" horiz-adv-x="821" 
d="M92 479v113h637v-113h-637z" />
    <glyph glyph-name="uni2011" unicode="&#x2011;" horiz-adv-x="821" 
d="M92 479v113h637v-113h-637z" />
    <glyph glyph-name="figuredash" unicode="&#x2012;" horiz-adv-x="821" 
d="M92 479v113h637v-113h-637z" />
    <glyph glyph-name="endash" unicode="&#x2013;" horiz-adv-x="1148" 
d="M92 479v113h965v-113h-965z" />
    <glyph glyph-name="emdash" unicode="&#x2014;" horiz-adv-x="1624" 
d="M92 479v113h1440v-113h-1440z" />
    <glyph glyph-name="quoteleft" unicode="&#x2018;" horiz-adv-x="346" 
d="M88 1159v2.00098v2c0 151.333 63.667 266.666 191 345.999v-57c-70 -55.333 -107 -128.333 -111 -219h4c24.667 0 45.5 -8.5 62.5 -25.5s25.5 -37.833 25.5 -62.5c0 -26 -8 -47.833 -24 -65.5s-36.667 -26.5 -62 -26.5c-27.333 0 -48.5 9.66699 -63.5 29
s-22.5 45 -22.5 77z" />
    <glyph glyph-name="quoteright" unicode="&#x2019;" horiz-adv-x="346" 
d="M68 1055l-0.000976562 57c68.667 54.667 105.334 127.667 110.001 219h-4c-24.667 0 -45.5 8.5 -62.5 25.5s-25.5 37.833 -25.5 62.5c0 26 8 47.833 24 65.5s36.667 26.5 62 26.5c27.333 0 48.5 -9.66699 63.5 -29s22.5 -45 22.5 -77v-4
c0 -154 -63.333 -269.333 -190 -346z" />
    <glyph glyph-name="quotesinglbase" unicode="&#x201a;" horiz-adv-x="346" 
d="M68 -236c69.333 56 106 129.333 110 220h-4c-24.667 0 -45.5 8.83301 -62.5 26.5s-25.5 38.834 -25.5 63.501c0 25.333 8 46.666 24 63.999s36.667 26 62 26c26.667 0 47.667 -9.83301 63 -29.5s23 -45.5 23 -77.5v-4c0 -152 -63.333 -267.333 -190 -346v57z" />
    <glyph glyph-name="quotedblleft" unicode="&#x201c;" horiz-adv-x="645" 
d="M72 1159l0.000976562 2v2c0 152 63.333 267.333 190 346v-57c-68.667 -54.667 -105.334 -127.667 -110.001 -219h4c24.667 0 45.5 -8.5 62.5 -25.5s25.5 -37.833 25.5 -62.5c0 -26 -8 -47.833 -24 -65.5s-36.667 -26.5 -62 -26.5c-27.333 0 -48.5 9.66699 -63.5 29
s-22.5 45 -22.5 77zM375.001 1159l0.000976562 2v2c0 152 63.333 267.333 190 346v-57c-68.667 -54.667 -105.334 -127.667 -110.001 -219h4c24.667 0 45.5 -8.5 62.5 -25.5s25.5 -37.833 25.5 -62.5c0 -26 -8 -47.833 -24 -65.5s-36.667 -26.5 -62 -26.5
c-27.333 0 -48.5 9.66699 -63.5 29s-22.5 45 -22.5 77z" />
    <glyph glyph-name="quotedblright" unicode="&#x201d;" horiz-adv-x="645" 
d="M51 1055v56.999c70 55.333 107 128.333 111 219h-4c-24.667 0 -45.5 8.5 -62.5 25.5s-25.5 37.833 -25.5 62.5c0 26 8 47.833 24 65.5s36.667 26.5 62 26.5c27.333 0 48.5 -9.66699 63.5 -29s22.5 -45 22.5 -77v-2v-2c0 -153.333 -63.667 -268.666 -191 -345.999z
M354 1055v56.999c70 55.333 107 128.333 111 219h-4c-24.667 0 -45.5 8.5 -62.5 25.5s-25.5 37.833 -25.5 62.5c0 26 8 47.833 24 65.5s36.667 26.5 62 26.5c27.333 0 48.5 -9.66699 63.5 -29s22.5 -45 22.5 -77v-4c0 -153.333 -63.667 -268.666 -191 -345.999z" />
    <glyph glyph-name="quotedblbase" unicode="&#x201e;" horiz-adv-x="645" 
d="M68 -236c69.333 56 106 129.333 110 220h-4c-24.667 0 -45.5 8.83301 -62.5 26.5s-25.5 38.834 -25.5 63.501c0 25.333 8 46.666 24 63.999s36.667 26 62 26c26.667 0 47.667 -9.83301 63 -29.5s23 -45.5 23 -77.5v-2v-2c0 -152 -63.333 -267.333 -190 -346v57zM367 -236
c68 55.333 105.334 128.667 112.001 220h-4c-24.667 0 -45.834 8.83301 -63.501 26.5s-26.5 38.834 -26.5 63.501c0 25.333 8 46.666 24 63.999s36.667 26 62 26c28 0 49.667 -9.83301 65 -29.5s23 -45.5 23 -77.5v-4c0 -152 -64 -267.333 -192 -346v57z" />
    <glyph glyph-name="bullet" unicode="&#x2022;" horiz-adv-x="714" 
d="M117 522c0 66.667 23.332 123.333 69.999 170s103.667 70 171 70c66 0 122.5 -23.5 169.5 -70.5s70.5 -103.5 70.5 -169.5c0 -66.667 -23.667 -123.5 -71 -170.5s-103.666 -70.5 -168.999 -70.5c-67.333 0 -124.333 23.5 -171 70.5s-70 103.833 -70 170.5z" />
    <glyph glyph-name="ellipsis" unicode="&#x2026;" horiz-adv-x="1130" 
d="M104 74c0 25.333 9 47 27 65s39.333 27 64 27c26.667 0 49.334 -9 68.001 -27s28 -39.667 28 -65s-9.33301 -47 -28 -65s-41.334 -27 -68.001 -27c-24.667 0 -46 9 -64 27s-27 39.667 -27 65zM473 74c0 25.333 8.66699 47 26 65s38.666 27 63.999 27
c26.667 0 49 -9 67 -27s27 -39.667 27 -65s-9 -47 -27 -65s-40.333 -27 -67 -27c-25.333 0 -46.666 9 -63.999 27s-26 39.667 -26 65zM842 74c0 25.333 8.83301 47 26.5 65s38.834 27 63.501 27c27.333 0 50.166 -8.83301 68.499 -26.5s27.5 -39.5 27.5 -65.5
s-9.16699 -47.833 -27.5 -65.5s-41.166 -26.5 -68.499 -26.5c-24.667 0 -45.834 9 -63.501 27s-26.5 39.667 -26.5 65z" />
    <glyph glyph-name="uni202F" unicode="&#x202f;" horiz-adv-x="401" 
 />
    <glyph glyph-name="guilsinglleft" unicode="&#x2039;" horiz-adv-x="598" 
d="M31 516l438 432l84 -76l-375 -356l375 -358l-84 -74z" />
    <glyph glyph-name="guilsinglright" unicode="&#x203a;" horiz-adv-x="598" 
d="M45 158l375 358l-375 356l84 76l438 -432l-438 -432z" />
    <glyph glyph-name="uni205F" unicode="&#x205f;" horiz-adv-x="501" 
 />
    <glyph glyph-name="Euro" unicode="&#x20ac;" horiz-adv-x="1404" 
d="M14 547l29.001 77.999h178c-5.33301 40 -8 87 -8 141c0 52.667 2.66699 99 8 139h-207l29 78h188c33.333 178 104.333 317 213 417s244 150 406 150c168.667 0 310 -44.333 424 -133l-41 -104c-100 83.333 -225.667 125 -377 125c-130 0 -238 -40 -324 -120
s-143.333 -191.667 -172 -335h732l-29 -78h-715c-5.33301 -40 -8 -86.333 -8 -139c0 -54 2.66699 -101 8 -141h596l-29 -78h-555c29.333 -143.333 87.166 -254.666 173.499 -333.999s193.833 -119 322.5 -119c154 0 282.333 45 385 135l55 -104
c-121.333 -95.333 -270 -143 -446 -143c-163.333 0 -299 50 -407 150s-178.667 238.333 -212 415h-217z" />
    <glyph glyph-name="trademark" unicode="&#x2122;" horiz-adv-x="1798" 
d="M76 1436v96h653v-96h-283v-639h-90v639h-280zM842 797v735h98l311 -594l312 594h96v-735h-90v575l-295 -575h-45l-295 575v-575h-92z" />
    <glyph glyph-name="uni25FC" unicode="&#x25fc;" horiz-adv-x="1034" 
d="M0 0v1034h1034v-1034h-1034z" />
    <glyph glyph-name="glyph1" horiz-adv-x="0" 
 />
    <glyph glyph-name="glyph2" horiz-adv-x="682" 
 />
    </font>
</defs>
</svg>
